<?xml version="1.0" encoding="UTF-8"?><svg version="1.1" width="56px" height="56px" viewBox="0 0 56.0 56.0" xmlns="http://www.w3.org/2000/svg" xmlns:xlink="http://www.w3.org/1999/xlink"><defs><clipPath id="i0"><path d="M1204,0 L1204,711 L0,711 L0,0 L1204,0 Z"></path></clipPath><clipPath id="i1"><path d="M4.70165211,0 L14.3002699,3.70423337 C15.4999581,4.1656542 16.8080365,4.26296253 17.6949003,4.26296253 C19.0900134,4.26279542 20.4243968,4.02450978 21.4469013,3.59155178 L29.9531644,0 L35.1417658,0 L35.1417658,5.76859584 C35.1417658,7.54209163 33.8235658,9.55186786 32.198659,10.2545264 L20.4496452,15.3356142 C18.8237373,16.0383284 16.187393,16.0352649 14.5634873,15.3285402 L2.94104907,10.2616561 C1.3171433,9.55493137 0,7.54220303 0,5.76870724 L0,0 L4.70165211,0 Z"></path></clipPath><clipPath id="i2"><path d="M24.3729404,0.484251728 C26.0313264,-0.139368211 28.7273436,-0.164656122 30.3957956,0.431559297 L52.8833869,8.4461561 C54.296741,8.95219282 54.5194719,9.77449554 53.5647599,10.4335965 L53.6042453,10.4335965 L53.6042453,23.1120151 L55.0175439,27.7236612 C54.2576296,29.8289127 53.546244,30.8815384 52.8833869,30.8815384 C52.2205298,30.8815384 51.6154581,29.8289127 51.0681717,27.7236612 L52.4339209,23.1596945 L52.4339209,10.9903205 L30.3300052,20.3221167 C28.6979799,21.01163 26.0353861,21.0532381 24.3821166,20.4164172 L1.23639856,11.4840474 C-0.41581433,10.8472265 -0.411810179,9.82312185 1.24652017,9.19849931 Z"></path></clipPath><clipPath id="i3"><path d="M25.3483415,0.89497763 L45.1929825,7.16375719 L25.6582077,14.3986235 C23.7132087,15.11897 21.5791001,15.1454183 19.6168465,14.4734949 L0,7.75620863 L19.7060186,0.967720133 C21.5303664,0.33925407 23.508398,0.313752699 25.3483415,0.89497763 Z"></path></clipPath><clipPath id="i4"><path d="M29.3508772,0 C33.2168704,-1.59834986e-15 36.3508772,3.13400675 36.3508772,7 L36.3508772,13.6315789 C36.3508772,17.4975722 33.2168704,20.6315789 29.3508772,20.6315789 L7,20.6315789 C3.13400675,20.6315789 -4.14730794e-16,17.4975722 0,13.6315789 L0,7 C-1.36162605e-15,3.13400675 3.13400675,-1.78006981e-16 7,0 L29.3508772,0 Z"></path></clipPath><clipPath id="i5"><path d="M1.69178947,1.18975439 L1.69178947,5.36421053 L0.935298246,5.36421053 L0.935298246,1.18975439 L1.69178947,1.18975439 Z M2.07003509,0 L2.07003509,0.653333333 L0.728982456,0.653333333 C0.639578947,0.653333333 0.584561404,0.722105263 0.584561404,0.797754386 L0.584561404,1.01782456 L0,1.01782456 L0,0.653333333 C0,0.233824561 0.316350877,0 0.64645614,0 L2.07003509,0 Z"></path></clipPath><clipPath id="i6"><path d="M2.40014035,0 L2.9434386,0.508912281 L1.62301754,2.06315789 L4.24322807,2.06315789 C4.86217544,2.06315789 5.37108772,2.56519298 5.37108772,3.19101754 L5.37108772,3.69992982 C5.37108772,4.35326316 4.82778947,4.83466667 4.2157193,4.83466667 L0.0962807018,4.83466667 C0.0343859649,4.82778947 0,4.79340351 0,4.73838596 L0,4.03691228 C0,3.97501754 0.0343859649,3.94063158 0.0962807018,3.94063158 L4.34638596,3.94063158 C4.48392982,3.94063158 4.61459649,3.83747368 4.61459649,3.67242105 L4.61459649,3.18414035 C4.61459649,3.01908772 4.47705263,2.88842105 4.312,2.88842105 L0.92154386,2.88842105 L0.378245614,2.36575439 L2.40014035,0 Z"></path></clipPath><clipPath id="i7"><path d="M0.756491228,0 L0.756491228,3.48673684 C0.756491228,3.67242105 0.900912281,3.81684211 1.08659649,3.81684211 L1.40982456,3.81684211 C1.46484211,3.81684211 1.50610526,3.86498246 1.50610526,3.92 L1.50610526,4.61459649 C1.50610526,4.67649123 1.4717193,4.71087719 1.40982456,4.71087719 L1.21038596,4.71087719 C0.550175439,4.71087719 0,4.17445614 0,3.50736842 L0,0 L0.756491228,0 Z"></path></clipPath><clipPath id="i8"><path d="M2.11129825,0 L3.02596491,1.62301754 C3.136,1.80870175 3.19101754,2.00814035 3.19101754,2.20757895 C3.19101754,2.24196491 3.22540351,2.50329825 3.01221053,2.86091228 C2.79901754,3.22540351 2.40701754,3.48673684 1.93249123,3.48673684 L0.907789474,3.48673684 C0.412631579,3.48673684 0,3.07410526 0,2.57207018 L0,1.67803509 L0.64645614,1.67803509 L0.64645614,2.43452632 C0.64645614,2.52392982 0.722105263,2.59270175 0.804631579,2.59270175 L1.93936842,2.59270175 C2.10442105,2.59270175 2.24196491,2.50329825 2.32449123,2.37263158 C2.40014035,2.24196491 2.38638596,2.1594386 2.38638596,2.1525614 C2.38638596,2.07691228 2.36575439,2.00814035 2.32449123,1.93936842 L1.4717193,0.419508772 L2.11129825,0 Z"></path></clipPath><clipPath id="i9"><path d="M2.2557193,0 C2.88154386,0 3.38357895,0.502035088 3.38357895,1.12785965 L3.38357895,1.93249123 C3.38357895,2.40014035 3.01221053,2.77150877 2.5514386,2.77150877 L1.75368421,2.77150877 C1.47859649,2.77150877 1.22414035,2.67522807 1.02470175,2.37950877 C0.811508772,2.67522807 0.557052632,2.77150877 0.261333333,2.77150877 L0.0962807018,2.77150877 C0.0343859649,2.77150877 0,2.73712281 0,2.67522807 L0,1.97375439 C0,1.91185965 0.0343859649,1.87747368 0.0962807018,1.87747368 L0.316350877,1.87747368 C0.502035088,1.87747368 0.64645614,1.7605614 0.680842105,1.57487719 L0.818385965,0.866526316 C0.914666667,0.364491228 1.36168421,0 1.87059649,0 Z M2.36575439,0.859649123 L1.80870175,0.859649123 C1.67803509,0.859649123 1.58175439,0.942175439 1.55424561,1.07284211 L1.44421053,1.62301754 C1.44421053,1.63677193 1.43733333,1.65052632 1.43733333,1.67115789 C1.43733333,1.7605614 1.51985965,1.87747368 1.65740351,1.87747368 L2.62708772,1.87747368 L2.62708772,1.12098246 C2.62708772,0.976561404 2.51017544,0.859649123 2.36575439,0.859649123 Z"></path></clipPath><clipPath id="i10"><path d="M0.756491228,0 L0.756491228,1.70554386 C0.756491228,2.13192982 1.10722807,2.46891228 1.51985965,2.46891228 L2.79214035,2.46891228 C3.11536842,2.46891228 3.36982456,2.22133333 3.37670175,1.89810526 L3.36982456,1.75368421 L2.02189474,1.75368421 L2.02189474,0.85277193 L4.73150877,0.85277193 C4.77277193,0.85277193 4.81403509,0.894035088 4.81403509,0.942175439 L4.81403509,1.64364912 C4.81403509,1.69866667 4.77964912,1.73305263 4.71775439,1.75368421 L4.10568421,1.75368421 C4.10568421,1.7605614 4.12631579,1.81557895 4.12631579,1.89122807 L4.12631579,2.00126316 C4.12631579,2.77150877 3.50049123,3.36294737 2.70961404,3.36294737 L1.54049123,3.36294737 C0.687719298,3.36294737 0,2.67522807 0,1.82245614 L0,0 L0.756491228,0 Z"></path></clipPath></defs><g transform="translate(-136.0 -149.0)"><g clip-path="url(#i0)"><g transform="translate(136.0 149.0)"><g transform="translate(9.503691719092576 19.01388502136149)"><g clip-path="url(#i1)"><polygon points="0,0 35.1417658,0 35.1417658,15.8606237 0,15.8606237 0,0" stroke="none" fill="#16B09F"></polygon></g></g><g clip-path="url(#i2)"><polygon points="-2.65473697e-16,-6.83046692e-17 55.0175439,-6.83046692e-17 55.0175439,30.8815384 -2.65473697e-16,30.8815384 -2.65473697e-16,-6.83046692e-17" stroke="none" fill="#000000"></polygon></g><g transform="translate(4.590798222696002 2.41856033790427)"><g clip-path="url(#i3)"><polygon points="0,0.47696678 45.1929825,0.47696678 45.1929825,14.9588517 0,14.9588517 0,0.47696678" stroke="none" fill="#FFFFFF"></polygon></g></g><g transform="translate(8.842105263157894 35.36842105263159)"><g clip-path="url(#i4)"><polygon points="0,0 36.3508772,0 36.3508772,20.6315789 0,20.6315789 0,0" stroke="none" fill="#16B09F"></polygon><path d="M7,0 L29.3508772,0 C33.2168704,-1.59834986e-15 36.3508772,3.13400675 36.3508772,7 L36.3508772,13.6315789 C36.3508772,17.4975722 33.2168704,20.6315789 29.3508772,20.6315789 L7,20.6315789 C3.13400675,20.6315789 -4.14730794e-16,17.4975722 0,13.6315789 L0,7 C-1.36162605e-15,3.13400675 3.13400675,-1.78006981e-16 7,0 Z" stroke="#FFFFFF" stroke-width="6" fill="none" stroke-miterlimit="5"></path></g></g><g transform="translate(15.945263157894662 41.793684210526074)"><g transform="translate(19.249263157895484 0.0)"><g clip-path="url(#i5)"><polygon points="0,0 2.07003509,0 2.07003509,5.36421053 0,5.36421053 0,0" stroke="none" fill="#FFFFFF"></polygon></g></g><g transform="translate(14.01571929824614 0.5295438596488866)"><g clip-path="url(#i6)"><polygon points="0,0 5.37108772,0 5.37108772,4.83466667 0,4.83466667 0,0" stroke="none" fill="#FFFFFF"></polygon></g></g><g transform="translate(12.702175438596582 0.6533333333332974)"><g clip-path="url(#i7)"><polygon points="0,0 1.50610526,0 1.50610526,4.71087719 0,4.71087719 0,0" stroke="none" fill="#FFFFFF"></polygon></g></g><g transform="translate(8.761543859649688 1.8774736842105826)"><g clip-path="url(#i8)"><polygon points="0,0 3.19306311,0 3.19306311,3.48673684 0,3.48673684 0,0" stroke="none" fill="#FFFFFF"></polygon></g></g><g transform="translate(4.62147368421115 2.585824561403122)"><g clip-path="url(#i9)"><polygon points="0,0 3.38357895,0 3.38357895,2.77150877 0,2.77150877 0,0" stroke="none" fill="#FFFFFF"></polygon></g></g><g transform="translate(0.0 3.617403508771721)"><g clip-path="url(#i10)"><polygon points="0,0 4.81403509,0 4.81403509,3.36294737 0,3.36294737 0,0" stroke="none" fill="#FFFFFF"></polygon></g></g></g></g></g></g></svg>