<?xml version="1.0" encoding="UTF-8"?><svg version="1.1" width="60px" height="40px" viewBox="0 0 60.0 40.0" xmlns="http://www.w3.org/2000/svg" xmlns:xlink="http://www.w3.org/1999/xlink"><defs><clipPath id="i0"><path d="M1204,0 L1204,711 L0,711 L0,0 L1204,0 Z"></path></clipPath></defs><g transform="translate(-730.0 -31.0)"><g clip-path="url(#i0)"><g transform="translate(732.0000000000001 32.99999999999942)"><g transform="translate(0.0 23.2298181818187)"><path d="M5.09090909,12.4065455 L0,12.4065455 L0,9.86109091 C0,5.11687273 3.24486909,1.13043636 7.63636364,0" stroke="#16B09F" stroke-width="3" fill="none" stroke-linecap="round" stroke-linejoin="round"></path></g><g transform="translate(7.636363636363058 0.43450909090915957)"><path d="M5.09090909,14.4037091 C2.12497091,13.3554909 0,10.5267527 0,7.20182909 C0,3.87693091 2.12497091,1.04832 5.09090909,0" stroke="#16B09F" stroke-width="3" fill="none" stroke-linecap="round" stroke-linejoin="round"></path></g><g transform="translate(48.36363636363603 23.2298181818187)"><path d="M2.54545455,12.4065455 L7.63636364,12.4065455 L7.63636364,9.86109091 C7.63636364,5.11687273 4.39141818,1.13043636 0,0" stroke="#16B09F" stroke-width="3" fill="none" stroke-linecap="round" stroke-linejoin="round"></path></g><g transform="translate(43.272727272727025 0.43450909090915957)"><path d="M0,0 C2.96596364,1.04832 5.09090909,3.87693091 5.09090909,7.20182909 C5.09090909,10.5267527 2.96596364,13.3554909 0,14.4037091" stroke="#16B09F" stroke-width="3" fill="none" stroke-linecap="round" stroke-linejoin="round"></path></g><g transform="translate(12.727272727272974 22.90909090909099)"><path d="M10.1818182,0 L20.3636364,0 C25.9868,0 30.5454545,4.55865455 30.5454545,10.1818182 L30.5454545,12.7272727 L0,12.7272727 L0,10.1818182 C0,4.55865455 4.55855273,0 10.1818182,0 Z" stroke="#000000" stroke-width="3" fill="none" stroke-linecap="round" stroke-linejoin="round"></path></g><g transform="translate(20.363636363636033 0.0)"><path d="M15.2727273,7.63636364 C15.2727273,11.8538 11.8539273,15.2727273 7.63636364,15.2727273 C3.4188,15.2727273 0,11.8538 0,7.63636364 C0,3.41892727 3.4188,0 7.63636364,0 C11.8539273,0 15.2727273,3.41892727 15.2727273,7.63636364 Z" stroke="#000000" stroke-width="3" fill="none" stroke-linecap="round" stroke-linejoin="round"></path></g></g></g></g></svg>