<?xml version="1.0" encoding="UTF-8"?><svg version="1.1" width="56px" height="66px" viewBox="0 0 56.0 66.0" xmlns="http://www.w3.org/2000/svg" xmlns:xlink="http://www.w3.org/1999/xlink"><defs><clipPath id="i0"><path d="M1204,0 L1204,711 L0,711 L0,0 L1204,0 Z"></path></clipPath><clipPath id="i1"><path d="M48,0 C52.418278,-8.11624501e-16 56,3.581722 56,8 L56,48 C56,52.418278 52.418278,56 48,56 L8,56 C3.581722,56 5.41083001e-16,52.418278 0,48 L0,8 C-5.41083001e-16,3.581722 3.581722,8.11624501e-16 8,0 L48,0 Z"></path></clipPath><clipPath id="i2"><path d="M3.38706287,0.282257547 C3.38706287,1.21754615 2.62881239,1.97580283 1.69353143,1.97580283 C0.758250474,1.97580283 0,1.21754615 0,0.282257547 Z"></path></clipPath><clipPath id="i3"><path d="M1.69353143,0.282257547 C2.62881239,0.282257547 3.38706287,1.04051422 3.38706287,1.97580283 L0,1.97580283 C0,1.04051422 0.758250474,0.282257547 1.69353143,0.282257547 Z"></path></clipPath><clipPath id="i4"><path d="M3.38706287,0.282257547 C3.38706287,1.21754615 2.62881239,1.97580283 1.69353143,1.97580283 C0.758250474,1.97580283 0,1.21754615 0,0.282257547 Z"></path></clipPath><clipPath id="i5"><path d="M1.69353143,0.282257547 C2.62881239,0.282257547 3.38706287,1.04051422 3.38706287,1.97580283 L0,1.97580283 C0,1.04051422 0.758250474,0.282257547 1.69353143,0.282257547 Z"></path></clipPath><clipPath id="i6"><path d="M3.38706287,0.282257547 C3.38706287,1.21754615 2.62881239,1.97580283 1.69353143,1.97580283 C0.758250474,1.97580283 0,1.21754615 0,0.282257547 Z"></path></clipPath><clipPath id="i7"><path d="M1.69353143,0.282257547 C2.62881239,0.282257547 3.38706287,1.04051422 3.38706287,1.97580283 L0,1.97580283 C0,1.04051422 0.758250474,0.282257547 1.69353143,0.282257547 Z"></path></clipPath><clipPath id="i8"><path d="M3.38706287,0.282257547 C3.38706287,1.21754615 2.62883498,1.97580283 1.69353143,1.97580283 C0.758227894,1.97580283 0,1.21754615 0,0.282257547 Z"></path></clipPath><clipPath id="i9"><path d="M1.69353143,0.282257547 C2.62883498,0.282257547 3.38706287,1.04051422 3.38706287,1.97580283 L0,1.97580283 C0,1.04051422 0.758227894,0.282257547 1.69353143,0.282257547 Z"></path></clipPath><clipPath id="i10"><path d="M3.38706287,0 L3.38706287,18.064483 L0,18.064483 L0,0 L3.38706287,0 Z"></path></clipPath><clipPath id="i11"><path d="M3.38706287,0 L3.38706287,18.064483 L0,18.064483 L0,0 L3.38706287,0 Z"></path></clipPath><clipPath id="i12"><path d="M3.38706287,0 L3.38706287,11.2903019 L0,11.2903019 L0,0 L3.38706287,0 Z"></path></clipPath><clipPath id="i13"><path d="M3.38706287,0 L3.38706287,11.2903019 L0,11.2903019 L0,0 L3.38706287,0 Z"></path></clipPath><clipPath id="i14"><path d="M30,0 C33.8659932,-7.10171439e-16 37,3.13400675 37,7 L37,14 C37,17.8659932 33.8659932,21 30,21 L7,21 C3.13400675,21 4.73447626e-16,17.8659932 0,14 L0,7 C-4.73447626e-16,3.13400675 3.13400675,7.10171439e-16 7,0 L30,0 Z"></path></clipPath><clipPath id="i15"><path d="M2.394,1.442 L2.394,2.891 C2.394,3.584 1.834,4.144 1.141,4.144 L0.098,4.144 C0.042,4.144 0,4.095 0,4.046 L0,3.339 C0,3.283 0.042,3.234 0.098,3.234 L1.288,3.234 C1.477,3.234 1.624,3.08 1.624,2.891 L1.624,1.442 L2.394,1.442 Z M2.394,0 L2.394,0.805 L1.589,0.805 L1.589,0 L2.394,0 Z"></path></clipPath><clipPath id="i16"><path d="M2.296,0 C2.933,0 3.444,0.511 3.444,1.148 L3.444,1.575 C3.444,1.764 3.591,1.911 3.78,1.911 L4.046,1.911 C4.109,1.911 4.144,1.946 4.144,2.009 L4.144,2.723 C4.144,2.779 4.095,2.821 4.046,2.821 L3.913,2.821 C3.64,2.821 3.388,2.737 3.185,2.52 C3.038,2.723 2.842,2.821 2.597,2.821 L1.785,2.821 C1.505,2.821 1.246,2.716 1.043,2.415 C0.826,2.716 0.567,2.821 0.266,2.821 L0.098,2.821 C0.035,2.821 0,2.786 0,2.723 L0,2.009 C0,1.946 0.035,1.911 0.098,1.911 L0.322,1.911 C0.511,1.911 0.658,1.792 0.693,1.603 L0.833,0.882 C0.931,0.371 1.386,0 1.904,0 Z M2.408,0.875 L1.841,0.875 C1.708,0.875 1.61,0.959 1.582,1.092 L1.47,1.652 C1.47,1.666 1.463,1.68 1.463,1.701 C1.463,1.792 1.547,1.911 1.687,1.911 L2.674,1.911 L2.674,1.141 C2.674,0.994 2.555,0.875 2.408,0.875 Z"></path></clipPath><clipPath id="i17"><path d="M1.603,0 C2.24,0 2.751,0.518 2.751,1.155 L2.751,1.918 L3.241,1.918 C3.304,1.918 3.339,1.953 3.339,2.016 L3.339,2.73 C3.339,2.793 3.304,2.828 3.241,2.828 L2.744,2.828 C2.744,3.521 2.205,4.081 1.589,4.305 L0.63,4.634 L0.392,3.899 L1.379,3.57 C1.736,3.451 1.974,3.164 1.974,2.793 L1.974,2.744 C1.869,2.793 1.708,2.828 1.561,2.828 L1.092,2.828 C0.567,2.828 0.168,2.478 0.042,2.009 C0.014,1.918 0,1.827 0,1.729 C0,1.666 0.007,1.596 0.021,1.526 L0.14,0.889 C0.238,0.378 0.693,0 1.211,0 Z M1.715,0.875 L1.148,0.875 C1.015,0.875 0.917,0.966 0.889,1.099 L0.777,1.659 C0.777,1.673 0.77,1.687 0.77,1.708 C0.77,1.799 0.854,1.918 0.994,1.918 L1.981,1.918 L1.981,1.148 C1.981,1.001 1.862,0.875 1.715,0.875 Z"></path></clipPath><clipPath id="i18"><path d="M2.149,0 L3.08,1.652 C3.192,1.841 3.248,2.044 3.248,2.247 C3.248,2.282 3.283,2.548 3.066,2.912 C2.849,3.283 2.45,3.549 1.967,3.549 L0.924,3.549 C0.42,3.549 0,3.129 0,2.618 L0,1.708 L0.658,1.708 L0.658,2.478 C0.658,2.569 0.735,2.639 0.819,2.639 L1.974,2.639 C2.142,2.639 2.282,2.548 2.366,2.415 C2.4122,2.3352 2.42564,2.27304 2.429,2.234568 L2.429,2.191 C2.429,2.114 2.408,2.044 2.366,1.974 L1.498,0.427 L2.149,0 Z"></path></clipPath><clipPath id="i19"><path d="M0.885,0 L0.885,4.795 L0.115,4.795 L0.115,0 L0.885,0 Z"></path></clipPath><clipPath id="i20"><path d="M2.359,0 L2.359,2.345 C2.359,3.087 1.897,3.71 1.204,3.955 L0.238,4.284 L0,3.563 L1.008,3.234 C1.365,3.115 1.589,2.786 1.589,2.422 L1.589,0 L2.359,0 Z"></path></clipPath></defs><g transform="translate(-46.0 -139.0)"><g clip-path="url(#i0)"><g transform="translate(46.0 139.0)"><g clip-path="url(#i1)"><path d="M8,0 L48,0 C52.418278,-8.11624501e-16 56,3.581722 56,8 L56,48 C56,52.418278 52.418278,56 48,56 L8,56 C3.581722,56 5.41083001e-16,52.418278 0,48 L0,8 C-5.41083001e-16,3.581722 3.581722,8.11624501e-16 8,0 Z" stroke="#000000" stroke-width="6" fill="none" stroke-miterlimit="5"></path></g><g transform="translate(11.999999999999545 12.000000000000465)"><g transform="translate(28.07225218149233 29.51617589241232)"><g clip-path="url(#i2)"><polygon points="0,0.282257547 3.38706287,0.282257547 3.38706287,1.97580283 0,1.97580283 0,0.282257547" stroke="none" fill="#000000"></polygon></g></g><g transform="translate(28.07225218149233 9.758147633403496)"><g clip-path="url(#i3)"><polygon points="0,0.282257547 3.38706287,0.282257547 3.38706287,1.97580283 0,1.97580283 0,0.282257547" stroke="none" fill="#000000"></polygon></g></g><g transform="translate(10.007916880979792 29.51617589241232)"><g clip-path="url(#i4)"><polygon points="0,0.282257547 3.38706287,0.282257547 3.38706287,1.97580283 0,1.97580283 0,0.282257547" stroke="none" fill="#16B09F"></polygon></g></g><g transform="translate(10.007916880979792 9.758147633403496)"><g clip-path="url(#i5)"><polygon points="0,0.282257547 3.38706287,0.282257547 3.38706287,1.97580283 0,1.97580283 0,0.282257547" stroke="none" fill="#16B09F"></polygon></g></g><g transform="translate(19.040084531235152 29.51617589241232)"><g clip-path="url(#i6)"><polygon points="0,0.282257547 3.38706287,0.282257547 3.38706287,1.97580283 0,1.97580283 0,0.282257547" stroke="none" fill="#16B09F"></polygon></g></g><g transform="translate(19.040084531235152 16.532328750778106)"><g clip-path="url(#i7)"><polygon points="0,0.282257547 3.38706287,0.282257547 3.38706287,1.97580283 0,1.97580283 0,0.282257547" stroke="none" fill="#16B09F"></polygon></g></g><g transform="translate(0.9757492307235225 29.51617589241232)"><g clip-path="url(#i8)"><polygon points="0,0.282257547 3.38706287,0.282257547 3.38706287,1.97580283 0,1.97580283 0,0.282257547" stroke="none" fill="#000000"></polygon></g></g><g transform="translate(0.9757492307235225 16.532328750778106)"><g clip-path="url(#i9)"><polygon points="0,0.282257547 3.38706287,0.282257547 3.38706287,1.97580283 0,1.97580283 0,0.282257547" stroke="none" fill="#000000"></polygon></g></g><g transform="translate(28.07225218149233 11.733950459303742)"><g clip-path="url(#i10)"><polygon points="0,0 3.38706287,0 3.38706287,18.064483 0,18.064483 0,0" stroke="none" fill="#000000"></polygon></g></g><g transform="translate(10.007916880979792 11.733950459303742)"><g clip-path="url(#i11)"><polygon points="0,0 3.38706287,0 3.38706287,18.064483 0,18.064483 0,0" stroke="none" fill="#16B09F"></polygon></g></g><g transform="translate(19.040084531235152 18.50813157667926)"><g clip-path="url(#i12)"><polygon points="0,0 3.38706287,0 3.38706287,11.2903019 0,11.2903019 0,0" stroke="none" fill="#16B09F"></polygon></g></g><g transform="translate(0.9757492307235225 18.50813157667926)"><g clip-path="url(#i13)"><polygon points="0,0 3.38706287,0 3.38706287,11.2903019 0,11.2903019 0,0" stroke="none" fill="#000000"></polygon></g></g><path d="M0,9.33862881 L9.70252364,3.01980646 C10.7389875,2.34480365 12.0834784,2.37510421 13.0884805,3.09611519 L19.5296536,7.71715682 C20.6381941,8.5124486 22.143757,8.45960237 23.1938075,7.58854267 L32.3416918,0 L32.3416918,0" stroke="#16B09F" stroke-width="3" fill="none" stroke-linecap="round" stroke-linejoin="round"></path></g><g transform="translate(10.0 45.0)"><g clip-path="url(#i14)"><polygon points="0,0 37,0 37,21 0,21 0,0" stroke="none" fill="#16B09F"></polygon><path d="M7,0 L30,0 C33.8659932,-7.10171439e-16 37,3.13400675 37,7 L37,14 C37,17.8659932 33.8659932,21 30,21 L7,21 C3.13400675,21 4.73447626e-16,17.8659932 0,14 L0,7 C-4.73447626e-16,3.13400675 3.13400675,7.10171439e-16 7,0 Z" stroke="#FFFFFF" stroke-width="6" fill="none" stroke-miterlimit="5"></path></g></g><g transform="translate(19.485000000000106 52.20500000000021)"><g transform="translate(15.77100000000064 0.6509999999998399)"><g clip-path="url(#i15)"><polygon points="0,0 2.394,0 2.394,4.144 0,4.144 0,0" stroke="none" fill="#FFFFFF"></polygon></g></g><g transform="translate(11.82300000000032 1.97400000000016)"><g clip-path="url(#i16)"><polygon points="0,0 4.144,0 4.144,2.821 0,2.821 0,0" stroke="none" fill="#FFFFFF"></polygon></g></g><g transform="translate(8.680000000000291 1.9669999999996435)"><g clip-path="url(#i17)"><polygon points="0,0 3.339,0 3.339,4.634 0,4.634 0,0" stroke="none" fill="#FFFFFF"></polygon></g></g><g transform="translate(4.7390000000004875 1.2460000000000946)"><g clip-path="url(#i18)"><polygon points="0,0 3.25008209,0 3.25008209,3.549 0,3.549 0,0" stroke="none" fill="#FFFFFF"></polygon></g></g><g transform="translate(3.084000000000742 0.0)"><g clip-path="url(#i19)"><polygon points="0.115,0 0.885,0 0.885,4.795 0.115,4.795 0.115,0" stroke="none" fill="#FFFFFF"></polygon></g></g><g transform="translate(0.0 2.2960000000002765)"><g clip-path="url(#i20)"><polygon points="0,0 2.359,0 2.359,4.284 0,4.284 0,0" stroke="none" fill="#FFFFFF"></polygon></g></g></g></g></g></g></svg>