<?xml version="1.0" encoding="UTF-8"?><svg version="1.1" width="56px" height="62px" viewBox="0 0 56.0 62.0" xmlns="http://www.w3.org/2000/svg" xmlns:xlink="http://www.w3.org/1999/xlink"><defs><clipPath id="i0"><path d="M1204,0 L1204,711 L0,711 L0,0 L1204,0 Z"></path></clipPath><clipPath id="i1"><path d="M28,0 C43.463973,0 56,12.536027 56,28 C56,43.463973 43.463973,56 28,56 C12.536027,56 0,43.463973 0,28 C0,12.536027 12.536027,0 28,0 Z"></path></clipPath><clipPath id="i2"><path d="M30,0 C33.8659932,-7.10171439e-16 37,3.13400675 37,7 L37,14 C37,17.8659932 33.8659932,21 30,21 L7,21 C3.13400675,21 4.73447626e-16,17.8659932 0,14 L0,7 C-4.73447626e-16,3.13400675 3.13400675,7.10171439e-16 7,0 L30,0 Z"></path></clipPath><clipPath id="i3"><path d="M3.10693359,0 C4.03271484,0 4.74023438,0.251953125 5.22949219,0.755859375 C5.8828125,1.35058594 6.20947266,2.24121094 6.20947266,3.42773438 C6.20947266,4.59082031 5.8828125,5.48144531 5.22949219,6.09960938 C4.74023438,6.60351562 4.03271484,6.85546875 3.10693359,6.85546875 C2.18115234,6.85546875 1.47363281,6.60351562 0.984375,6.09960938 C0.328125,5.48144531 0,4.59082031 0,3.42773438 C0,2.24121094 0.328125,1.35058594 0.984375,0.755859375 C1.47363281,0.251953125 2.18115234,0 3.10693359,0 Z M3.10693359,1.14697266 C2.57080078,1.14697266 2.14306641,1.34472656 1.82373047,1.74023438 C1.50439453,2.13574219 1.34472656,2.69824219 1.34472656,3.42773438 C1.34472656,4.15722656 1.50439453,4.71972656 1.82373047,5.11523438 C2.14306641,5.51074219 2.57080078,5.70849609 3.10693359,5.70849609 C3.64306641,5.70849609 4.06933594,5.51074219 4.38574219,5.11523438 C4.69921875,4.71972656 4.85595703,4.15722656 4.85595703,3.42773438 C4.85595703,2.70117188 4.69848633,2.1394043 4.38354492,1.74243164 C4.06860352,1.34545898 3.64306641,1.14697266 3.10693359,1.14697266 Z"></path></clipPath><clipPath id="i4"><path d="M5.24707031,0 L5.24707031,1.14697266 L3.30908203,1.14697266 L3.30908203,6.47753906 L1.94677734,6.47753906 L1.94677734,1.14697266 L0,1.14697266 L0,0 L5.24707031,0 Z"></path></clipPath><clipPath id="i5"><path d="M2.92236328,0 C4.01220703,0 4.80908203,0.357421875 5.31298828,1.07226562 C5.59130859,1.47363281 5.74072266,1.87646484 5.76123047,2.28076172 L4.40771484,2.28076172 C4.31982422,1.97021484 4.20703125,1.73583984 4.06933594,1.57763672 C3.82324219,1.29638672 3.45849609,1.15576172 2.97509766,1.15576172 C2.48291016,1.15576172 2.09472656,1.35424805 1.81054688,1.7512207 C1.52636719,2.14819336 1.38427734,2.70996094 1.38427734,3.43652344 C1.38427734,4.16308594 1.53442383,4.70727539 1.8347168,5.0690918 C2.13500977,5.4309082 2.51660156,5.61181641 2.97949219,5.61181641 C3.45410156,5.61181641 3.81591797,5.45654297 4.06494141,5.14599609 C4.20263672,4.97900391 4.31689453,4.72851562 4.40771484,4.39453125 L5.74804688,4.39453125 C5.63085938,5.10058594 5.33203125,5.67480469 4.8515625,6.1171875 C4.36816406,6.55957031 3.75,6.78076172 2.99707031,6.78076172 C2.06542969,6.78076172 1.33300781,6.48193359 0.799804688,5.88427734 C0.266601562,5.28369141 0,4.46044922 0,3.41455078 C0,2.28369141 0.303222656,1.41210938 0.909667969,0.799804688 C1.43701172,0.266601562 2.10791016,0 2.92236328,0 Z"></path></clipPath></defs><g transform="translate(-1114.0 -41.0)"><g clip-path="url(#i0)"><g transform="translate(1114.0 41.0)"><g clip-path="url(#i1)"><path d="M28,56 C43.463973,56 56,43.463973 56,28 C56,12.536027 43.463973,0 28,0 C12.536027,0 0,12.536027 0,28 C0,43.463973 12.536027,56 28,56 Z" stroke="#000000" stroke-width="6" fill="none" stroke-miterlimit="5"></path></g><g transform="translate(17.00000000000039 15.99999999999954)"><g transform="translate(15.68817769148914 0.0) scale(-1.0 1.0)"><path d="M0,0 L15.6498343,15.6881393 L15.6881777,6.98311684" stroke="#292C31" stroke-width="3" fill="none" stroke-linecap="round" stroke-linejoin="round"></path></g><g transform="translate(22.961867065555715 7.330974830406377) scale(-1.0 1.0)"><path d="M15.6881393,15.6690252 L0.0382667004,0 L0,8.6859275" stroke="#16B09F" stroke-width="3" fill="none" stroke-linecap="round" stroke-linejoin="round"></path></g></g><g transform="translate(10.0 41.0)"><g clip-path="url(#i2)"><polygon points="0,0 37,0 37,21 0,21 0,0" stroke="none" fill="#16B09F"></polygon><path d="M7,0 L30,0 C33.8659932,-7.10171439e-16 37,3.13400675 37,7 L37,14 C37,17.8659932 33.8659932,21 30,21 L7,21 C3.13400675,21 4.73447626e-16,17.8659932 0,14 L0,7 C-4.73447626e-16,3.13400675 3.13400675,7.10171439e-16 7,0 Z" stroke="#FFFFFF" stroke-width="6" fill="none" stroke-miterlimit="5"></path></g></g><g transform="translate(19.4462890625 48.32470703125)"><g clip-path="url(#i3)"><polygon points="0,0 6.20947266,0 6.20947266,6.85546875 0,6.85546875 0,0" stroke="none" fill="#FFFFFF"></polygon></g><g transform="translate(6.70166015625 0.19775390625)"><g clip-path="url(#i4)"><polygon points="0,0 5.24707031,0 5.24707031,6.47753906 0,6.47753906 0,0" stroke="none" fill="#FFFFFF"></polygon></g></g><g transform="translate(12.45849609375 0.07470703125)"><g clip-path="url(#i5)"><polygon points="0,0 5.76123047,0 5.76123047,6.78076172 0,6.78076172 0,0" stroke="none" fill="#FFFFFF"></polygon></g></g></g></g></g></g></svg>