<?xml version="1.0" encoding="UTF-8"?><svg version="1.1" width="55px" height="56px" viewBox="0 0 55.0 56.0" xmlns="http://www.w3.org/2000/svg" xmlns:xlink="http://www.w3.org/1999/xlink"><defs><clipPath id="i0"><path d="M1204,0 L1204,711 L0,711 L0,0 L1204,0 Z"></path></clipPath><clipPath id="i1"><path d="M17.8795181,0 C27.7541086,0 35.7590361,7.90963078 35.7590361,17.6666667 C35.7590361,27.4237026 27.7541086,35.3333333 17.8795181,35.3333333 C8.00492753,35.3333333 0,27.4237026 0,17.6666667 C0,7.90963078 8.00492753,0 17.8795181,0 Z M17.8795181,2.76087168 C9.5596008,2.76087168 2.79413519,9.44743816 2.79413519,17.6666667 C2.79413519,25.8858952 9.55949,32.5724617 17.8795181,32.5724617 C26.1960007,32.5724617 32.964901,25.8858952 32.964901,17.6666667 C32.964901,9.44743816 26.1961115,2.76087168 17.8795181,2.76087168 Z"></path></clipPath><clipPath id="i2"><path d="M17.8796289,0 C27.7542806,0 35.7590361,7.94502955 35.7590361,17.7456221 C35.7590361,26.7525915 28.9970741,34.1872697 20.235585,35.3333333 C20.0884486,34.4055518 19.8754996,33.4999834 19.6071528,32.616848 C27.11355,31.7629635 32.9649944,25.422775 32.9649944,17.7457321 C32.9649944,9.48971923 26.197825,2.77322768 17.8795181,2.77322768 C9.56121117,2.77322768 2.79404171,9.48971923 2.79404171,17.7457321 C2.79404171,17.9174987 2.80091103,18.0859663 2.80789115,18.2543239 C1.89039336,18.1236846 0.957273391,18.051547 0.00686932294,18.0429697 C0.00686932294,17.9433406 0,17.8453611 0,17.7457321 C0,7.94502955 8.00497714,0 17.8796289,0 Z"></path></clipPath></defs><g transform="translate(-633.0 -104.0)"><g clip-path="url(#i0)"><g transform="translate(633.3493975903611 104.00000000000031)"><g transform="translate(0.0 20.66666666666606)"><g clip-path="url(#i1)"><polygon points="0,0 35.7590361,0 35.7590361,35.3333333 0,35.3333333 0,0" stroke="none" fill="#000000"></polygon></g></g><g transform="translate(18.21686746987962 0.0)"><g clip-path="url(#i2)"><polygon points="0,0 35.7590361,0 35.7590361,35.3333333 0,35.3333333 0,0" stroke="none" fill="#16B09F"></polygon></g></g><g transform="translate(12.586416975085523 7.944499999999607) scale(-1.0 1.0)"><path d="M0,0 L9.97558344,10 L10.0000244,4.45120781" stroke="#292C31" stroke-width="3" fill="none" stroke-linecap="round" stroke-linejoin="round"></path></g><g transform="translate(51.13511541924527 38.529713581529904) scale(-1.0 1.0)"><path d="M10,9.98781616 L0.0243921217,0 L0,5.53662057" stroke="#16B09F" stroke-width="3" fill="none" stroke-linecap="round" stroke-linejoin="round"></path></g></g></g></g></svg>