<?xml version="1.0" encoding="UTF-8"?><svg version="1.1" width="36px" height="34px" viewBox="0 0 36.0 34.0" xmlns="http://www.w3.org/2000/svg" xmlns:xlink="http://www.w3.org/1999/xlink"><defs><clipPath id="i0"><path d="M1257,0 L1257,711 L0,711 L0,0 L1257,0 Z"></path></clipPath></defs><g transform="translate(-1112.0 -95.0)"><g clip-path="url(#i0)"><g transform="translate(1114.0 97.0)"><g transform="translate(0.0 7.03664921465952)"><path d="M0,4.43979058 C0,3.61459334 0,3.20201248 0.06832,2.85890547 C0.348871111,1.44992905 1.45144889,0.348505801 2.86190222,0.0682484607 C3.20536889,0 3.61838222,0 4.44444444,0 L16,0 L27.5555556,0 C28.3816889,0 28.7946667,0 29.1381333,0.0682484607 C30.5486222,0.348505801 31.6512,1.44992905 31.9317333,2.85890547 C32,3.20201248 32,3.61459334 32,4.43979058 L32,4.43979058 L32,4.43979058 C32,5.26498781 32,5.67760419 31.9317333,6.0207112 C31.6512,7.42972314 30.5486222,8.53114639 29.1381333,8.81138597 C28.7946667,8.87958115 28.3816889,8.87958115 27.5555556,8.87958115 L16,8.87958115 L4.44444444,8.87958115 C3.61838222,8.87958115 3.20536889,8.87958115 2.86190222,8.81138597 C1.45144889,8.53114639 0.348871111,7.42972314 0.06832,6.0207112 C0,5.67760419 0,5.26498781 0,4.43979058 L0,4.43979058 L0,4.43979058 Z" stroke="#000000" stroke-width="3" fill="none" stroke-linejoin="round"></path></g><g transform="translate(1.8429319371725796 15.916230366492528)"><path d="M0,0 L0,7.12041885 C0,10.4769843 0,12.155267 1.03663361,13.1980524 C2.07324953,14.2408377 3.7416777,14.2408377 7.07853403,14.2408377 L8.84816754,14.2408377 L19.4659686,14.2408377 L21.2356021,14.2408377 C24.572423,14.2408377 26.2408335,14.2408377 27.2774848,13.1980524 C28.3141361,12.155267 28.3141361,10.4769843 28.3141361,7.12041885 L28.3141361,0" stroke="#000000" stroke-width="3" fill="none" stroke-linecap="round" stroke-linejoin="round"></path></g><g transform="translate(15.078534031413255 7.036649214659519)"><path d="M0.921465969,0 L0.921465969,23.1204188" stroke="#000000" stroke-width="3" fill="none" stroke-linecap="round" stroke-linejoin="round"></path></g><g transform="translate(5.026178010471085 0.0)"><path d="M9.86347371,5.66460526 L6.3443669,1.31715502 C5.02047942,-0.31834414 2.54883758,-0.450265023 1.0502926,1.03075247 C-1.18969338,3.2445388 0.389797816,7.03664921 3.5576162,7.03664921 L9.19624082,7.03664921 C9.91272058,7.03664921 10.3111402,6.21755547 9.86347371,5.66460526 Z" stroke="#000000" stroke-width="3" fill="none" stroke-linecap="round" stroke-linejoin="round"></path></g><g transform="translate(16.75392670157089 0.0)"><path d="M0.188881824,5.66460526 L3.70797958,1.31715502 C5.03195255,-0.31834414 7.50353469,-0.450265023 9.0020936,1.03075247 C11.2420205,3.2445388 9.6625689,7.03664921 6.49477645,7.03664921 L0.856112999,7.03664921 C0.139635079,7.03664921 -0.258783536,6.21755547 0.188881824,5.66460526 Z" stroke="#000000" stroke-width="3" fill="none" stroke-linecap="round" stroke-linejoin="round"></path></g></g></g></g></svg>