<?xml version="1.0" encoding="UTF-8"?><svg version="1.1" width="60px" height="58px" viewBox="0 0 60.0 58.0" xmlns="http://www.w3.org/2000/svg" xmlns:xlink="http://www.w3.org/1999/xlink"><defs><clipPath id="i0"><path d="M1204,0 L1204,711 L0,711 L0,0 L1204,0 Z"></path></clipPath><clipPath id="i1"><path d="M15,0 C23.2842712,0 30,6.71572875 30,15 C30,23.2842712 23.2842712,30 15,30 C6.71572875,30 0,23.2842712 0,15 C0,6.71572875 6.71572875,0 15,0 Z"></path></clipPath><clipPath id="i2"><path d="M6.05234375,0 L6.05234375,2.2521875 C7.57703125,2.30101563 8.61945312,2.69289062 9.39460937,3.0846875 L8.7403125,5.336875 C8.15921875,5.04390625 7.09359375,4.47992188 5.44804687,4.47992188 C3.7525,4.47992188 3.14703125,5.36125 3.14703125,6.19382813 C3.14703125,7.19726562 4.01859375,7.784375 6.10109375,8.59375 C8.81226562,9.6215625 10,10.9423438 10,13.1469531 C10,15.2282813 8.57054687,17.0385938 5.93140625,17.4792187 L5.93140625,20 L3.92210937,20 L3.92210937,17.6245313 C2.39742188,17.5769531 0.8715625,17.13625 0,16.5722656 L0.654296875,14.2467969 C1.62351562,14.8351562 2.95414062,15.3234375 4.43117187,15.3234375 C5.97898437,15.3234375 7.0203125,14.5653906 7.0203125,13.4142187 C7.0203125,12.2899219 6.174375,11.6051563 4.35796875,10.9422656 C1.84085937,10.0121094 0.169765625,8.81335937 0.169765625,6.55992187 C0.169765625,4.45539062 1.62359375,2.81476562 4.0675,2.37539062 L4.0675,0 L6.05234375,0 Z"></path></clipPath></defs><g transform="translate(-134.0 -41.0)"><g clip-path="url(#i0)"><g transform="translate(136.0 41.0)"><g transform="translate(0.0 37.0)"><path d="M54.9567,0.8016 C53.8095,-0.2573 52.0207,-0.188 50.8152,0.8016 L41.8324,8.1146 C40.7339,9.0151 39.3631,9.5 37.9437,9.5 L26.443,9.5 C25.5875,9.5 24.8875,8.7875 24.8875,7.9167 C24.8875,7.0458 25.5875,6.3333 26.443,6.3333 L34.0551,6.3333 C35.6008,6.3333 37.0396,5.2547 37.2924,3.701 C37.6132,1.7219 36.1161,0 34.2203,0 L18.6656,0 C16.0408,0 13.5034,0.9203 11.4619,2.6026 L6.9413,6.3333 L1.55547,6.3333 C0.69996,6.3333 0,7.0458 0,7.9167 L0,17.4167 C0,18.2875 0.69996,19 1.55547,19 L36.2424,19 C37.6521,19 39.0228,18.5151 40.1311,17.6146 L54.8303,5.6406 C56.308,4.4432 56.4247,2.1474 54.9567,0.8016 Z" stroke="#000000" stroke-width="3" fill="none" stroke-miterlimit="10"></path></g><g transform="translate(14.0 0.0)"><g clip-path="url(#i1)"><polygon points="0,0 30,0 30,30 0,30 0,0" stroke="none" fill="#16B09F"></polygon></g></g><g transform="translate(24.0 5.0)"><g clip-path="url(#i2)"><polygon points="0,0 10,0 10,20 0,20 0,0" stroke="none" fill="#FFFFFF"></polygon></g></g></g></g></g></svg>