<?xml version="1.0" encoding="UTF-8"?><svg version="1.1" width="58px" height="54px" viewBox="0 0 58.0 54.0" xmlns="http://www.w3.org/2000/svg" xmlns:xlink="http://www.w3.org/1999/xlink"><defs><clipPath id="i0"><path d="M1204,0 L1204,711 L0,711 L0,0 L1204,0 Z"></path></clipPath><clipPath id="i1"><path d="M11.1800357,0 C17.3545988,0 22.3600713,5.00547246 22.3600713,11.1800357 C22.3600713,17.3545988 17.3545988,22.3600713 11.1800357,22.3600713 C5.00547246,22.3600713 0,17.3545988 0,11.1800357 C0,5.00547246 5.00547246,0 11.1800357,0 Z"></path></clipPath></defs><g transform="translate(-314.0 -41.0)"><g clip-path="url(#i0)"><g transform="translate(315.99999999999983 43.00000000000009)"><g transform="translate(33.63992869875256 27.850267379679277)"><g clip-path="url(#i1)"><polygon points="0,0 22.3600713,0 22.3600713,22.3600713 0,22.3600713 0,0" stroke="none" fill="#16B09F"></polygon></g><g transform="translate(5.490196078430928 9.882352941176578)"><path d="M0,1.39750446 L11.1800357,1.39750446" stroke="#FFFFFF" stroke-width="3.5" fill="none" stroke-linecap="round" stroke-linejoin="round"></path></g><g transform="translate(9.682709447414709 5.689839572191886)"><path d="M1.39750446,0 L1.39750446,11.1800357" stroke="#FFFFFF" stroke-width="3.5" fill="none" stroke-linecap="round" stroke-linejoin="round"></path></g></g><g transform="translate(0.0 33.54010695187117)"><path d="M27.9500891,0 L13.9750446,0 C6.25684057,0 0,6.25684057 0,13.9750446 C0,15.5186854 1.25136811,16.7700535 2.79500891,16.7700535 L33.540107,16.7700535" stroke="#000000" stroke-width="3" fill="none" stroke-linecap="round" stroke-linejoin="round"></path></g><g transform="translate(11.18003565062372 0.0)"><path d="M11.1800357,0 C5.00547246,0 0,5.00547246 0,11.1800357 C0,17.3545988 5.00547246,22.3600713 11.1800357,22.3600713 C17.3545988,22.3600713 22.3600713,17.3545988 22.3600713,11.1800357 C22.3600713,8.21490584 21.1821781,5.37122002 19.0855147,3.27455663 C16.9888513,1.17789323 14.1451655,0 11.1800357,0 Z" stroke="#000000" stroke-width="3" fill="none" stroke-linecap="round" stroke-linejoin="round"></path></g></g></g></g></svg>