<?xml version="1.0" encoding="UTF-8"?><svg version="1.1" width="58px" height="46px" viewBox="0 0 58.0 46.0" xmlns="http://www.w3.org/2000/svg" xmlns:xlink="http://www.w3.org/1999/xlink"><defs><clipPath id="i0"><path d="M1204,0 L1204,711 L0,711 L0,0 L1204,0 Z"></path></clipPath><clipPath id="i1"><path d="M29.0250926,0 C30.1860963,0 31.2180995,1.03200329 31.2180995,2.19300699 L31.2180995,19.0920609 C31.2180995,20.3175648 30.2505965,21.2205677 29.0250926,21.2205677 L15.6090498,21.2205677 L5.86951872,27.0255862 C5.48251748,27.283587 5.03101604,26.8965858 5.09551625,26.4450843 L6.51452077,21.1560675 L2.19300699,21.1560675 C1.03200329,21.1560675 0,20.1240642 0,18.9630605 L0,2.19300699 C0,1.03200329 1.03200329,0 2.19300699,0 L29.0250926,0 Z"></path></clipPath><clipPath id="i2"><path d="M37.6866058,0 C39.1701106,0 40.5246149,1.29000411 40.5246149,2.83800905 L40.5246149,24.7035788 C40.5246149,26.1870835 39.2346108,27.5415878 37.6866058,27.5415878 L32.0750879,27.5415878 L33.9455939,34.3786096 C34.0100941,34.8946113 33.4295923,35.4106129 32.9135906,35.0881119 L20.2070501,27.5415878 L2.72749437,27.5415878 C1.17948943,27.5415878 -0.175014889,26.3160839 0.0184857285,24.8325792 L0.0184857285,2.83800905 C0.0184857285,1.35450432 1.30848984,0 2.85649478,0 Z"></path></clipPath></defs><g transform="translate(-754.0 -202.0)"><g clip-path="url(#i0)"><g transform="translate(754.0000000000002 202.0000000000001)"><g clip-path="url(#i1)"><polygon points="0,0 31.2180995,0 31.2180995,27.1084013 0,27.1084013 0,0" stroke="none" fill="#16B09F"></polygon></g><g transform="translate(15.475385106557045 8.469107363224794)"><g clip-path="url(#i2)"><polygon points="-2.15329847e-15,0 40.5246149,0 40.5246149,35.1881796 -2.15329847e-15,35.1881796 -2.15329847e-15,0" stroke="none" fill="#FFFFFF"></polygon></g><path d="M2.72749437,27.5415878 L20.2070501,27.5415878 L32.9135906,35.0881119 C33.4295923,35.4106129 34.0100941,34.8946113 33.9455939,34.3786096 L32.0750879,27.5415878 L37.6866058,27.5415878 C39.2346108,27.5415878 40.5246149,26.1870835 40.5246149,24.7035788 L40.5246149,2.83800905 C40.5246149,1.29000411 39.1701106,0 37.6866058,0 L2.85649478,0 C1.30848984,0 0.0184857285,1.35450432 0.0184857285,2.83800905 L0.0184857285,24.8325792 C-0.175014889,26.3160839 1.17948943,27.5415878 2.72749437,27.5415878 Z" stroke="#000000" stroke-width="3" fill="none" stroke-miterlimit="10"></path></g><g transform="translate(22.0 14.0)"><path d="M1.434,11.334 L1.434,13 L7.426,13 L7.426,11.292 L3.59,11.292 L5.2,9.836 C6.376,8.772 7.272,7.904 7.272,6.266 C7.272,4.488 6.292,3.592 4.332,3.592 C3.352,3.592 2.4,3.732 1.49,4.012 L1.588,5.51 L1.924,5.468 C2.666,5.356 3.352,5.3 3.968,5.3 C4.864,5.3 5.284,5.622 5.284,6.462 C5.284,7.064 5.06,7.498 4.556,8.1 L3.408,9.346 Z" stroke="none" fill="#000000"></path><polygon points="8.826,11.474 12.746,11.474 12.746,13 14.678,13 14.678,11.474 15.56,11.474 15.56,9.794 14.678,9.794 14.678,7.204 12.746,7.204 12.746,9.794 10.758,9.794 13.236,3.76 11.108,3.76 8.826,10.004 8.826,11.474" stroke="none" fill="#000000"></polygon><polygon points="20.48,6.24 19.3,5.82 16.42,12.92 17.6,13.34 20.48,6.24" stroke="none" fill="#000000"></polygon><polygon points="25.6,7.96 25.6,6.4 21.38,6.4 21.38,7.63 24.22,7.63 24.22,7.95 21.97,12.76 23.25,13.12 25.6,7.96" stroke="none" fill="#000000"></polygon></g></g></g></g></svg>