<?xml version="1.0" encoding="UTF-8"?><svg version="1.1" width="63px" height="59px" viewBox="0 0 63.0 59.0" xmlns="http://www.w3.org/2000/svg" xmlns:xlink="http://www.w3.org/1999/xlink"><defs><clipPath id="i0"><path d="M1204,0 L1204,711 L0,711 L0,0 L1204,0 Z"></path></clipPath><clipPath id="i1"><path d="M15,0 C23.2842712,0 30,8.15481349 30,18.2142857 C30,28.2737579 23.2842712,36.4285714 15,36.4285714 C6.71572875,36.4285714 0,28.2737579 0,18.2142857 C0,8.15481349 6.71572875,0 15,0 Z"></path></clipPath><clipPath id="i2"><path d="M12.7995373,0.317442358 C13.1103765,-0.396473865 14.1809067,0.220253763 13.8737976,0.923371252 C12.7063653,3.60939378 9.98277398,5.35714286 6.96446374,5.35714286 C3.94615349,5.35714286 1.22256217,3.60939378 0.0551298837,0.923371252 C-0.253222608,0.220253763 0.818550972,-0.390474569 1.12814682,0.317442358 C2.06910121,2.63465382 4.38484386,4.15912475 6.96384206,4.15912475 C9.54284026,4.15912475 11.8585829,2.63465382 12.7995373,0.317442358 Z"></path></clipPath><clipPath id="i3"><path d="M54.5,0 C55.3284271,-1.52179594e-16 56,0.671572875 56,1.5 C56,2.32842712 55.3284271,3 54.5,3 L1.5,3 C0.671572875,3 1.21167609e-15,2.32842712 0,1.5 C-1.01453063e-16,0.671572875 0.671572875,1.52179594e-16 1.5,0 L54.5,0 Z"></path></clipPath><clipPath id="i4"><path d="M11.1800357,0 C17.3545988,0 22.3600713,5.00547246 22.3600713,11.1800357 C22.3600713,17.3545988 17.3545988,22.3600713 11.1800357,22.3600713 C5.00547246,22.3600713 0,17.3545988 0,11.1800357 C0,5.00547246 5.00547246,0 11.1800357,0 Z"></path></clipPath><clipPath id="i5"><path d="M6.66661545,0 L6.66661545,1.71468173 L2.54711617,1.71468173 L2.29097449,3.94164682 C2.77952754,3.68071744 3.29888836,3.5503048 3.84916104,3.5503048 C4.83573845,3.5503048 5.6088471,3.85630095 6.1685911,4.46808511 C6.72833509,5.07997334 7.008103,5.9361381 7.008103,7.03657938 C7.008103,7.70539955 6.8658252,8.30542262 6.58126959,8.83664861 C6.30139759,9.36319097 5.89819041,9.77347561 5.37175212,10.0675025 C4.84520976,10.3568458 4.22385021,10.5015175 3.5076735,10.5015175 C2.88152626,10.5015175 2.3004458,10.3758925 1.76453621,10.1244345 C1.22852253,9.86829279 0.803978882,9.51015239 0.490926079,9.05011735 C0.182619339,8.58997823 0.0189738433,8.06582972 0,7.4776718 L2.03483281,7.4776718 C2.07750574,7.90939699 2.22696509,8.24609684 2.48310677,8.48797952 C2.74393207,8.72517858 3.08312985,8.84372607 3.50049195,8.84372607 C3.96531469,8.84372607 4.32345509,8.67771795 4.57491315,8.34570171 C4.82626714,8.00900186 4.95199617,7.53460373 4.95199617,6.9227155 C4.95199617,6.33455758 4.80732452,5.88399385 4.51798121,5.57092023 C4.22863791,5.25784662 3.81835327,5.10130981 3.28702321,5.10130981 C2.79847016,5.10130981 2.40244452,5.22943269 2.09884221,5.48557437 L1.89963247,5.67052511 L0.263250367,5.26502816 L0.86091082,0 L6.66661545,0 Z"></path></clipPath></defs><g transform="translate(-912.0 -15.0)"><g clip-path="url(#i0)"><g transform="translate(912.0 14.999999999999808)"><g transform="translate(13.0 16.0)"><g clip-path="url(#i1)"><path d="M15,36.4285714 C23.2842712,36.4285714 30,28.2737579 30,18.2142857 C30,8.15481349 23.2842712,0 15,0 C6.71572875,0 0,8.15481349 0,18.2142857 C0,28.2737579 6.71572875,36.4285714 15,36.4285714 Z" stroke="#000000" stroke-width="6" fill="none" stroke-miterlimit="5"></path></g><g transform="translate(7.8214285714287675 24.642857142857146)"><g clip-path="url(#i2)"><polygon points="7.98849584e-17,4.03836686e-16 13.9285714,4.03836686e-16 13.9285714,5.35714286 7.98849584e-17,5.35714286 7.98849584e-17,4.03836686e-16" stroke="none" fill="#000000"></polygon></g><path d="M12.7995373,0.317442358 C11.8585829,2.63465382 9.54284026,4.15912475 6.96384206,4.15912475 C4.38484386,4.15912475 2.06910121,2.63465382 1.12814682,0.317442358 C0.818550972,-0.390474569 -0.253222608,0.220253763 0.0551298837,0.923371252 C1.22256217,3.60939378 3.94615349,5.35714286 6.96446374,5.35714286 C9.98277398,5.35714286 12.7063653,3.60939378 13.8737976,0.923371252 C14.1809067,0.220253763 13.1103765,-0.396473865 12.7995373,0.317442358 L12.7995373,0.317442358 Z" stroke="#000000" stroke-width="1.5" fill="none" stroke-miterlimit="10"></path></g></g><g transform="translate(5.0 11.0)"><path d="M0,12 L0,5 C-3.38176876e-16,2.23857625 2.23857625,2.28362215e-15 5,0 L12,0 L12,0" stroke="#000000" stroke-width="3" fill="none" stroke-linecap="round" stroke-miterlimit="10"></path><g transform="translate(0.0 46.0) scale(1.0 -1.0)"><path d="M0,12 L0,5 C-3.38176876e-16,2.23857625 2.23857625,2.28362215e-15 5,0 L12,0 L12,0" stroke="#000000" stroke-width="3" fill="none" stroke-linecap="round" stroke-miterlimit="10"></path></g><g transform="translate(46.0 46.0) rotate(-180.0)"><path d="M0,12 L0,5 C-3.38176876e-16,2.23857625 2.23857625,2.28362215e-15 5,0 L12,0 L12,0" stroke="#000000" stroke-width="3" fill="none" stroke-linecap="round" stroke-miterlimit="10"></path></g></g><g transform="translate(0.0 32.0)"><g clip-path="url(#i3)"><polygon points="0,0 56,0 56,3 0,3 0,0" stroke="none" fill="#16B09F"></polygon></g></g><g transform="translate(40.0 0.0)"><g clip-path="url(#i4)"><polygon points="0,0 22.3600713,0 22.3600713,22.3600713 0,22.3600713 0,0" stroke="none" fill="#16B09F"></polygon></g></g><g transform="translate(47.5 5.999999999999999)"><g clip-path="url(#i5)"><polygon points="0,0 7.008103,0 7.008103,10.5015175 0,10.5015175 0,0" stroke="none" fill="#FFFFFF"></polygon></g></g></g></g></g></svg>