<?xml version="1.0" encoding="UTF-8"?><svg version="1.1" width="56px" height="51px" viewBox="0 0 56.0 51.0" xmlns="http://www.w3.org/2000/svg" xmlns:xlink="http://www.w3.org/1999/xlink"><defs><clipPath id="i0"><path d="M1204,0 L1204,711 L0,711 L0,0 L1204,0 Z"></path></clipPath><clipPath id="i1"><path d="M48.8517444,4.04822485 L52.0031589,13.1987825 C54.3926222,14.5824692 56,17.1668714 56,20.1266967 L56,42.4424861 C56,46.8607641 52.418278,50.4424861 48,50.4424861 L8,50.4424861 C3.581722,50.4424861 5.41083001e-16,46.8607641 0,42.4424861 L0,20.1266967 C-5.41083001e-16,15.7084187 3.581722,12.1266967 8,12.1266967 L8.14476175,12.1261706 C8.6867773,11.6764003 9.31774828,11.3151473 10.023111,11.0722714 L41.225224,0.328522327 C44.3583969,-0.750315633 47.7729064,0.915051914 48.8517444,4.04822485 Z"></path></clipPath><clipPath id="i2"><path d="M48,0 C52.418278,-8.11624501e-16 56,3.581722 56,8 L56,30.3157895 C56,34.7340675 52.418278,38.3157895 48,38.3157895 L8,38.3157895 C3.581722,38.3157895 5.41083001e-16,34.7340675 0,30.3157895 L0,8 C-5.41083001e-16,3.581722 3.581722,8.11624501e-16 8,0 L48,0 Z"></path></clipPath><clipPath id="i3"><path d="M1.75,0 C2.71649831,-1.7754286e-16 3.5,0.783501688 3.5,1.75 L3.5,12.25 C3.5,13.2164983 2.71649831,14 1.75,14 C0.783501688,14 1.18361906e-16,13.2164983 0,12.25 L0,1.75 C-1.18361906e-16,0.783501688 0.783501688,1.7754286e-16 1.75,0 Z"></path></clipPath><clipPath id="i4"><path d="M3,0 C4.65685425,0 6,1.34314575 6,3 C6,4.65685425 4.65685425,6 3,6 C1.34314575,6 0,4.65685425 0,3 C0,1.34314575 1.34314575,0 3,0 Z"></path></clipPath></defs><g transform="translate(-548.0 -24.0)"><g clip-path="url(#i0)"><g transform="translate(548.0 24.00000000000026)"><g clip-path="url(#i1)"><path d="M48.8517444,4.04822485 L52.0031589,13.1987825 C54.3926222,14.5824692 56,17.1668714 56,20.1266967 L56,42.4424861 C56,46.8607641 52.418278,50.4424861 48,50.4424861 L8,50.4424861 C3.581722,50.4424861 5.41083001e-16,46.8607641 0,42.4424861 L0,20.1266967 C-5.41083001e-16,15.7084187 3.581722,12.1266967 8,12.1266967 L8.14476175,12.1261706 C8.6867773,11.6764003 9.31774828,11.3151473 10.023111,11.0722714 L41.225224,0.328522327 C44.3583969,-0.750315633 47.7729064,0.915051914 48.8517444,4.04822485 Z" stroke="#16B09F" stroke-width="6" fill="none" stroke-miterlimit="5"></path></g><g transform="translate(0.0 12.12669666667989)"><g clip-path="url(#i2)"><path d="M8,0 L48,0 C52.418278,-8.11624501e-16 56,3.581722 56,8 L56,30.3157895 C56,34.7340675 52.418278,38.3157895 48,38.3157895 L8,38.3157895 C3.581722,38.3157895 5.41083001e-16,34.7340675 0,30.3157895 L0,8 C-5.41083001e-16,3.581722 3.581722,8.11624501e-16 8,0 Z" stroke="#000000" stroke-width="6" fill="none" stroke-miterlimit="5"></path></g></g><g transform="translate(22.0 20.0) rotate(90.0)"><g clip-path="url(#i3)"><polygon points="0,0 3.5,0 3.5,14 0,14 0,0" stroke="none" fill="#16B09F"></polygon></g></g><g transform="translate(41.5 28.6266966666808)"><g clip-path="url(#i4)"><polygon points="0,0 6,0 6,6 0,6 0,0" stroke="none" fill="#000000"></polygon></g></g></g></g></g></svg>