<?xml version="1.0" encoding="UTF-8"?><svg version="1.1" width="63px" height="50px" viewBox="0 0 63.0 50.0" xmlns="http://www.w3.org/2000/svg" xmlns:xlink="http://www.w3.org/1999/xlink"><defs><clipPath id="i0"><path d="M1204,0 L1204,711 L0,711 L0,0 L1204,0 Z"></path></clipPath><clipPath id="i1"><path d="M48,0 C52.418278,-8.11624501e-16 56,3.581722 56,8 L56,30.3157895 C56,34.7340675 52.418278,38.3157895 48,38.3157895 L8,38.3157895 C3.581722,38.3157895 5.41083001e-16,34.7340675 0,30.3157895 L0,8 C-5.41083001e-16,3.581722 3.581722,8.11624501e-16 8,0 L48,0 Z"></path></clipPath><clipPath id="i2"><path d="M3,0 C4.65685425,0 6,1.34314575 6,3 C6,4.65685425 4.65685425,6 3,6 C1.34314575,6 0,4.65685425 0,3 C0,1.34314575 1.34314575,0 3,0 Z"></path></clipPath><clipPath id="i3"><path d="M1.75,0 C2.71649831,-1.7754286e-16 3.5,0.783501688 3.5,1.75 L3.5,12.25 C3.5,13.2164983 2.71649831,14 1.75,14 C0.783501688,14 1.18361906e-16,13.2164983 0,12.25 L0,1.75 C-1.18361906e-16,0.783501688 0.783501688,1.7754286e-16 1.75,0 Z"></path></clipPath><clipPath id="i4"><path d="M11.1800357,0 C17.3545988,0 22.3600713,5.00547246 22.3600713,11.1800357 C22.3600713,17.3545988 17.3545988,22.3600713 11.1800357,22.3600713 C5.00547246,22.3600713 0,17.3545988 0,11.1800357 C0,5.00547246 5.00547246,0 11.1800357,0 Z"></path></clipPath></defs><g transform="translate(-638.0 -25.0)"><g clip-path="url(#i0)"><g transform="translate(638.0 27.000000000000004)"><g transform="translate(0.0 9.12669666667989)"><g clip-path="url(#i1)"><path d="M8,0 L48,0 C52.418278,-8.11624501e-16 56,3.581722 56,8 L56,30.3157895 C56,34.7340675 52.418278,38.3157895 48,38.3157895 L8,38.3157895 C3.581722,38.3157895 5.41083001e-16,34.7340675 0,30.3157895 L0,8 C-5.41083001e-16,3.581722 3.581722,8.11624501e-16 8,0 Z" stroke="#000000" stroke-width="6" fill="none" stroke-miterlimit="5"></path></g></g><g transform="translate(41.5 25.6266966666808)"><g clip-path="url(#i2)"><polygon points="0,0 6,0 6,6 0,6 0,0" stroke="none" fill="#000000"></polygon></g></g><g transform="translate(22.0 17.0) rotate(90.0)"><g clip-path="url(#i3)"><polygon points="0,0 3.5,0 3.5,14 0,14 0,0" stroke="none" fill="#16B09F"></polygon></g></g><g transform="translate(38.0 0.0)"><g clip-path="url(#i4)"><polygon points="0,0 22.3600713,0 22.3600713,22.3600713 0,22.3600713 0,0" stroke="none" fill="#16B09F"></polygon></g><path d="M11.1800357,22.3600713 C17.3545988,22.3600713 22.3600713,17.3545988 22.3600713,11.1800357 C22.3600713,5.00547246 17.3545988,0 11.1800357,0 C5.00547246,0 0,5.00547246 0,11.1800357 C0,17.3545988 5.00547246,22.3600713 11.1800357,22.3600713 Z" stroke="#FFFFFF" stroke-width="4" fill="none" stroke-miterlimit="10"></path><g transform="translate(8.0 7.0)"><path d="M3.5,0 L3.5,9 M3.5,0 L0,3.75 M3.5,0 L7,3.75" stroke="#FFFFFF" stroke-width="2" fill="none" stroke-linecap="round" stroke-linejoin="round"></path></g></g></g></g></g></svg>