<?xml version="1.0" encoding="UTF-8"?>
<svg width="24px" height="24px" viewBox="0 0 24 24" version="1.1" xmlns="http://www.w3.org/2000/svg" xmlns:xlink="http://www.w3.org/1999/xlink">
    <title>dai</title>
    <g id="Page-1" stroke="none" stroke-width="1" fill="none" fill-rule="evenodd">
        <g id="dashboard" transform="translate(-487.000000, -492.000000)" fill-rule="nonzero">
            <g id="Group-32" transform="translate(478.000000, 483.000000)">
                <g id="dai" transform="translate(9.000000, 9.000000)">
                    <path d="M12,0 C18.6280263,0 24,5.37305373 24,12 C24,18.6280263 18.6280263,24 12,24 C5.37305373,24 0,18.6274863 0,12 C0,5.37305373 5.37305373,0 12,0 Z" id="Path" fill="#F5AC37"></path>
                    <path d="M12.5043366,12.8441143 L17.0932334,12.8441143 C17.1910545,12.8441143 17.2372478,12.8441143 17.2443126,12.717444 C17.2818107,12.2563857 17.2818107,11.7926437 17.2443126,11.3310486 C17.2443126,11.2414133 17.1992062,11.2043783 17.1008417,11.2043783 L7.9681546,11.2043783 C7.85511688,11.2043783 7.82468365,11.2414133 7.82468365,11.3460773 L7.82468365,12.6728947 C7.82468365,12.8441143 7.82468365,12.8441143 8.00565269,12.8441143 L12.5043366,12.8441143 L12.5043366,12.8441143 Z M16.7318387,9.6537409 C16.7448816,9.61992637 16.7448816,9.58289142 16.7318387,9.54961364 C16.6552122,9.38483493 16.564456,9.22757056 16.4590265,9.07996749 C16.300339,8.82770041 16.113392,8.59529266 15.9003593,8.3865014 C15.799821,8.26036786 15.6835226,8.14711605 15.5530944,8.05103986 C14.8998668,7.50195642 14.1232759,7.11335778 13.2885358,6.91798498 C12.8673616,6.82459249 12.4369488,6.7800432 12.005449,6.78380037 L7.95239453,6.78380037 C7.83935681,6.78380037 7.8241402,6.82834966 7.8241402,6.92549932 L7.8241402,9.57161991 C7.8241402,9.68326151 7.8241402,9.71331887 7.96761115,9.71331887 L16.6774937,9.71331887 C16.6774937,9.71331887 16.7530333,9.69829019 16.7682499,9.6537409 L16.7312953,9.6537409 L16.7318387,9.6537409 Z M16.7318387,14.3947517 C16.6035844,14.3807965 16.4742432,14.3807965 16.3459888,14.3947517 L7.97576291,14.3947517 C7.86272519,14.3947517 7.82468365,14.3947517 7.82468365,14.543965 L7.82468365,17.1310443 C7.82468365,17.2502003 7.82468365,17.2802576 7.97576291,17.2802576 L11.84024,17.2802576 C12.0250132,17.2942128 12.2097864,17.2813311 12.3907555,17.2432227 C12.9515965,17.203504 13.5031988,17.0832746 14.029259,16.8852181 C14.2205536,16.819736 14.4053268,16.7343946 14.5797744,16.6318776 L14.6324891,16.6318776 C15.5384213,16.1665253 16.2742533,15.4354876 16.7383601,14.5380609 C16.7383601,14.5380609 16.7910749,14.4253458 16.7318387,14.3958252 L16.7318387,14.3947517 Z M6.30791306,18.621567 L6.30791306,18.5770178 L6.30791306,16.8401321 L6.30791306,16.25133 L6.30791306,14.4994157 C6.30791306,14.402266 6.30791306,14.3877741 6.18726703,14.3877741 L4.54930697,14.3877741 C4.45855072,14.3877741 4.42105263,14.3877741 4.42105263,14.2686182 L4.42105263,12.8521654 L6.17205042,12.8521654 C6.26987152,12.8521654 6.30791306,12.8521654 6.30791306,12.7254951 L6.30791306,11.324071 C6.30791306,11.2344357 6.30791306,11.2124294 6.18726703,11.2124294 L4.54930697,11.2124294 C4.45855072,11.2124294 4.42105263,11.2124294 4.42105263,11.0932734 L4.42105263,9.78148465 C4.42105263,9.69936367 4.42105263,9.67735739 4.54169866,9.67735739 L6.16444211,9.67735739 C6.27747983,9.67735739 6.30791306,9.67735739 6.30791306,9.53565844 L6.30791306,5.51763434 C6.30791306,5.39847841 6.30791306,5.36842105 6.45899233,5.36842105 L12.1195736,5.36842105 C12.5304223,5.38452321 12.9385537,5.4290725 13.3423374,5.50260567 C14.1743603,5.65450265 14.9737761,5.94809859 15.7047171,6.36729132 C16.1894751,6.64907901 16.635648,6.98937119 17.0329104,7.38119027 C17.3318082,7.68766793 17.6013597,8.01937229 17.8404779,8.3725462 C18.0779658,8.73055075 18.2752384,9.11324527 18.4301218,9.51311542 C18.4491426,9.61724268 18.5502244,9.68755542 18.6556538,9.66984305 L20.006672,9.66984305 C20.1800327,9.66984305 20.1800327,9.66984305 20.187641,9.83408502 L20.187641,11.0567752 C20.187641,11.1759312 20.1425346,11.2059885 20.0213451,11.2059885 L18.9795504,11.2059885 C18.8741209,11.2059885 18.8436877,11.2059885 18.851296,11.3401731 C18.8925983,11.7942539 18.8925983,12.2499448 18.851296,12.7040256 C18.851296,12.8306958 18.851296,12.8457245 18.9953104,12.8457245 L20.1870976,12.8457245 C20.2398123,12.9128168 20.1870976,12.9799091 20.1870976,13.0475382 C20.1947059,13.1339531 20.1947059,13.2214414 20.1870976,13.3078563 L20.1870976,14.2101137 C20.1870976,14.3367839 20.1495995,14.3743556 20.0360183,14.3743556 L18.6094605,14.3743556 C18.5100091,14.3555698 18.4132748,14.4183682 18.3904499,14.5160546 C18.0507933,15.3882546 17.5073427,16.1702825 16.8052046,16.797193 C16.5486959,17.0253069 16.2791444,17.2400023 15.997637,17.4380587 C15.6954785,17.6098151 15.4014717,17.788549 15.0917049,17.9302479 C14.5216252,18.1835885 13.9238296,18.3703734 13.3102739,18.4889926 C12.7276948,18.5920464 12.136964,18.6387427 11.5440595,18.6306916 L6.30573926,18.6306916 L6.30573926,18.6231773 L6.30791306,18.621567 Z" id="Shape" fill="#FEFEFD"></path>
                </g>
            </g>
        </g>
    </g>
</svg>