<?xml version="1.0" encoding="UTF-8"?><svg version="1.1" width="323px" height="217px" viewBox="0 0 323.0 217.0" xmlns="http://www.w3.org/2000/svg" xmlns:xlink="http://www.w3.org/1999/xlink"><defs><clipPath id="i0"><path d="M2322,0 L2322,711 L0,711 L0,0 L2322,0 Z"></path></clipPath><clipPath id="i1"><path d="M104.5,0 C162.213756,-1.0601845e-14 209,46.7862436 209,104.5 C209,162.213756 162.213756,209 104.5,209 C46.7862436,209 7.0678967e-15,162.213756 0,104.5 C-7.0678967e-15,46.7862436 46.7862436,1.0601845e-14 104.5,0 Z"></path></clipPath><filter id="i2" x="-29.8387097%" y="-76.5957447%" filterUnits="userSpaceOnUse" width="140.322581%" height="206.382979%"><feGaussianBlur stdDeviation="12" in="SourceAlpha" result="i3"></feGaussianBlur><feOffset dx="0" dy="2" in="i3" result="i4"></feOffset><feColorMatrix values="0 0 0 0.3169196632145234 0 0 0 0 0.33448927396666883 0 0 0 0 0.38046308876811596 0 0 0 0 0.1325666520979021 0" type="matrix" in="i4"></feColorMatrix></filter><clipPath id="i5"><path d="M192,0 C196.418278,-8.11624501e-16 200,3.581722 200,8 L200,38 C200,42.418278 196.418278,46 192,46 L8,46 C3.581722,46 -3.01163068e-15,42.418278 0,38 L0,8 C-5.41083001e-16,3.581722 3.581722,8.11624501e-16 8,0 L192,0 Z"></path></clipPath><clipPath id="i6"><path d="M106,0 C107.932997,-3.55085719e-16 109.5,1.56700338 109.5,3.5 C109.5,5.43299662 107.932997,7 106,7 L3.5,7 C1.56700338,7 2.36723813e-16,5.43299662 0,3.5 C-2.36723813e-16,1.56700338 1.56700338,3.55085719e-16 3.5,0 L106,0 Z"></path></clipPath><clipPath id="i7"><path d="M21,0 C25.418278,-8.11624501e-16 29,3.581722 29,8 L29,21 C29,25.418278 25.418278,29 21,29 L8,29 C3.581722,29 5.41083001e-16,25.418278 0,21 L0,8 C-5.41083001e-16,3.581722 3.581722,8.11624501e-16 8,0 L21,0 Z"></path></clipPath><linearGradient id="i8" x1="29px" y1="14.5px" x2="0px" y2="14.5px" gradientUnits="userSpaceOnUse"><stop stop-color="#CED3DD" offset="0%"></stop><stop stop-color="#C9CFDA" offset="9.36582706%"></stop><stop stop-color="#A0A8B9" offset="100%"></stop></linearGradient><filter id="i9" x="-29.8387097%" y="-76.5957447%" filterUnits="userSpaceOnUse" width="140.322581%" height="206.382979%"><feGaussianBlur stdDeviation="12" in="SourceAlpha" result="i10"></feGaussianBlur><feOffset dx="0" dy="2" in="i10" result="i11"></feOffset><feColorMatrix values="0 0 0 0.3169196632145234 0 0 0 0 0.33448927396666883 0 0 0 0 0.38046308876811596 0 0 0 0 0.1325666520979021 0" type="matrix" in="i11"></feColorMatrix></filter><filter id="i12" x="-29.8387097%" y="-76.5957447%" filterUnits="userSpaceOnUse" width="140.322581%" height="206.382979%"><feGaussianBlur stdDeviation="12" in="SourceAlpha" result="i13"></feGaussianBlur><feOffset dx="0" dy="2" in="i13" result="i14"></feOffset><feColorMatrix values="0 0 0 0.3169196632145234 0 0 0 0 0.33448927396666883 0 0 0 0 0.38046308876811596 0 0 0 0 0.1325666520979021 0" type="matrix" in="i14"></feColorMatrix></filter><clipPath id="i15"><path d="M6.70063501,0 C10.4012935,0 13.40127,2.99997648 13.40127,6.70063501 C13.40127,10.4012935 10.4012935,13.40127 6.70063501,13.40127 C2.99997648,13.40127 0,10.4012935 0,6.70063501 C0,2.99997648 2.99997648,0 6.70063501,0 Z"></path></clipPath><clipPath id="i16"><path d="M4.700635,0 C7.29672402,0 9.40127,2.10454598 9.40127,4.700635 C9.40127,7.29672402 7.29672402,9.40127 4.700635,9.40127 C2.10454598,9.40127 0,7.29672402 0,4.700635 C0,2.10454598 2.10454598,0 4.700635,0 Z"></path></clipPath><clipPath id="i17"><path d="M10.6864623,3.70623018 C10.8177392,3.96341183 10.8177392,4.26794461 10.6864623,4.52512627 L9.65524553,6.5453599 C9.50947918,6.83092749 9.50947918,7.16907251 9.65524553,7.4546401 L10.6864623,9.47487373 C10.9125942,9.9178837 10.7367798,10.4603304 10.2937698,10.6864623 C10.0365882,10.8177392 9.73205539,10.8177392 9.47487373,10.6864623 L7.4546401,9.65524553 C7.16907251,9.50947918 6.83092749,9.50947918 6.5453599,9.65524553 L4.52512627,10.6864623 C4.0821163,10.9125942 3.53966964,10.7367798 3.31353772,10.2937698 C3.18226082,10.0365882 3.18226082,9.73205539 3.31353772,9.47487373 L4.34475447,7.4546401 C4.49052082,7.16907251 4.49052082,6.83092749 4.34475447,6.5453599 L3.31353772,4.52512627 C3.08740581,4.0821163 3.26322021,3.53966964 3.70623018,3.31353772 C3.96341183,3.18226082 4.26794461,3.18226082 4.52512627,3.31353772 L6.5453599,4.34475447 C6.83092749,4.49052082 7.16907251,4.49052082 7.4546401,4.34475447 L9.47487373,3.31353772 C9.9178837,3.08740581 10.4603304,3.26322021 10.6864623,3.70623018 Z"></path></clipPath><clipPath id="i18"><path d="M17.3754567,5.06057845 C17.521223,5.34614604 17.521223,5.68429106 17.3754567,5.96985865 L15.0399181,10.5453599 C14.8941518,10.8309275 14.8941518,11.1690725 15.0399181,11.4546401 L17.3754567,16.0301413 C17.6265475,16.5220477 17.4313279,17.1243659 16.9394215,17.3754567 C16.653854,17.521223 16.3157089,17.521223 16.0301413,17.3754567 L11.4546401,15.0399181 C11.1690725,14.8941518 10.8309275,14.8941518 10.5453599,15.0399181 L5.96985865,17.3754567 C5.4779523,17.6265475 4.87563411,17.4313279 4.62454332,16.9394215 C4.47877697,16.653854 4.47877697,16.3157089 4.62454332,16.0301413 L6.96008185,11.4546401 C7.1058482,11.1690725 7.1058482,10.8309275 6.96008185,10.5453599 L4.62454332,5.96985865 C4.37345252,5.4779523 4.5686721,4.87563411 5.06057845,4.62454332 C5.34614604,4.47877697 5.68429106,4.47877697 5.96985865,4.62454332 L10.5453599,6.96008185 C10.8309275,7.1058482 11.1690725,7.1058482 11.4546401,6.96008185 L16.0301413,4.62454332 C16.5220477,4.37345252 17.1243659,4.5686721 17.3754567,5.06057845 Z"></path></clipPath></defs><g transform="translate(-1397.0 -452.0)"><g clip-path="url(#i0)"><g transform="translate(1421.2833333333347 454.46817344943975)"><g transform="translate(34.531826550560254 0.0)"><g clip-path="url(#i1)"><polygon points="0,0 209,0 209,209 0,209 0,0" stroke="none" fill="#F0F4FD"></polygon></g></g><g transform="translate(0.0 20.5)"><path d="M8,0 L192,0 C196.418278,-8.11624501e-16 200,3.581722 200,8 L200,38 C200,42.418278 196.418278,46 192,46 L8,46 C3.581722,46 -3.01163068e-15,42.418278 0,38 L0,8 C-5.41083001e-16,3.581722 3.581722,8.11624501e-16 8,0 Z" stroke="none" fill="#000000" filter="url(#i2)"></path><g clip-path="url(#i5)"><polygon points="0,0 200,0 200,46 0,46 0,0" stroke="none" fill="#FFFFFF"></polygon></g></g><g transform="translate(48.531826550560254 40.0)"><g clip-path="url(#i6)"><polygon points="0,0 109.5,0 109.5,7 0,7 0,0" stroke="none" fill="#D6DAE4"></polygon></g></g><g transform="translate(9.716666666665333 29.0)"><g clip-path="url(#i7)"><polygon points="0,0 29,0 29,29 0,29 0,0" stroke="none" fill="url(#i8)"></polygon></g></g><g transform="translate(74.0 81.5)"><path d="M8,0 L192,0 C196.418278,-8.11624501e-16 200,3.581722 200,8 L200,38 C200,42.418278 196.418278,46 192,46 L8,46 C3.581722,46 -3.01163068e-15,42.418278 0,38 L0,8 C-5.41083001e-16,3.581722 3.581722,8.11624501e-16 8,0 Z" stroke="none" fill="#000000" filter="url(#i9)"></path><g clip-path="url(#i5)"><polygon points="0,0 200,0 200,46 0,46 0,0" stroke="none" fill="#FFFFFF"></polygon></g></g><g transform="translate(0.0 142.5)"><path d="M8,0 L192,0 C196.418278,-8.11624501e-16 200,3.581722 200,8 L200,38 C200,42.418278 196.418278,46 192,46 L8,46 C3.581722,46 -3.01163068e-15,42.418278 0,38 L0,8 C-5.41083001e-16,3.581722 3.581722,8.11624501e-16 8,0 Z" stroke="none" fill="#000000" filter="url(#i12)"></path><g clip-path="url(#i5)"><polygon points="0,0 200,0 200,46 0,46 0,0" stroke="none" fill="#FFFFFF"></polygon></g></g><g transform="translate(122.53182655056025 102.0)"><g clip-path="url(#i6)"><polygon points="0,0 109.5,0 109.5,7 0,7 0,0" stroke="none" fill="#D6DAE4"></polygon></g></g><g transform="translate(83.71666666666533 91.0)"><g clip-path="url(#i7)"><polygon points="0,0 29,0 29,29 0,29 0,0" stroke="none" fill="url(#i8)"></polygon></g></g><g transform="translate(48.65757994194746 162.0)"><g clip-path="url(#i6)"><polygon points="0,0 109.5,0 109.5,7 0,7 0,0" stroke="none" fill="#D6DAE4"></polygon></g></g><g transform="translate(9.84242005805254 151.0)"><g clip-path="url(#i7)"><polygon points="0,0 29,0 29,29 0,29 0,0" stroke="none" fill="url(#i8)"></polygon></g></g><g transform="translate(209.71666666666533 57.999999999999545)"><g clip-path="url(#i15)"><path d="M6.70063501,13.40127 C10.4012935,13.40127 13.40127,10.4012935 13.40127,6.70063501 C13.40127,2.99997648 10.4012935,0 6.70063501,0 C2.99997648,0 0,2.99997648 0,6.70063501 C0,10.4012935 2.99997648,13.40127 6.70063501,13.40127 Z" stroke="#D6DAE4" stroke-width="4" fill="none" stroke-miterlimit="5"></path></g></g><g transform="translate(48.657579941947155 120.00000000000165)"><g clip-path="url(#i16)"><path d="M4.700635,9.40127 C7.29672402,9.40127 9.40127,7.29672402 9.40127,4.700635 C9.40127,2.10454598 7.29672402,0 4.700635,0 C2.10454598,0 0,2.10454598 0,4.700635 C0,7.29672402 2.10454598,9.40127 4.700635,9.40127 Z" stroke="#D6DAE4" stroke-width="4" fill="none" stroke-miterlimit="5"></path></g></g><g transform="translate(58.0588499419473 74.85050506338834) rotate(44.99999999999999)"><g clip-path="url(#i17)"><polygon points="3.2148887,3.2148887 10.7851113,3.2148887 10.7851113,10.7851113 3.2148887,10.7851113 3.2148887,3.2148887" stroke="none" fill="#D6DAE3"></polygon><path d="M6.5453599,9.65524553 L4.52512627,10.6864623 C4.0821163,10.9125942 3.53966964,10.7367798 3.31353772,10.2937698 C3.18226082,10.0365882 3.18226082,9.73205539 3.31353772,9.47487373 L4.34475447,7.4546401 C4.49052082,7.16907251 4.49052082,6.83092749 4.34475447,6.5453599 L3.31353772,4.52512627 C3.08740581,4.0821163 3.26322021,3.53966964 3.70623018,3.31353772 C3.96341183,3.18226082 4.26794461,3.18226082 4.52512627,3.31353772 L6.5453599,4.34475447 C6.83092749,4.49052082 7.16907251,4.49052082 7.4546401,4.34475447 L9.47487373,3.31353772 C9.9178837,3.08740581 10.4603304,3.26322021 10.6864623,3.70623018 C10.8177392,3.96341183 10.8177392,4.26794461 10.6864623,4.52512627 L9.65524553,6.5453599 C9.50947918,6.83092749 9.50947918,7.16907251 9.65524553,7.4546401 L10.6864623,9.47487373 C10.9125942,9.9178837 10.7367798,10.4603304 10.2937698,10.6864623 C10.0365882,10.8177392 9.73205539,10.8177392 9.47487373,10.6864623 L7.4546401,9.65524553 C7.16907251,9.50947918 6.83092749,9.50947918 6.5453599,9.65524553 Z" stroke="#D6DAE4" stroke-width="2" fill="none" stroke-miterlimit="5"></path></g></g><g transform="translate(213.21844175859087 130.19365081389412) rotate(44.99999999999999)"><g clip-path="url(#i18)"><polygon points="4.51500609,4.51500609 17.4849939,4.51500609 17.4849939,17.4849939 4.51500609,17.4849939 4.51500609,4.51500609" stroke="none" fill="#D6DAE3"></polygon><path d="M10.5453599,15.0399181 L5.96985865,17.3754567 C5.4779523,17.6265475 4.87563411,17.4313279 4.62454332,16.9394215 C4.47877697,16.653854 4.47877697,16.3157089 4.62454332,16.0301413 L6.96008185,11.4546401 C7.1058482,11.1690725 7.1058482,10.8309275 6.96008185,10.5453599 L4.62454332,5.96985865 C4.37345252,5.4779523 4.5686721,4.87563411 5.06057845,4.62454332 C5.34614604,4.47877697 5.68429106,4.47877697 5.96985865,4.62454332 L10.5453599,6.96008185 C10.8309275,7.1058482 11.1690725,7.1058482 11.4546401,6.96008185 L16.0301413,4.62454332 C16.5220477,4.37345252 17.1243659,4.5686721 17.3754567,5.06057845 C17.521223,5.34614604 17.521223,5.68429106 17.3754567,5.96985865 L15.0399181,10.5453599 C14.8941518,10.8309275 14.8941518,11.1690725 15.0399181,11.4546401 L17.3754567,16.0301413 C17.6265475,16.5220477 17.4313279,17.1243659 16.9394215,17.3754567 C16.653854,17.521223 16.3157089,17.521223 16.0301413,17.3754567 L11.4546401,15.0399181 C11.1690725,14.8941518 10.8309275,14.8941518 10.5453599,15.0399181 Z" stroke="#D6DAE4" stroke-width="2" fill="none" stroke-miterlimit="5"></path></g></g></g></g></g></svg>