<?xml version="1.0" encoding="UTF-8"?>
<svg width="42px" height="42px" viewBox="0 0 42 42" version="1.1" xmlns="http://www.w3.org/2000/svg" xmlns:xlink="http://www.w3.org/1999/xlink">
    <title>Group 51</title>
    <g id="Page-1" stroke="none" stroke-width="1" fill="none" fill-rule="evenodd">
        <g id="index" transform="translate(-1294.000000, -1012.000000)">
            <g id="Group-5" transform="translate(1294.000000, 1012.000000)">
                <path d="M12.2241443,-0.224144277 L29.7758557,-0.224144277 C36.4032727,-0.224144277 41.7758557,5.14843873 41.7758557,11.7758557 L41.7758557,29.7758557 C41.7758557,36.4032727 36.4032727,41.7758557 29.7758557,41.7758557 L12.2241443,41.7758557 C5.59672728,41.7758557 0.224144277,36.4032727 0.224144277,29.7758557 L0.224144277,11.7758557 C0.224144277,5.14843873 5.59672728,-0.224144277 12.2241443,-0.224144277 Z" id="Rectangle" fill="#D9F3E8" transform="translate(21.000000, 20.775856) rotate(90.000000) translate(-21.000000, -20.775856) "></path>
                <path d="M23.4415929,21.5469382 L23.4415929,21.5469382 C23.3052228,21.5569681 22.600644,21.5982023 21.0289786,21.5982023 C19.7789195,21.5982023 18.8913774,21.5614259 18.5799991,21.5469382 L18.5799991,21.5469382 C13.7490885,21.3385383 10.1432359,20.5138545 10.1432359,19.5264629 C10.1432359,18.5390712 13.7490885,17.7155018 18.5799991,17.5037587 L18.5799991,20.7255977 C18.8959231,20.7478864 19.8005114,20.800265 21.0505706,20.800265 C22.5506416,20.800265 23.3018135,20.7389709 23.4370472,20.7267121 L23.4370472,17.5059876 C28.25773,17.7166163 31.8556276,18.5413001 31.8556276,19.5264629 C31.8556276,20.5116257 28.2588664,21.3363095 23.4370472,21.5458237 L23.4370472,21.5458237 L23.4415929,21.5469382 Z M23.4415929,17.1727708 L23.4415929,14.2897208 L30.1691841,14.2897208 L30.1691841,9.89326463 L11.8524078,9.89326463 L11.8524078,14.2897208 L18.5788626,14.2897208 L18.5788626,17.1716563 C13.1115583,17.417947 9,18.480006 9,19.7526937 C9,21.0253814 13.1115583,22.0863259 18.5788626,22.3337311 L18.5788626,31.5724184 L23.4404565,31.5724184 L23.4404565,22.3303878 C28.8952602,22.0840971 33,21.0231525 33,19.7515793 C33,18.480006 28.8986694,17.4190615 23.4404565,17.1716563 L23.4404565,17.1716563 L23.4415929,17.1727708 Z" id="Shape" fill="#3CDE99"></path>
            </g>
        </g>
    </g>
</svg>