<?xml version="1.0" encoding="UTF-8"?>
<svg width="42px" height="42px" viewBox="0 0 42 42" version="1.1" xmlns="http://www.w3.org/2000/svg" xmlns:xlink="http://www.w3.org/1999/xlink">
    <title>Group 53</title>
    <g id="Page-1" stroke="none" stroke-width="1" fill="none" fill-rule="evenodd">
        <g id="index" transform="translate(-1294.000000, -1168.000000)">
            <g id="Group-53" transform="translate(1294.000000, 1168.000000)">
                <g id="Group-6">
                    <path d="M12.2241443,-0.224144277 L29.7758557,-0.224144277 C36.4032727,-0.224144277 41.7758557,5.14843873 41.7758557,11.7758557 L41.7758557,29.7758557 C41.7758557,36.4032727 36.4032727,41.7758557 29.7758557,41.7758557 L12.2241443,41.7758557 C5.59672728,41.7758557 0.224144277,36.4032727 0.224144277,29.7758557 L0.224144277,11.7758557 C0.224144277,5.14843873 5.59672728,-0.224144277 12.2241443,-0.224144277 Z" id="Rectangle" fill="#DDE8F5" transform="translate(21.000000, 20.775856) rotate(90.000000) translate(-21.000000, -20.775856) "></path>
                    <g id="usd-coin-usdc-logo" transform="translate(9.000000, 8.903938)"></g>
                </g>
                <g id="Group-4" transform="translate(9.000000, 8.903938)" fill-rule="nonzero">
                    <path d="M12,23.7438351 C18.65004,23.7438351 24,18.4509781 24,11.8719176 C24,5.292857 18.65004,0 12,0 C5.34996,0 0,5.292857 0,11.8719176 C0,18.4509781 5.34996,23.7438351 12,23.7438351 Z" id="Path" fill="#2775CA"></path>
                    <path d="M15.7272727,13.62066 C15.7272727,11.8965677 14.6729923,11.3054369 12.5644316,11.0591717 C11.0583168,10.8620887 10.7570938,10.4680409 10.7570938,9.77830938 C10.7570938,9.08857789 11.2591722,8.64534797 12.2632086,8.64534797 C13.1668775,8.64534797 13.668956,8.9409134 13.9199349,9.67982698 C13.9701789,9.8276097 14.1207904,9.9260921 14.2714019,9.9260921 L15.0745828,9.9260921 C15.2754383,9.9260921 15.4260498,9.77830938 15.4260498,9.58134458 L15.4260498,9.53204426 C15.2251943,8.44826494 14.3215254,7.61086896 13.1668775,7.51238656 L13.1668775,6.33012484 C13.1668775,6.13304181 13.016266,5.98525909 12.7652871,5.93595878 L12.0122297,5.93595878 C11.8113742,5.93595878 11.6607627,6.08374149 11.6105187,6.33012484 L11.6105187,7.46308625 C10.1044039,7.66016928 9.15061148,8.64534797 9.15061148,9.87691001 C9.15061148,11.5025199 10.1546479,12.1428328 12.2632086,12.3892162 C13.668956,12.6354813 14.1207904,12.9310467 14.1207904,13.7192606 C14.1207904,14.5074745 13.4178565,15.0493051 12.4640641,15.0493051 C11.1586843,15.0493051 10.7068498,14.5073563 10.5562383,13.7684427 C10.5061148,13.5714779 10.3555033,13.4728773 10.2048919,13.4728773 L9.35134647,13.4728773 C9.15061148,13.4728773 9,13.62066 9,13.817743 L9,13.8670433 C9.20073498,15.0984871 10.0040364,15.9851834 11.6607627,16.2315668 L11.6607627,17.4138285 C11.6607627,17.6107933 11.8113742,17.758576 12.0623532,17.8078763 L12.8154106,17.8078763 C13.016266,17.8078763 13.1668775,17.6600936 13.2171215,17.4138285 L13.2171215,16.2315668 C14.7232363,15.9851834 15.7272727,14.9507044 15.7272727,13.62066 L15.7272727,13.62066 Z" id="Path" fill="#FFFFFF"></path>
                    <path d="M9.45689813,19.4158492 C5.56744822,18.0330483 3.57281863,13.7362427 5.01897594,9.93324379 C5.76694708,7.85892386 7.41248358,6.27852913 9.45689813,5.53770058 C9.65639699,5.43896295 9.75608659,5.29079724 9.75608659,5.04377537 L9.75608659,4.3523749 C9.75608659,4.15478111 9.65639699,4.0066154 9.45689813,3.95730585 C9.4069935,3.95730585 9.30730391,3.95730585 9.25739927,4.0066154 C4.52028863,5.4882725 1.92728213,10.4765971 3.4232244,15.1684717 C4.32078977,17.9341921 6.46501358,20.0579401 9.25739927,20.9469344 C9.45689813,21.045672 9.65639699,20.9469344 9.70618195,20.7493406 C9.75608659,20.7000311 9.75608659,20.650603 9.75608659,20.5518654 L9.75608659,19.8603464 C9.75608659,19.7121806 9.60649236,19.5147054 9.45689813,19.4158492 Z M14.7426007,4.0066154 C14.5431019,3.90787777 14.343603,4.0066154 14.293818,4.20420919 C14.2439134,4.25363727 14.2439134,4.30294682 14.2439134,4.40180298 L14.2439134,5.09320345 C14.2439134,5.29079724 14.3935076,5.4882725 14.5431019,5.58712866 C18.4325518,6.9699296 20.4271814,11.2667352 18.9810241,15.0697341 C18.2330529,17.144054 16.5875164,18.7244488 14.5431019,19.4652773 C14.343603,19.5640149 14.2439134,19.7121806 14.2439134,19.9592025 L14.2439134,20.650603 C14.2439134,20.8481968 14.343603,20.9963625 14.5431019,21.045672 C14.5930065,21.045672 14.6926961,21.045672 14.7426007,20.9963625 C19.4797114,19.5147054 22.0727179,14.5263808 20.5767756,9.83450616 C19.6792102,7.01935768 17.4850818,4.89560966 14.7426007,4.0066154 Z" id="Shape" fill="#FFFFFF"></path>
                </g>
            </g>
        </g>
    </g>
</svg>