<?xml version="1.0" encoding="UTF-8"?>
<svg width="42px" height="42px" viewBox="0 0 42 42" version="1.1" xmlns="http://www.w3.org/2000/svg" xmlns:xlink="http://www.w3.org/1999/xlink">
    <title>Group 54</title>
    <g id="Page-1" stroke="none" stroke-width="1" fill="none" fill-rule="evenodd">
        <g id="index" transform="translate(-1294.000000, -1246.000000)">
            <g id="Group-54" transform="translate(1294.000000, 1246.000000)">
                <path d="M12.2241443,-0.224144277 L29.7758557,-0.224144277 C36.4032727,-0.224144277 41.7758557,5.14843873 41.7758557,11.7758557 L41.7758557,29.7758557 C41.7758557,36.4032727 36.4032727,41.7758557 29.7758557,41.7758557 L12.2241443,41.7758557 C5.59672728,41.7758557 0.224144277,36.4032727 0.224144277,29.7758557 L0.224144277,11.7758557 C0.224144277,5.14843873 5.59672728,-0.224144277 12.2241443,-0.224144277 Z" id="Rectangle" fill="#F6EAD7" transform="translate(21.000000, 20.775856) rotate(90.000000) translate(-21.000000, -20.775856) "></path>
                <g id="dai" transform="translate(9.000000, 8.903938)" fill-rule="nonzero">
                    <path d="M12,0 C18.6280263,0 24,5.31570424 24,11.8719176 C24,18.4291994 18.6280263,23.7438351 12,23.7438351 C5.37305373,23.7438351 0,18.4286651 0,11.8719176 C0,5.31570424 5.37305373,0 12,0 Z" id="Path" fill="#F5AC37"></path>
                    <path d="M12.5043366,12.7070222 L17.0932334,12.7070222 C17.1910545,12.7070222 17.2372478,12.7070222 17.2443126,12.5817039 C17.2818107,12.1255667 17.2818107,11.6667744 17.2443126,11.2101062 C17.2443126,11.1214276 17.1992062,11.084788 17.1008417,11.084788 L7.9681546,11.084788 C7.85511688,11.084788 7.82468365,11.1214276 7.82468365,11.2249745 L7.82468365,12.5376301 C7.82468365,12.7070222 7.82468365,12.7070222 8.00565269,12.7070222 L12.5043366,12.7070222 L12.5043366,12.7070222 Z M16.7318387,9.55070134 C16.7448816,9.51724773 16.7448816,9.48060808 16.7318387,9.44768548 C16.6552122,9.28466555 16.564456,9.12907975 16.4590265,8.98305212 C16.300339,8.73347762 16.113392,8.50355049 15.9003593,8.29698777 C15.799821,8.17220052 15.6835226,8.0601575 15.5530944,7.96510679 C14.8998668,7.42188401 14.1232759,7.03743309 13.2885358,6.84414561 C12.8673616,6.75174995 12.4369488,6.70767615 12.005449,6.71139322 L7.95239453,6.71139322 C7.83935681,6.71139322 7.8241402,6.75546701 7.8241402,6.85157974 L7.8241402,9.46945687 C7.8241402,9.57990686 7.8241402,9.6096434 7.96761115,9.6096434 L16.6774937,9.6096434 C16.6774937,9.6096434 16.7530333,9.59477513 16.7682499,9.55070134 L16.7312953,9.55070134 L16.7318387,9.55070134 Z M16.7318387,14.2411088 C16.6035844,14.2273025 16.4742432,14.2273025 16.3459888,14.2411088 L7.97576291,14.2411088 C7.86272519,14.2411088 7.82468365,14.2411088 7.82468365,14.3887294 L7.82468365,16.9481955 C7.82468365,17.0660796 7.82468365,17.0958162 7.97576291,17.0958162 L11.84024,17.0958162 C12.0250132,17.1096224 12.2097864,17.0968782 12.3907555,17.0591765 C12.9515965,17.0198818 13.5031988,16.9009357 14.029259,16.7049931 C14.2205536,16.64021 14.4053268,16.5557794 14.5797744,16.4543566 L14.6324891,16.4543566 C15.5384213,15.9939713 16.2742533,15.2707363 16.7383601,14.3828883 C16.7383601,14.3828883 16.7910749,14.2713763 16.7318387,14.2421708 L16.7318387,14.2411088 Z M6.30791306,18.4228091 L6.30791306,18.3787353 L6.30791306,16.6603883 L6.30791306,16.0778708 L6.30791306,14.3446556 C6.30791306,14.2485429 6.30791306,14.2342057 6.18726703,14.2342057 L4.54930697,14.2342057 C4.45855072,14.2342057 4.42105263,14.2342057 4.42105263,14.1163215 L4.42105263,12.7149873 L6.17205042,12.7149873 C6.26987152,12.7149873 6.30791306,12.7149873 6.30791306,12.589669 L6.30791306,11.2032031 C6.30791306,11.1145245 6.30791306,11.0927531 6.18726703,11.0927531 L4.54930697,11.0927531 C4.45855072,11.0927531 4.42105263,11.0927531 4.42105263,10.974869 L4.42105263,9.67708161 C4.42105263,9.59583715 4.42105263,9.57406576 4.54169866,9.57406576 L6.16444211,9.57406576 C6.27747983,9.57406576 6.30791306,9.57406576 6.30791306,9.43387923 L6.30791306,5.45874167 C6.30791306,5.34085755 6.30791306,5.31112101 6.45899233,5.31112101 L12.1195736,5.31112101 C12.5304223,5.3270513 12.9385537,5.37112509 13.3423374,5.4438734 C14.1743603,5.59414911 14.9737761,5.88461134 15.7047171,6.2993298 C16.1894751,6.57810982 16.635648,6.91476988 17.0329104,7.30240686 C17.3318082,7.60561332 17.6013597,7.93377723 17.8404779,8.28318152 C18.0779658,8.63736489 18.2752384,9.01597471 18.4301218,9.41157683 C18.4491426,9.51459269 18.5502244,9.58415494 18.6556538,9.56663162 L20.006672,9.56663162 C20.1800327,9.56663162 20.1800327,9.56663162 20.187641,9.72912055 L20.187641,10.9387603 C20.187641,11.0566444 20.1425346,11.086381 20.0213451,11.086381 L18.9795504,11.086381 C18.8741209,11.086381 18.8436877,11.086381 18.851296,11.2191334 C18.8925983,11.6683675 18.8925983,12.1191946 18.851296,12.5684287 C18.851296,12.6937469 18.851296,12.7086152 18.9953104,12.7086152 L20.1870976,12.7086152 C20.2398123,12.7749914 20.1870976,12.8413676 20.1870976,12.9082748 C20.1947059,12.9937673 20.1947059,13.0803219 20.1870976,13.1658144 L20.1870976,14.0584415 C20.1870976,14.1837597 20.1495995,14.2209304 20.0360183,14.2209304 L18.6094605,14.2209304 C18.5100091,14.2023451 18.4132748,14.2644732 18.3904499,14.3611169 C18.0507933,15.2240075 17.5073427,15.9976884 16.8052046,16.6179076 C16.5486959,16.8435866 16.2791444,17.0559905 15.997637,17.251933 C15.6954785,17.421856 15.4014717,17.5986822 15.0917049,17.7388687 C14.5216252,17.9895053 13.9238296,18.1742966 13.3102739,18.2916497 C12.7276948,18.3936035 12.136964,18.4398014 11.5440595,18.4318362 L6.30573926,18.4318362 L6.30573926,18.4244021 L6.30791306,18.4228091 Z" id="Shape" fill="#FEFEFD"></path>
                </g>
            </g>
        </g>
    </g>
</svg>