<?xml version="1.0" encoding="UTF-8"?><svg version="1.1" width="178px" height="35px" viewBox="0 0 178.0 35.0" xmlns="http://www.w3.org/2000/svg" xmlns:xlink="http://www.w3.org/1999/xlink"><defs><clipPath id="i0"><path d="M1456,0 L1456,5052 L0,5052 L0,0 L1456,0 Z"></path></clipPath><clipPath id="i1"><path d="M7.16880109,1.83958159 L7.35773043,2.04748159 L12.8201141,8.38668159 C13.7093245,9.42950659 14.1512216,10.6221316 14.1512216,11.9705066 C14.1512216,13.2411816 13.7203162,14.2600316 12.858346,15.0331816 C12.0564318,15.7463066 11.0743496,16.1059316 9.90142661,16.1059316 L2.69821681,16.1059316 C2.19323704,16.1059316 1.77873946,16.0007566 1.77873946,15.4456566 L1.77873946,13.6078066 C1.77873946,13.0527066 2.19259984,12.9475316 2.69821681,12.9475316 L9.71042638,12.9475316 C10.7742292,12.9475316 11.308998,12.5340066 11.308998,11.7129066 C11.308998,11.2934316 11.167062,10.9098316 10.8833494,10.5682316 L5.41268218,4.18388159 L5.22375284,3.97633159 C4.86660311,3.58398159 4.64135346,3.18743159 4.99850319,2.79508159 L6.09368802,1.59230659 C6.45083774,1.19995659 6.81117346,1.44688159 7.16880109,1.83958159 Z"></path></clipPath><clipPath id="i2"><path d="M37.7450509,0 L34.9844376,5.24565405 L36.7175952,5.24599693 C41.2313684,5.24599693 44.8903609,9.2602132 44.8905171,14.2121943 L44.8905171,16.4604297 L48.4074629,16.4604297 C49.1967677,16.4604297 49.7480778,16.2769913 50.0451414,15.9361729 C50.3451741,15.5924401 50.5015974,14.9641205 50.5015974,14.0807015 L50.5015974,10.5475397 C50.5015974,10.0040819 50.5956701,9.55800068 51.0911929,9.55800068 L52.7416852,9.55800068 C53.237208,9.55800068 53.3312808,10.0033961 53.3312808,10.5475397 L53.3312808,14.0807015 C53.3312808,14.9641205 53.487704,15.5924401 53.7877367,15.9361729 C54.0848004,16.2769913 54.6361105,16.4604297 55.4254152,16.4604297 L68.1047658,16.4604297 L68.1047658,14.2121943 C68.104922,10.9689338 65.7084109,8.33976361 62.7521512,8.33976361 L58.4851237,8.33976361 C57.9897572,8.33976361 57.5831504,8.23672949 57.5831504,7.69292876 L57.5831504,5.8924889 C57.5831504,5.34868817 57.9891321,5.24565405 58.4851237,5.24565405 L62.7521512,5.24599693 C67.2659243,5.24599693 70.9249168,9.2602132 70.9250731,14.2121943 L70.9250731,16.4604297 L74.0333806,16.4604297 C74.8226854,16.4604297 75.3739954,16.2769913 75.6710591,15.9361729 C75.9710918,15.5924401 76.1275151,14.9641205 76.1275151,14.0807015 L76.1275151,10.5475397 C76.1275151,10.0040819 76.2215878,9.55800068 76.7171106,9.55800068 L78.3676029,9.55800068 C78.8631257,9.55800068 78.9571984,10.0033961 78.9571984,10.5475397 L78.9571984,14.5106675 C78.9571984,15.8398248 78.5902835,17.0227457 77.872549,17.9920551 C77.10184,19.032854 76.0964179,19.5648255 74.9141016,19.5648255 L54.5446942,19.5648255 C53.5244268,19.5648255 52.6360487,19.1686328 51.9164391,18.3913337 C51.1968294,19.1686328 50.3084513,19.5648255 49.2881839,19.5648255 L17.8933563,19.5648255 C17.4611216,19.5648255 17.0526396,19.4935074 16.6705667,19.3525855 L16.6705667,19.6040848 C16.5327392,21.6409374 15.9489256,23.3575442 14.9152192,24.7611055 C13.6307042,26.5166287 11.89489,27.3913043 9.70793296,27.3913043 L6.97857302,27.3913043 C4.94147602,27.3913043 3.2537921,26.6045762 1.92661621,25.0369489 C0.642101226,23.5104667 0,21.6258509 0,19.3771011 L0,13.5116994 C0,12.968413 0.094229019,12.5221604 0.589595504,12.5221604 L2.17179918,12.5221604 C2.66716567,12.5221604 2.76139468,12.9675558 2.76139468,13.5116994 L2.76139468,19.5121941 C2.76139468,20.9601579 3.19487943,22.1249063 4.06184891,23.0055823 C4.89678365,23.8686003 5.97783896,24.2971948 7.29438869,24.2971948 L9.39758664,24.2971948 C10.7141364,24.2971948 11.7856594,23.8613999 12.6140309,22.9879242 C13.4369331,22.1204489 13.8502594,20.9623865 13.8502594,19.518023 L13.8502594,10.5475397 C13.8502594,10.0040819 13.9443321,9.55800068 14.4398549,9.55800068 L16.0903473,9.55800068 C16.58587,9.55800068 16.6799428,10.0033961 16.6799428,10.5475397 L16.6799428,14.0807015 C16.6799428,14.9641205 16.8363661,15.5924401 17.1363988,15.9361729 C17.4334624,16.2769913 17.9847725,16.4604297 18.7740772,16.4604297 L42.0702098,16.4604297 L42.0705223,14.2121943 C42.070366,10.9689338 39.6738549,8.33976361 36.7175952,8.33976361 L31.7278327,8.33976361 L31.7278327,5.24565405 L34.488446,0 L37.7450509,0 Z"></path></clipPath><clipPath id="i3"><path d="M11.0968905,7.1708 C11.6025075,7.1708 12.0163679,7.275975 12.0163679,7.831075 L12.0163679,9.668925 C12.0163679,10.224025 11.6018703,10.3292 11.0968905,10.3292 L4.83307054,10.3292 C4.32809078,10.3292 3.91359319,10.224025 3.91359319,9.668925 L3.91359319,7.831075 C3.91359319,7.275975 4.32745358,7.1708 4.83307054,7.1708 L11.0968905,7.1708 Z"></path></clipPath><clipPath id="i4"><path d="M8.48780187,7.1708 C8.99341883,7.1708 9.40727922,7.275975 9.40727922,7.831075 L9.40727922,9.668925 C9.40727922,10.224025 8.99278163,10.3292 8.48780187,10.3292 L7.44215922,10.3292 C6.93717946,10.3292 6.52268187,10.224025 6.52268187,9.668925 L6.52268187,7.831075 C6.52268187,7.275975 6.93654226,7.1708 7.44215922,7.1708 L8.48780187,7.1708 Z"></path></clipPath><clipPath id="i5"><path d="M11.0968905,7.1708 C11.6025075,7.1708 12.0163679,7.275975 12.0163679,7.831075 L12.0163679,9.668925 C12.0163679,10.224025 11.6018703,10.3292 11.0968905,10.3292 L4.83307054,10.3292 C4.32809078,10.3292 3.91359319,10.224025 3.91359319,9.668925 L3.91359319,7.831075 C3.91359319,7.275975 4.32745358,7.1708 4.83307054,7.1708 L11.0968905,7.1708 Z"></path></clipPath><clipPath id="i6"><path d="M5.63641848,0 C6.14139825,0 6.23745591,0.439584048 6.23745591,0.976627839 L6.23745591,6.81236834 L7.54817311,6.81236834 C8.35279545,6.81236834 8.91480447,6.63132333 9.21763304,6.29495186 C9.52348829,5.95570397 9.6829472,5.33558251 9.6829472,4.46369006 L9.6829472,0.976627839 C9.6829472,0.440260852 9.77884556,0 10.2839846,0 L11.9665071,0 C12.4716462,0 12.5675446,0.439584048 12.5675446,0.976627839 L12.5675446,4.88804602 C12.5675446,6.19986093 12.1935091,7.36734743 11.461846,8.32400956 C10.6761803,9.35122848 9.65124658,9.876259 8.44598572,9.876259 L6.23745591,9.876259 L6.23745591,18.0451113 C6.23745591,18.5821551 6.14139825,19.0217391 5.63641848,19.0217391 L3.96345397,19.0217391 C3.4584742,19.0217391 3.36241654,18.5813091 3.36241654,18.0451113 L3.36241654,0.976627839 C3.36241654,0.440430053 3.4583149,0 3.96329467,0 L5.63641848,0 Z"></path></clipPath><clipPath id="i7"><path d="M4.55692467,0 C5.06190444,0 5.1579621,0.439584048 5.1579621,0.976627839 L5.1579621,6.82252039 L6.57939253,6.82252039 L6.57939253,4.37773598 C6.57939253,3.09942286 7.07465502,2.00790758 8.04080716,1.17442374 C8.94053136,0.398129817 10.0425661,0 11.2757044,0 L12.727561,0 C13.2322222,0 13.6470384,0.102028168 13.6470384,0.638225954 L13.6470384,2.42549551 C13.6470384,2.96169329 13.233178,3.06389066 12.727561,3.06389066 L11.6752278,3.06389066 C10.8543569,3.06389066 10.2705238,3.23326081 9.95112809,3.55812661 C9.63444047,3.87977761 9.46398988,4.47671853 9.46398988,5.33135249 L9.46398988,6.82252039 L12.727561,6.82252039 C13.2323815,6.82252039 13.6470384,6.92437936 13.6470384,7.46074635 L13.6470384,9.23786384 C13.6470384,9.77423083 13.233178,9.876259 12.727561,9.876259 L5.1579621,9.876259 L5.1579621,18.0451113 C5.1579621,18.5821551 5.06190444,19.0217391 4.55692467,19.0217391 L2.88396016,19.0217391 C2.37898039,19.0217391 2.28292272,18.5813091 2.28292272,18.0451113 L2.28292272,0.976627839 C2.28292272,0.440430053 2.37882109,0 2.88380086,0 L4.55692467,0 Z"></path></clipPath><clipPath id="i8"><path d="M17.2938822,0 C18.5956962,0 19.7744618,0.580137943 20.6275763,1.51834064 L20.6182448,1.52860088 L28.4990356,10.1939766 L28.6867714,10.4003986 C29.0418403,10.7906353 29.2648458,11.18435 28.9104095,11.574065 L26.4298298,14.3013742 C26.0753935,14.6910891 25.7166869,14.4451913 25.3622506,14.0554764 L25.174673,13.8492283 L17.2938822,5.1838525 L3.91482119,19.8945926 L3.72724357,20.1008407 C3.37280727,20.4905556 3.01410065,20.7364534 2.65966434,20.3467385 L0.179084702,17.6194293 C-0.1753516,17.2297143 0.0476538378,16.8359996 0.40272278,16.4457629 L0.590458564,16.239341 L13.9695196,1.52860088 L13.9603463,1.51834064 C14.8136189,0.580311846 15.9920682,0 17.2938822,0 Z"></path></clipPath><clipPath id="i9"><path d="M26.4298298,0.196739797 L28.9104095,2.92404896 C29.2648458,3.31376393 29.0418403,3.70747865 28.6867714,4.09771532 L28.4990356,4.3041373 L15.1199746,19.0148774 L15.1291479,19.0251376 C14.2758753,19.9631664 13.097426,20.5434783 11.795612,20.5434783 C10.4937979,20.5434783 9.31503232,19.9633403 8.46191789,19.0251376 L8.47124933,19.0148774 L0.590458564,10.3495016 L0.40272278,10.1430796 C0.0476538378,9.75284295 -0.1753516,9.35912823 0.179084702,8.96941327 L2.65966434,6.2421041 C3.01410065,5.85238914 3.37280727,6.09828693 3.72724357,6.4880019 L3.91482119,6.69424998 L11.795612,15.3596258 L25.174673,0.648885676 L25.3622506,0.442637595 C25.7166869,0.0529226273 26.0753935,-0.19297517 26.4298298,0.196739797 Z"></path></clipPath></defs><g transform="translate(-1158.0 -28.0)"><g clip-path="url(#i0)"><g transform="translate(1158.0 28.0)"><g transform="translate(113.58754863813212 3.804347826086957)"><g clip-path="url(#i1)"><polygon points="1.77873946,1.39406841 14.1512216,1.39406841 14.1512216,16.1059316 1.77873946,16.1059316 1.77873946,1.39406841" stroke="none" fill="#000000"></polygon></g></g><g transform="translate(32.55252918287931 0.7608695652173942)"><g clip-path="url(#i2)"><polygon points="0,0 78.9571984,0 78.9571984,27.3913043 0,27.3913043 0,0" stroke="none" fill="#000000"></polygon></g></g><g transform="translate(99.73540856031124 17.5)"><g clip-path="url(#i3)"><polygon points="3.91359319,7.1708 12.0163679,7.1708 12.0163679,10.3292 3.91359319,10.3292 3.91359319,7.1708" stroke="none" fill="#000000"></polygon></g></g><g transform="translate(87.26848249027233 17.5)"><g clip-path="url(#i4)"><polygon points="6.52268187,7.1708 9.40727922,7.1708 9.40727922,10.3292 6.52268187,10.3292 6.52268187,7.1708" stroke="none" fill="#000000"></polygon></g></g><g transform="translate(73.4163424124512 17.5)"><g clip-path="url(#i5)"><polygon points="3.91359319,7.1708 12.0163679,7.1708 12.0163679,10.3292 3.91359319,10.3292 3.91359319,7.1708" stroke="none" fill="#000000"></polygon></g></g><g transform="translate(0.0 3.804347826086957)"><g clip-path="url(#i6)"><polygon points="3.36241654,0 12.5675446,0 12.5675446,19.0217391 3.36241654,19.0217391 3.36241654,0" stroke="none" fill="#000000"></polygon></g></g><g transform="translate(13.852140077820888 3.804347826086957)"><g clip-path="url(#i7)"><polygon points="2.28292272,0 13.6470384,0 13.6470384,19.0217391 2.28292272,19.0217391 2.28292272,0" stroke="none" fill="#000000"></polygon></g></g><g transform="translate(137.136186770428 0.0)"><g clip-path="url(#i8)"><polygon points="3.88043444e-17,0 29.0894942,0 29.0894942,20.5434783 3.88043444e-17,20.5434783 3.88043444e-17,0" stroke="none" fill="#16B09F"></polygon></g></g><g transform="translate(148.9105058365759 7.608695652173916)"><g clip-path="url(#i9)"><polygon points="6.61258888e-15,8.12082379e-16 29.0894942,8.12082379e-16 29.0894942,20.5434783 6.61258888e-15,20.5434783 6.61258888e-15,8.12082379e-16" stroke="none" fill="#16B09F"></polygon></g></g></g></g></g></svg>