<svg version="1.2" xmlns="http://www.w3.org/2000/svg" viewBox="0 0 2599 1733" width="2599" height="1733">
	<title>32237070_sl_072622_51930_17-ai</title>
	<defs>
		<clipPath clipPathUnits="userSpaceOnUse" id="cp1">
			<path d="m2598.08 1732.05h-2598.08v-1732.05h2598.08z"/>
		</clipPath>
		<linearGradient id="g1" x2="1" gradientUnits="userSpaceOnUse" gradientTransform="matrix(0,1448.792,-16589.306,0,1266.727,323.878)">
			<stop offset="0" stop-color="#ffffff"/>
			<stop offset=".655" stop-color="#ffffff"/>
			<stop offset="1" stop-color="#ffffff"/>
		</linearGradient>
		<linearGradient id="g2" x2="1" gradientUnits="userSpaceOnUse" gradientTransform="matrix(0,1448.807,-6565.823,0,1324.68,323.859)">
			<stop offset="0" stop-color="#ffffff"/>
			<stop offset=".655" stop-color="#79b7ff"/>
			<stop offset="1" stop-color="#ffffff"/>
		</linearGradient>
		<linearGradient id="g3" x2="1" gradientUnits="userSpaceOnUse" gradientTransform="matrix(0,1448.804,-623.863,0,-29.557,323.859)">
			<stop offset="0" stop-color="#ffffff"/>
			<stop offset=".655" stop-color="#79b7ff"/>
			<stop offset="1" stop-color="#ffffff"/>
		</linearGradient>
		<linearGradient id="g4" x2="1" gradientUnits="userSpaceOnUse" gradientTransform="matrix(0,1448.81,-346.603,0,1050.064,323.859)">
			<stop offset="0" stop-color="#ffffff"/>
			<stop offset=".655" stop-color="#79b7ff"/>
			<stop offset="1" stop-color="#ffffff"/>
		</linearGradient>
		<linearGradient id="g5" x2="1" gradientUnits="userSpaceOnUse" gradientTransform="matrix(0,1448.813,-446.945,0,1166.582,323.859)">
			<stop offset="0" stop-color="#ffffff"/>
			<stop offset=".655" stop-color="#79b7ff"/>
			<stop offset="1" stop-color="#ffffff"/>
		</linearGradient>
		<linearGradient id="g6" x2="1" gradientUnits="userSpaceOnUse" gradientTransform="matrix(0,1448.808,-597.449,0,1006.204,323.859)">
			<stop offset="0" stop-color="#ffffff"/>
			<stop offset=".655" stop-color="#79b7ff"/>
			<stop offset="1" stop-color="#ffffff"/>
		</linearGradient>
		<linearGradient id="g7" x2="1" gradientUnits="userSpaceOnUse" gradientTransform="matrix(0,1448.81,-782.166,0,850.31,323.859)">
			<stop offset="0" stop-color="#ffffff"/>
			<stop offset=".655" stop-color="#79b7ff"/>
			<stop offset="1" stop-color="#ffffff"/>
		</linearGradient>
		<linearGradient id="g8" x2="1" gradientUnits="userSpaceOnUse" gradientTransform="matrix(0,1448.807,-989.032,0,753.075,323.859)">
			<stop offset="0" stop-color="#ffffff"/>
			<stop offset=".655" stop-color="#79b7ff"/>
			<stop offset="1" stop-color="#ffffff"/>
		</linearGradient>
		<linearGradient id="g9" x2="1" gradientUnits="userSpaceOnUse" gradientTransform="matrix(0,1448.815,-1170.947,0,739.151,323.859)">
			<stop offset="0" stop-color="#ffffff"/>
			<stop offset=".655" stop-color="#79b7ff"/>
			<stop offset="1" stop-color="#ffffff"/>
		</linearGradient>
		<linearGradient id="g10" x2="1" gradientUnits="userSpaceOnUse" gradientTransform="matrix(0,1448.808,-1134.812,0,949.156,323.859)">
			<stop offset="0" stop-color="#ffffff"/>
			<stop offset=".655" stop-color="#79b7ff"/>
			<stop offset="1" stop-color="#ffffff"/>
		</linearGradient>
		<linearGradient id="g11" x2="1" gradientUnits="userSpaceOnUse" gradientTransform="matrix(0,1448.639,-785.896,0,1769.814,323.859)">
			<stop offset="0" stop-color="#ffffff"/>
			<stop offset=".655" stop-color="#79b7ff"/>
			<stop offset="1" stop-color="#ffffff"/>
		</linearGradient>
		<linearGradient id="g12" x2="1" gradientUnits="userSpaceOnUse" gradientTransform="matrix(0,1448.81,-515.314,0,2825.965,323.859)">
			<stop offset="0" stop-color="#ffffff"/>
			<stop offset=".655" stop-color="#79b7ff"/>
			<stop offset="1" stop-color="#ffffff"/>
		</linearGradient>
		<linearGradient id="g13" x2="1" gradientUnits="userSpaceOnUse" gradientTransform="matrix(0,1448.811,-269.779,0,5149.174,323.859)">
			<stop offset="0" stop-color="#ffffff"/>
			<stop offset=".655" stop-color="#79b7ff"/>
			<stop offset="1" stop-color="#ffffff"/>
		</linearGradient>
		<linearGradient id="g14" x2="1" gradientUnits="userSpaceOnUse" gradientTransform="matrix(0,1448.811,-98.587,0,12870.481,323.859)">
			<stop offset="0" stop-color="#ffffff"/>
			<stop offset=".655" stop-color="#79b7ff"/>
			<stop offset="1" stop-color="#ffffff"/>
		</linearGradient>
		<linearGradient id="g15" x2="1" gradientUnits="userSpaceOnUse" gradientTransform="matrix(0,1448.811,-306.208,0,5312.31,323.859)">
			<stop offset="0" stop-color="#ffffff"/>
			<stop offset=".655" stop-color="#79b7ff"/>
			<stop offset="1" stop-color="#ffffff"/>
		</linearGradient>
		<linearGradient id="g16" x2="1" gradientUnits="userSpaceOnUse" gradientTransform="matrix(0,1448.811,-569.227,0,3850.809,323.859)">
			<stop offset="0" stop-color="#ffffff"/>
			<stop offset=".655" stop-color="#79b7ff"/>
			<stop offset="1" stop-color="#ffffff"/>
		</linearGradient>
		<linearGradient id="g17" x2="1" gradientUnits="userSpaceOnUse" gradientTransform="matrix(0,1448.811,-863.612,0,3436.806,323.86)">
			<stop offset="0" stop-color="#ffffff"/>
			<stop offset=".655" stop-color="#79b7ff"/>
			<stop offset="1" stop-color="#ffffff"/>
		</linearGradient>
		<linearGradient id="g18" x2="1" gradientUnits="userSpaceOnUse" gradientTransform="matrix(0,1448.809,-1226.608,0,2848.78,323.859)">
			<stop offset="0" stop-color="#ffffff"/>
			<stop offset=".655" stop-color="#79b7ff"/>
			<stop offset="1" stop-color="#ffffff"/>
		</linearGradient>
		<linearGradient id="g19" x2="1" gradientUnits="userSpaceOnUse" gradientTransform="matrix(0,1448.807,-1250.359,0,2801.092,323.86)">
			<stop offset="0" stop-color="#ffffff"/>
			<stop offset=".655" stop-color="#79b7ff"/>
			<stop offset="1" stop-color="#ffffff"/>
		</linearGradient>
		<linearGradient id="g20" x2="1" gradientUnits="userSpaceOnUse" gradientTransform="matrix(0,1448.812,-1045.365,0,2961.328,323.859)">
			<stop offset="0" stop-color="#ffffff"/>
			<stop offset=".655" stop-color="#79b7ff"/>
			<stop offset="1" stop-color="#ffffff"/>
		</linearGradient>
		<linearGradient id="g21" x2="1" gradientUnits="userSpaceOnUse" gradientTransform="matrix(0,1448.812,-860.521,0,3116.785,323.859)">
			<stop offset="0" stop-color="#ffffff"/>
			<stop offset=".655" stop-color="#79b7ff"/>
			<stop offset="1" stop-color="#ffffff"/>
		</linearGradient>
		<linearGradient id="g22" x2="1" gradientUnits="userSpaceOnUse" gradientTransform="matrix(0,1448.809,-7546.672,0,1159.386,323.859)">
			<stop offset="0" stop-color="#ffffff"/>
			<stop offset=".655" stop-color="#79b7ff"/>
			<stop offset="1" stop-color="#ffffff"/>
		</linearGradient>
		<linearGradient id="g23" x2="1" gradientUnits="userSpaceOnUse" gradientTransform="matrix(0,1448.811,-7998.621,0,1178.793,323.859)">
			<stop offset="0" stop-color="#ffffff"/>
			<stop offset=".655" stop-color="#79b7ff"/>
			<stop offset="1" stop-color="#ffffff"/>
		</linearGradient>
		<linearGradient id="g24" x2="1" gradientUnits="userSpaceOnUse" gradientTransform="matrix(0,1448.81,-8508.181,0,1199.342,323.859)">
			<stop offset="0" stop-color="#ffffff"/>
			<stop offset=".655" stop-color="#79b7ff"/>
			<stop offset="1" stop-color="#ffffff"/>
		</linearGradient>
		<linearGradient id="g25" x2="1" gradientUnits="userSpaceOnUse" gradientTransform="matrix(0,1448.81,-9094.534,0,1221.226,323.859)">
			<stop offset="0" stop-color="#ffffff"/>
			<stop offset=".655" stop-color="#79b7ff"/>
			<stop offset="1" stop-color="#ffffff"/>
		</linearGradient>
		<linearGradient id="g26" x2="1" gradientUnits="userSpaceOnUse" gradientTransform="matrix(0,1448.811,-9579.182,0,1246.186,323.859)">
			<stop offset="0" stop-color="#ffffff"/>
			<stop offset=".655" stop-color="#79b7ff"/>
			<stop offset="1" stop-color="#ffffff"/>
		</linearGradient>
		<linearGradient id="g27" x2="1" gradientUnits="userSpaceOnUse" gradientTransform="matrix(0,1448.779,-9848.619,0,1275.256,323.864)">
			<stop offset="0" stop-color="#ffffff"/>
			<stop offset=".655" stop-color="#79b7ff"/>
			<stop offset="1" stop-color="#ffffff"/>
		</linearGradient>
		<linearGradient id="g28" x2="1" gradientUnits="userSpaceOnUse" gradientTransform="matrix(0,1448.806,-10413.566,0,1283.28,323.86)">
			<stop offset="0" stop-color="#ffffff"/>
			<stop offset=".655" stop-color="#79b7ff"/>
			<stop offset="1" stop-color="#ffffff"/>
		</linearGradient>
		<linearGradient id="g29" x2="1" gradientUnits="userSpaceOnUse" gradientTransform="matrix(0,1448.78,-11217.217,0,1279.505,323.867)">
			<stop offset="0" stop-color="#ffffff"/>
			<stop offset=".655" stop-color="#79b7ff"/>
			<stop offset="1" stop-color="#ffffff"/>
		</linearGradient>
		<linearGradient id="g30" x2="1" gradientUnits="userSpaceOnUse" gradientTransform="matrix(0,1448.812,-12070.179,0,1276.297,323.86)">
			<stop offset="0" stop-color="#ffffff"/>
			<stop offset=".655" stop-color="#79b7ff"/>
			<stop offset="1" stop-color="#ffffff"/>
		</linearGradient>
		<linearGradient id="g31" x2="1" gradientUnits="userSpaceOnUse" gradientTransform="matrix(0,1448.775,-12988.146,0,1273.523,323.874)">
			<stop offset="0" stop-color="#ffffff"/>
			<stop offset=".655" stop-color="#79b7ff"/>
			<stop offset="1" stop-color="#ffffff"/>
		</linearGradient>
		<linearGradient id="g32" x2="1" gradientUnits="userSpaceOnUse" gradientTransform="matrix(0,1448.755,-13954.351,0,1271.175,323.885)">
			<stop offset="0" stop-color="#ffffff"/>
			<stop offset=".655" stop-color="#79b7ff"/>
			<stop offset="1" stop-color="#ffffff"/>
		</linearGradient>
		<linearGradient id="g33" x2="1" gradientUnits="userSpaceOnUse" gradientTransform="matrix(0,1448.777,-15047.46,0,1269.046,323.876)">
			<stop offset="0" stop-color="#ffffff"/>
			<stop offset=".655" stop-color="#79b7ff"/>
			<stop offset="1" stop-color="#ffffff"/>
		</linearGradient>
		<linearGradient id="g34" x2="1" gradientUnits="userSpaceOnUse" gradientTransform="matrix(0,1448.796,-16336.147,0,1267.063,323.868)">
			<stop offset="0" stop-color="#ffffff"/>
			<stop offset=".655" stop-color="#79b7ff"/>
			<stop offset="1" stop-color="#ffffff"/>
		</linearGradient>
		<linearGradient id="g35" x2="1" gradientUnits="userSpaceOnUse" gradientTransform="matrix(0,1448.806,-17961.711,0,1265.145,323.861)">
			<stop offset="0" stop-color="#ffffff"/>
			<stop offset=".655" stop-color="#79b7ff"/>
			<stop offset="1" stop-color="#ffffff"/>
		</linearGradient>
		<linearGradient id="g36" x2="1" gradientUnits="userSpaceOnUse" gradientTransform="matrix(0,1448.804,-18488.747,0,1264.629,323.863)">
			<stop offset="0" stop-color="#ffffff"/>
			<stop offset=".655" stop-color="#79b7ff"/>
			<stop offset="1" stop-color="#ffffff"/>
		</linearGradient>
		<linearGradient id="g37" x2="1" gradientUnits="userSpaceOnUse" gradientTransform="matrix(0,1448.668,-18107.668,0,1264.996,323.943)">
			<stop offset="0" stop-color="#ffffff"/>
			<stop offset=".655" stop-color="#79b7ff"/>
			<stop offset="1" stop-color="#ffffff"/>
		</linearGradient>
		<linearGradient id="g38" x2="1" gradientUnits="userSpaceOnUse" gradientTransform="matrix(0,1448.761,-17789.787,0,1265.323,323.892)">
			<stop offset="0" stop-color="#ffffff"/>
			<stop offset=".655" stop-color="#79b7ff"/>
			<stop offset="1" stop-color="#ffffff"/>
		</linearGradient>
		<linearGradient id="g39" x2="1" gradientUnits="userSpaceOnUse" gradientTransform="matrix(0,1448.711,-17362.727,0,1265.788,323.937)">
			<stop offset="0" stop-color="#ffffff"/>
			<stop offset=".655" stop-color="#79b7ff"/>
			<stop offset="1" stop-color="#ffffff"/>
		</linearGradient>
		<clipPath clipPathUnits="userSpaceOnUse" id="cp2">
			<path d="m2598.08 1732.05h-2598.08v-1732.05h2598.08z"/>
		</clipPath>
	</defs>
	<style>
		.s0 { mix-blend-mode: multiply;fill: url(#g1) } 
		.s1 { mix-blend-mode: multiply;fill: url(#g2) } 
		.s2 { mix-blend-mode: multiply;fill: url(#g3) } 
		.s3 { mix-blend-mode: multiply;fill: url(#g4) } 
		.s4 { mix-blend-mode: multiply;fill: url(#g5) } 
		.s5 { mix-blend-mode: multiply;fill: url(#g6) } 
		.s6 { mix-blend-mode: multiply;fill: url(#g7) } 
		.s7 { mix-blend-mode: multiply;fill: url(#g8) } 
		.s8 { mix-blend-mode: multiply;fill: url(#g9) } 
		.s9 { mix-blend-mode: multiply;fill: url(#g10) } 
		.s10 { mix-blend-mode: multiply;fill: url(#g11) } 
		.s11 { mix-blend-mode: multiply;fill: url(#g12) } 
		.s12 { mix-blend-mode: multiply;fill: url(#g13) } 
		.s13 { mix-blend-mode: multiply;fill: url(#g14) } 
		.s14 { mix-blend-mode: multiply;fill: url(#g15) } 
		.s15 { mix-blend-mode: multiply;fill: url(#g16) } 
		.s16 { mix-blend-mode: multiply;fill: url(#g17) } 
		.s17 { mix-blend-mode: multiply;fill: url(#g18) } 
		.s18 { mix-blend-mode: multiply;fill: url(#g19) } 
		.s19 { mix-blend-mode: multiply;fill: url(#g20) } 
		.s20 { mix-blend-mode: multiply;fill: url(#g21) } 
		.s21 { mix-blend-mode: multiply;fill: url(#g22) } 
		.s22 { mix-blend-mode: multiply;fill: url(#g23) } 
		.s23 { mix-blend-mode: multiply;fill: url(#g24) } 
		.s24 { mix-blend-mode: multiply;fill: url(#g25) } 
		.s25 { mix-blend-mode: multiply;fill: url(#g26) } 
		.s26 { mix-blend-mode: multiply;fill: url(#g27) } 
		.s27 { mix-blend-mode: multiply;fill: url(#g28) } 
		.s28 { mix-blend-mode: multiply;fill: url(#g29) } 
		.s29 { mix-blend-mode: multiply;fill: url(#g30) } 
		.s30 { mix-blend-mode: multiply;fill: url(#g31) } 
		.s31 { mix-blend-mode: multiply;fill: url(#g32) } 
		.s32 { mix-blend-mode: multiply;fill: url(#g33) } 
		.s33 { mix-blend-mode: multiply;fill: url(#g34) } 
		.s34 { mix-blend-mode: multiply;fill: url(#g35) } 
		.s35 { mix-blend-mode: multiply;fill: url(#g36) } 
		.s36 { mix-blend-mode: multiply;fill: url(#g37) } 
		.s37 { mix-blend-mode: multiply;fill: url(#g38) } 
		.s38 { mix-blend-mode: multiply;fill: url(#g39) } 
	</style>
	<g id="_Artboards_">
	</g>
	<g id="Layer 1">
		<g id="&lt;Group&gt;">
			<g id="&lt;Group&gt;">
				<g id="&lt;Clip Group&gt;" clip-path="url(#cp1)">
				</g>
				<g id="&lt;Clip Group&gt;">
					<g id="&lt;Group&gt;">
						<path id="&lt;Path&gt;" class="s0" d="m456.8 1830.5c-117-19.8-235.6-40.9-350.2-61.2-86.2-15.3-174.2-31-261.9-46.1v3.3c87.5 15.1 175.3 30.7 261.2 45.9 114.7 20.4 233.2 41.4 350.2 61.3 608.8 103.2 1090.4 145.8 1515.8 134.1 220.9-6.1 454.5-26.3 695.4-60v-3.3c-240.9 33.7-474.6 53.9-695.5 60.1-425.2 11.6-906.5-30.9-1515-134.1z"/>
						<path id="&lt;Path&gt;" class="s1" d="m2518 278.7c-14.2-32.3-27.7-62.8-41.2-91.4-41-86.9-77-153.2-104.1-191.8-22-31.2-36.8-44.6-37.4-45.2l-1-0.9-1.2 0.7c-0.5 0.3-50.4 29.2-134 78.7q-16.4 9.7-34.2 20.3c-79.4 47.3-178.2 106.1-295.6 164.2-154 76.3-294.1 122.4-428.7 140.9-133.7 18.4-288.6 11.8-487.3-20.8-37.9-6.2-76.2-12.8-113.1-19.3-132.4-23-257.4-44.8-377.7-49.7-136.2-5.6-270.2 14-377.3 55.1-114.7 44.1-194.4 96.7-240.5 132.4v4.3c45.5-35.5 125.6-88.9 241.9-133.7 106.6-41 240.1-60.5 375.7-54.9 120 4.9 244.9 26.7 377.2 49.7 37 6.4 75.2 13.1 113.2 19.3 199.1 32.7 354.3 39.3 488.4 20.8 135.1-18.6 275.5-64.8 430-141.2 117.4-58.2 216.3-117.1 295.7-164.4q17.9-10.6 34.2-20.3c76.4-45.2 124.6-73.2 132.8-78 3.7 3.6 17.3 17.4 35.9 43.7 27 38.5 62.9 104.6 103.8 191.4 13.5 28.5 26.9 59 41.2 91.3 41.8 94.9 88.8 201.2 152.6 292.3v-6.1c-62.1-89.9-108.2-194.2-149.3-287.4z"/>
						<path id="&lt;Path&gt;" class="s2" d="m-119 430.5c-0.4 0.7-11.5 15.9-24.8 48.1-3.8 9.2-7.7 19.8-11.5 31.6v11.7c4.9-16.2 9.9-30.3 14.8-42.2 13.2-31.8 24.4-47.2 24.5-47.4z"/>
						<path id="&lt;Path&gt;" class="s3" d="m-27.9 373.1c-0.4 0.6-10.8 15.7-23.1 47.5-15 38.7-30.2 101.4-44 181.4-3.8 21.8-7.3 44.6-11.1 68.7-11.6 75.4-24.5 158.7-49.2 236.5v11.4c27-81 40.6-168.5 52.8-247.5 3.7-24.1 7.2-46.9 11-68.6 13.8-79.8 29-142.4 43.8-180.8 12.2-31.5 22.8-46.7 22.9-46.9z"/>
						<path id="&lt;Path&gt;" class="s4" d="m71.3 325.3c-0.4 0.6-10 15.6-21.2 47.2-13.6 38.4-27.1 101.2-39.2 181.6-3.5 23.7-6.7 48.6-10.1 74.9-19.3 150.3-42.7 332-156.1 436.4v4.7c116.5-104.8 140.2-288.8 159.6-440.7 3.4-26.3 6.6-51.2 10.2-74.9 12-80.2 25.5-142.8 39-181.1 11-31.1 20.8-46.3 20.9-46.4z"/>
						<path id="&lt;Path&gt;" class="s5" d="m179.1 290.4c-0.3 0.6-9.1 15.5-18.9 46.9-12 38.3-23.6 101.3-33.6 182-2.5 19.9-4.7 40.5-7.2 62.3-8.4 76-17.9 162.1-39.1 248.7-29.6 120.9-82.8 203.4-158 245.2-22.1 12.2-48.1 22.3-77.6 30.3v3.3c30.2-8 56.9-18.3 79.5-30.9 76.1-42.2 129.7-125.4 159.6-247.2 21.2-86.8 30.8-173 39.2-249.1 2.4-21.8 4.7-42.3 7.2-62.2 9.9-80.6 21.5-143.3 33.5-181.6 9.7-31 18.5-46.1 18.6-46.2z"/>
						<path id="&lt;Path&gt;" class="s6" d="m295.3 270c-0.3 0.6-8 15.5-16.3 46.8-10.2 38.5-19.6 101.6-27.3 182.7-1.9 20.1-3.6 40.8-5.4 62.6-6.3 76.4-13.5 162.9-31.2 250.1-25.2 123.3-70.7 203.6-139.3 245.4-37.4 22.8-87.3 37.9-148.2 44.7-26.4 3-54.3 4.5-82.9 5.3v3.2c28.7-0.7 56.8-2.3 83.3-5.2 61.5-7 111.9-22.2 149.8-45.3 69.4-42.3 115.5-123.3 140.8-247.5 17.8-87.4 24.9-174 31.3-250.4 1.8-21.9 3.5-42.6 5.4-62.6 7.6-80.9 17.1-143.9 27.2-182.2 8.2-31 16-46.1 16.1-46.2z"/>
						<path id="&lt;Path&gt;" class="s7" d="m418.9 264.3c-0.3 0.6-6.8 15.6-13.5 47-8.2 38.5-15.2 102-20.3 183.5-1.3 20.2-2.4 41.1-3.5 63.1-4.1 76.7-8.6 163.7-22.5 251.5-12.6 79.2-38.6 191-118.2 247-32.2 22.6-77.2 38.2-130.4 44.9-57.4 7.3-123.1 6.1-186.7 4.8h-3.9c-24.8-0.5-49.9-1-75.2-1.2v3.2c25.3 0.3 50.3 0.7 75.1 1.2l3.9 0.1c63.7 1.2 129.6 2.5 187.3-4.9 53.7-6.8 99.4-22.6 132.1-45.5 80.7-56.8 106.8-169.4 119.5-249.2 13.9-87.9 18.5-175 22.5-251.7 1.2-22.1 2.3-42.9 3.5-63.1 5.1-81.4 12.2-144.7 20.3-183.1 6.7-31 13.2-46.2 13.3-46.4z"/>
						<path id="&lt;Path&gt;" class="s8" d="m548.1 271.6c-0.1 0.2-5.4 15.8-10.4 47.3-6 38.8-10.5 102.7-12.9 184.6-0.6 20.4-1.1 41.6-1.5 63.5-1.6 77.2-3.4 164.6-13.2 253.1-6.8 61.5-16.4 108.5-30.4 148-15.6 44.1-37.4 78.4-64.9 101.9-57.2 48.8-164 54.6-271 53.7l-3.1-0.1c-63.7-0.6-129.5-1.2-196.9 5-34.1 3-67.2 7.9-99.1 14.3v3.3c32-6.4 65.2-11.3 99.4-14.4 67.3-6.1 133-5.5 196.5-4.9h3.2c107.7 1 215.4-5 273.5-54.6 27.9-23.8 50-58.5 65.8-103.2 14-39.8 23.8-87 30.6-148.7 9.8-88.6 11.6-176.1 13.2-253.3 0.4-21.9 0.9-43.2 1.4-63.5 2.4-81.8 6.9-145.6 13-184.3 4.9-31.1 10.2-46.6 10.2-46.7z"/>
						<path id="&lt;Path&gt;" class="s9" d="m684.6 289.5l-3.5-0.8c0 0.2-4 16-7.1 47.8-3.9 39.1-5.8 103.4-5.3 185.9 0.1 20.4 0.3 41.8 0.6 63.9 1 77.6 2.1 165.5-3.4 254.8-3.9 61.9-10.5 109.5-20.8 149.6-11.8 45.4-28.3 79.5-50.6 104.1-46.1 50.8-142.8 59-221.9 60.5h-2.5c-52.7 1-107.3 2-162.9 9.8q-1.3 0.1-2.5 0.3c-62.5 9.1-122.9 27-174.9 52.1-57.7 27.8-112.6 66.9-163.2 116.2-7.4 7.2-14.7 14.7-21.9 22.4v5c8.1-8.7 16.2-17.1 24.6-25.2 50.3-49.1 104.8-87.9 162.2-115.6 52.3-25.2 113.1-43.2 176.3-52 55.3-7.8 109.8-8.8 162.4-9.8h2.4c79.9-1.5 177.6-9.8 224.6-61.7 22.7-25 39.5-59.4 51.3-105.4 10.5-40.3 17.1-88 20.9-150.2 5.5-89.3 4.5-177.3 3.5-255-0.3-22-0.5-43.4-0.7-63.9-0.4-82.3 1.4-146.5 5.3-185.6 3.2-31.4 7.1-47.1 7.1-47.2z"/>
						<path id="&lt;Path&gt;" class="s10" d="m45.2 1760.1l-3.5-0.8c0.2-0.8 22.7-83.6 78.2-202.9 29.7-63.8 60.6-117.2 94.5-163.2 37.9-51.5 79.6-92.9 123.9-123 40.5-27.6 88.1-48.1 137.6-59.4 43.4-9.9 86.6-13 128.3-15.9l1.2-0.1c88.2-6.2 145.9-29.3 171.5-68.8 16.9-26 28.3-59.9 36-106.8 6.7-40.7 10.2-88.8 11-151.4 1.1-90-2.9-178.6-6.5-256.6-1-22.2-2-43.7-2.8-64.3-3.3-82.9-4.1-147.7-2.5-187.2 1.4-32 3.9-48.1 3.9-48.3l3.5 0.5c0 0.2-2.5 16.1-3.8 47.9-1.6 39.4-0.8 104.1 2.5 187 0.8 20.6 1.8 42 2.8 64.2 3.5 78.2 7.5 166.7 6.4 256.8-0.7 62.7-4.2 111-11 151.9-7.7 47.3-19.3 81.6-36.4 107.9-26.3 40.5-84.9 64.2-174.3 70.4l-1.2 0.1c-41.6 3-84.6 6-127.7 15.8-49 11.2-96.2 31.6-136.3 58.9-44 29.9-85.4 71-123.1 122.2-33.8 45.8-64.6 99-94.2 162.7-55.4 119-77.8 201.6-78 202.4z"/>
						<path id="&lt;Path&gt;" class="s11" d="m458.3 1832.3l-3.6-0.4c0.1-0.8 12.5-84.9 47.6-208.3 18.9-66.7 38.3-120.5 61.2-169.1 25.5-54.5 53.1-97.1 84.4-130 28.2-29.8 61.9-52.8 97.4-66.6 31.1-12.1 64.3-17.6 93.5-22.4 27.3-4.4 53.5-9.4 73.9-20.7 20.3-11.4 36.6-31 47.2-56.7 11-27 17.8-61.8 21.2-109.5 3.1-42 3.4-89.2 1.1-153.2-3.3-90.8-10.2-179.8-16.3-258.4-1.8-22.4-3.5-44-5-64.7-6.1-83.5-9.7-148.7-10.3-188.6-0.5-32.4 0.6-48.6 0.6-48.8l3.6 0.2c0 0.2-1.1 16.3-0.6 48.5 0.6 39.9 4.1 105.1 10.3 188.5 1.5 20.7 3.2 42.3 4.9 64.7 6.2 78.6 13.1 167.7 16.4 258.5 2.3 64.1 2 111.4-1.1 153.5-3.5 48-10.3 83.1-21.5 110.4-10.8 26.4-27.6 46.6-48.7 58.3-20.8 11.6-47.4 16.7-75.1 21.2-29 4.8-61.9 10.2-92.7 22.1-35 13.7-68.2 36.4-96.1 65.8-31 32.7-58.4 74.9-83.8 129.1-22.8 48.6-42.2 102.1-61.1 168.7-35 123.2-47.3 207.1-47.4 207.9z"/>
						<path id="&lt;Path&gt;" class="s12" d="m868.7 1896.3l-3.6-0.1c0-0.2 1.1-22.5 3.7-61.8 2.6-38.4 6.4-90.3 13.4-151.8 7.9-68.6 16.8-124.1 28.2-174.6 12.8-56.6 27.5-101.2 45.2-136.3 16.2-32.2 35.5-56.7 57.4-73 19-14 41.4-22.1 57.7-27.9 16.6-6 33.5-13.1 44.9-25 12.3-12.8 21.1-33 26.2-60 5.4-28.4 7.5-63 6.7-112-0.7-42.1-3.5-91.3-8.8-155-7.7-91.5-17.5-181.3-26.3-260.4-2.4-22.4-4.8-44.1-7-64.9-9.1-83.9-15.3-149.5-18.2-189.9-2.3-32.6-2.6-49-2.6-49.2h3.6c0 0.1 0.3 16.5 2.6 49 2.8 40.3 9.1 106 18.1 189.8 2.2 20.8 4.6 42.4 7.1 64.8 8.7 79.2 18.6 169 26.3 260.6 5.3 63.7 8.1 113 8.8 155.1 0.7 49.3-1.3 84-6.7 112.6-5.4 28-14.2 48.2-27.1 61.6-11.9 12.4-29.3 19.8-46.3 25.9-16.1 5.7-38.2 13.7-56.7 27.4-21.5 15.9-40.5 40.1-56.4 71.8-17.6 34.9-32.3 79.3-45 135.6-11.4 50.5-20.3 105.8-28.1 174.3-7 61.4-10.9 113.3-13.4 151.7-2.7 39.3-3.7 61.5-3.7 61.7z"/>
						<path id="&lt;Path&gt;" class="s13" d="m1277.2 1943.5l-3.6 0.2c0 0-1.6-22.5-4.3-63.3-2.7-39.3-6-92.5-9-155.5-3.3-70.3-4.8-127.3-4.9-179.5 0-59.1 1.9-104 6.1-141.2 3.8-34.1 9.5-59.4 17.3-77.4 5.9-13.6 14-23.4 21.9-32 5.3-5.8 12.7-14.9 16.5-27.9 4.1-14.3 5.8-33.7 5.3-62.7-0.4-29.2-2.9-64.4-8-114.1-4.3-42.5-10.2-92.3-18.6-156.5-12.1-92.3-24.9-182.7-36.2-262.5-3.2-22.4-6.3-44.1-9.2-64.9-11.9-84.5-20.9-150.6-25.9-191.1-4.1-32.8-5.8-49.4-5.8-49.5l3.5-0.3c0 0.1 1.7 16.6 5.8 49.5 5.1 40.4 14.1 106.5 26 191 2.9 20.8 6 42.5 9.1 64.9 11.4 79.8 24.2 170.2 36.3 262.6 8.3 64.2 14.3 114 18.6 156.5 5.1 49.8 7.5 85.1 8 114.3 0.5 29.4-1.2 49-5.5 63.6-3.9 13.6-11.7 23.2-17.2 29.1-7.7 8.4-15.6 18-21.3 31.1-7.7 17.8-13.3 42.8-17.1 76.6-4.1 37.1-6 81.9-6 140.9 0 52.1 1.6 109.1 4.9 179.3 2.9 63 6.3 116.2 8.9 155.5 2.7 40.8 4.4 63.3 4.4 63.3z"/>
						<path id="&lt;Path&gt;" class="s14" d="m1686 1967.2c0 0-4.5-23.1-12.8-64.8-8-40.5-19-95.3-32.1-159.1-14.8-72-27.1-130.3-38.9-183.5-13.3-60.4-24-106.2-33.8-144.4-9.1-35.2-16.4-60.3-23.2-79.1-5-13.7-9.9-23.9-14.4-32.8-3.2-6.2-7.9-16.1-12.2-29.8-4.7-14.9-9.6-34.8-16-64.4-6.4-29.6-13.4-65.2-22.8-115.4-8.1-43.3-16.9-92-28.6-157.7-16.4-92.3-32.1-182.9-46-262.8l-11.6-66.7c-14.8-84.8-26.4-151.2-33.8-192.1-6-33.5-9-49.8-9-49.8l3.5-0.6c0 0 3 16.4 9 49.8 7.4 41 19.1 107.4 33.8 192.2l11.6 66.7c13.9 79.9 29.7 170.5 46 262.8 11.7 65.7 20.5 114.4 28.6 157.7 9.4 50.2 16.4 85.7 22.8 115.3 6.3 29.5 11.3 49.3 15.9 64.1 4.3 13.5 8.9 23.2 12.1 29.4 4.5 9 9.5 19.2 14.5 33.1 6.8 18.9 14.2 44.1 23.3 79.4 9.8 38.2 20.5 84.1 33.9 144.4 11.7 53.3 24 111.6 38.8 183.6 13.1 63.9 24.1 118.6 32.1 159.1 8.3 41.8 12.8 64.8 12.8 64.8z"/>
						<path id="&lt;Path&gt;" class="s15" d="m2112.3 1960.9c-0.1-0.2-7.8-24.1-22-66.3-13.8-41.1-32.9-96.7-57.2-162.5-27.1-73.2-51.1-132.4-75.4-186.5-27.1-60.2-52-107.7-76.2-145.3-22-34.1-44-60.4-65.4-78.1-17-14.1-34.8-23.1-51.7-31.2-14-6.7-30-15.4-42.6-28.7-13.6-14.2-26.1-35.2-38.3-64.2-12.2-29.1-24.3-65.9-38-115.7-11.8-43.1-24.2-93.5-38.9-158.7-21-93.4-39.9-185.1-56.6-266-4.7-22.6-9.2-44.5-13.6-65.5-17.7-85.3-32.2-152-41.8-193-7.8-33.1-12.3-49.6-12.3-49.8l3.4-0.7c0.1 0.1 4.6 16.7 12.4 49.9 9.6 40.9 24.1 107.7 41.9 193 4.3 21 8.9 42.9 13.5 65.6 16.7 80.8 35.6 172.5 56.7 265.9 14.6 65.1 26.9 115.4 38.8 158.5 13.6 49.7 25.6 86.4 37.9 115.4 12 28.6 24.3 49.2 37.6 63.2 12.3 12.9 27.9 21.4 41.6 27.9 17 8.2 35.1 17.4 52.4 31.7 21.7 17.9 43.9 44.4 66 78.8 24.4 37.8 49.4 85.5 76.5 145.8 24.3 54.1 48.3 113.4 75.5 186.7 24.3 65.8 43.4 121.4 57.2 162.6 14.2 42.2 21.9 66.1 22 66.3z"/>
						<path id="&lt;Path&gt;" class="s16" d="m2451.2 1685.1c-40.7-73.3-78.9-134.9-116.9-188.4-42.8-60.3-83.3-107.4-123.9-144.2-36.8-33.3-74.7-58.3-112.7-74.4-32.7-13.7-66.1-20.7-92.9-26.3-25.2-5.3-51.5-11.4-73.5-23.9-22.3-12.6-42.7-33-60.6-60.7-18.5-28.4-35.6-64.8-53.8-114.5-15.8-43-31.6-93.5-49.6-158.9-25.8-93.6-47.9-185.8-67.4-267.1-5.5-22.9-10.9-45.1-16-66.3-20.9-85.8-38.3-152.8-50.3-193.7-9.8-33.1-15.8-49.6-15.8-49.7l-3.4 1c0 0.2 6 16.5 15.7 49.6 12 40.8 29.4 107.7 50.3 193.5 5.1 21.2 10.5 43.4 16 66.3 19.5 81.3 41.6 173.5 67.4 267.2 18.1 65.5 33.9 116.1 49.7 159.2 18.3 49.8 35.5 86.4 54.1 115.1 18.2 28.1 39 48.8 61.8 61.8 22.4 12.7 49.1 18.9 74.6 24.2 26.7 5.6 59.9 12.5 92.2 26.2 37.6 15.8 75.2 40.6 111.7 73.7 40.4 36.6 80.7 83.6 123.4 143.6 37.9 53.4 76.1 115 116.7 188.1 37 66.8 65.4 123.6 86 165.6 21.2 43.2 32.5 67.7 32.6 67.9l3.3-1.2c-0.1-0.3-11.5-24.8-32.6-68-20.6-42-49-98.9-86.1-165.7z"/>
						<path id="&lt;Path&gt;" class="s17" d="m2667.3 1349.8c-36.7-30-73.1-55.5-108.8-76.2-52.8-30.5-110.2-53.1-165.8-65.4-48.3-10.7-96-14-138.2-16.9-91.5-6.3-155.1-30.1-194.3-72.6-25.2-27.3-47.7-63.1-70.9-112.4-20.1-42.8-39.5-93.2-61.1-158.9-31-93.9-56.6-186.6-79.2-268.5-6.4-23.1-12.5-45.3-18.5-66.6-24.3-86.2-44.8-153.3-59.3-194-11.8-33-19.4-49.3-19.4-49.4l-3.3 1.3c0 0.1 7.6 16.2 19.3 49 14.5 40.7 35 107.7 59.2 193.9 6 21.3 12.2 43.5 18.5 66.6 22.7 81.9 48.3 174.7 79.2 268.7 21.7 65.7 41.1 116.3 61.3 159.1 23.3 49.7 46 85.7 71.5 113.3 39.8 43.2 104.2 67.3 196.8 73.7 42 2.9 89.5 6.2 137.5 16.8 55.3 12.3 112.3 34.8 164.7 65.1 36.4 21 73.5 47 110.8 77.7z"/>
						<path id="&lt;Path&gt;" class="s18" d="m2667.3 1106.5c-50.6-2.3-99.2-1-146.5 0.2l-0.5 0.1c-86.6 2.3-194.8-1.8-262-54.7-32.1-25.4-61.5-61.1-89.8-109.2-24.7-42.2-48.2-92.5-73.7-158.2-36.5-94-66-187.3-91.9-269.7-7.3-23.2-14.4-45.6-21.3-67-27.9-86.5-51.8-153.6-69-194-14-32.8-23.3-48.6-23.4-48.7l-3.2 1.5c0.1 0.1 9.3 15.8 23.2 48.3 17.3 40.4 41.1 107.4 69 193.8 6.9 21.4 13.9 43.8 21.2 67 26 82.4 55.4 175.8 92 269.8 25.6 66 49.1 116.4 74 158.7 28.4 48.5 58.1 84.5 90.6 110.1 68.1 53.6 177.1 57.8 264.5 55.5h0.4c47.3-1.3 95.8-2.5 146.4-0.2z"/>
						<path id="&lt;Path&gt;" class="s19" d="m2667.3 1010.1c-18.6 0.4-36.8 0.3-54.2-0.8-55.4-3.4-105.7-17.2-145.4-40-39.7-22.8-77-58-110.8-104.6-30-41.4-57.9-91.3-87.8-157-42.7-93.9-76.3-187.8-106-270.6-8.3-23.3-16.4-45.8-24.2-67.3-31.9-86.7-59.5-153.7-79.7-193.6-16.4-32.4-27.5-47.7-27.6-47.8l-3 1.8c0.1 0.1 11 15.2 27.3 47.3 20.2 39.8 47.7 106.7 79.6 193.3 7.8 21.5 15.9 44 24.2 67.3 29.7 82.9 63.4 176.8 106.1 270.8 30 66 58 116 88.1 157.5 34.1 47 71.7 82.6 111.9 105.6 40.2 23.1 91.1 37.1 147.1 40.6 17.5 1.1 35.8 1.2 54.4 0.8z"/>
						<path id="&lt;Path&gt;" class="s20" d="m2667.3 863.1c-40-20.4-77.3-49.8-111.1-87.9-35.8-40.3-68.6-89.6-103.4-155.3-49.5-93.5-87.8-187.8-121.5-271.1-9.6-23.6-18.7-46-27.6-67.5-36.3-86.9-67.9-153.6-91.4-192.9-19.1-31.8-32.2-46.5-32.3-46.6l-2.8 2c0.2 0.2 13.1 14.6 31.9 46.1 23.5 39.2 55 105.8 91.2 192.5 9 21.6 18 43.9 27.6 67.5 33.8 83.3 72.1 177.8 121.7 271.4 34.9 65.9 67.8 115.4 103.8 155.9 34.6 39 72.8 69 113.9 89.6z"/>
						<path id="&lt;Path&gt;" class="s21" d="m2378.7 7.5c-0.5 0.3-52.4 29.8-139.3 80.1q-16.9 9.9-35.5 20.7c-82.4 48-184.9 107.8-306.4 166.7-159.3 77.3-304.1 123.8-442.8 142.3-137.8 18.3-297.2 11.2-501.8-22.3-39-6.4-78.4-13.3-116.5-19.9-136.2-23.8-264.8-46.2-388.5-51.5-140.1-6-277.7 13.6-387.6 55.1-95.2 36.1-166.8 77.8-215.6 111.6v4.1c48.6-33.9 120.6-76.2 217-112.7 109.3-41.3 246.4-60.8 386-54.9 123.5 5.4 252 27.7 388 51.4 38.2 6.7 77.6 13.5 116.6 20 204.9 33.6 364.7 40.7 502.9 22.3q6-0.8 11.9-1.6c135.5-19.6 276.9-65.8 432.1-141 121.6-59 224.2-118.8 306.6-166.9q18.6-10.8 35.5-20.6c86.9-50.4 138.8-79.9 139.3-80.2z"/>
						<path id="&lt;Path&gt;" class="s22" d="m2426.3 89.3c-0.5 0.3-54.4 30.1-144.5 80.8q-17.5 9.9-36.6 20.8c-85.4 48.4-191.6 108.6-317.1 167.8-164.3 77.5-313.5 124-456.1 142.2-141.7 18-305.4 10.3-515.4-24.2-40-6.6-80.5-13.6-119.6-20.5-139.8-24.3-271.8-47.3-398.8-53.1-143.7-6.5-284.7 12.8-397.2 54.3-82.7 30.5-148 65.4-196.3 95.9v4c48.3-30.7 114-66 197.7-96.9 111.9-41.3 252.5-60.5 395.6-54.1 126.8 5.8 258.7 28.8 398.3 53.1 39.1 6.8 79.6 13.9 119.7 20.5 210.3 34.6 374.5 42.3 516.5 24.2q9.4-1.2 19-2.6c137.2-19.8 280.8-65.7 438.3-139.9 125.6-59.3 231.9-119.5 317.3-167.9q19.1-10.9 36.6-20.8c90.1-50.8 143.9-80.5 144.5-80.8z"/>
						<path id="&lt;Path&gt;" class="s23" d="m2475.8 189.9c-0.5 0.3-56.2 30.1-149.5 80.9q-18.1 9.9-37.9 20.8c-88.2 48.4-198 108.6-327.5 167.6-169.3 77.1-322.8 123.3-469.2 140.9-145.3 17.5-313.3 9.1-528.4-26.3-41.1-6.8-82.5-14-122.6-21-143.2-25-278.6-48.6-408.7-54.9-147.1-7-291.5 11.7-406.5 52.9-73.7 26.4-133.9 56.2-180.8 83.6v3.9c47-27.7 107.6-57.8 182.1-84.5 114.5-41 258.4-59.7 405-52.6 129.9 6.2 265.1 29.8 408.3 54.8 40 7 81.5 14.2 122.5 21 215.6 35.5 383.9 43.9 529.6 26.3q14-1.7 28.1-3.7c138.4-20 283.4-65.1 442.2-137.5 129.6-59.1 239.5-119.4 327.8-167.8q19.8-10.8 37.9-20.7c93.2-50.8 148.9-80.6 149.5-80.9z"/>
						<path id="&lt;Path&gt;" class="s24" d="m2527.9 301.6c-0.6 0.2-58.3 30-154.8 80.6q-18.7 9.9-39.1 20.7c-91.3 48.2-204.9 108.2-338.3 166.8-174.5 76.5-332.3 121.9-482.7 138.9-149.1 16.9-321.3 7.8-541.7-28.6-42.1-7-84.5-14.4-125.5-21.6-146.8-25.6-285.4-49.8-418.7-56.6-150.7-7.7-298.4 10.4-416 51-66 22.8-121.4 48.4-166.4 72.7v3.8c45.1-24.5 101-50.4 167.7-73.5 117.1-40.4 264.3-58.5 414.5-50.8 133 6.8 271.5 31 418.2 56.6 41 7.2 83.5 14.6 125.5 21.5 220.9 36.5 393.4 45.6 542.9 28.8q19.4-2.2 39-5.1c139-20.1 285-64.2 444.7-134.2 133.6-58.6 247.2-118.7 338.6-166.9q20.4-10.8 39.1-20.7c96.5-50.6 154.2-80.3 154.7-80.6z"/>
						<path id="&lt;Path&gt;" class="s25" d="m2583.3 415.8c-0.6 0.3-60.5 29.9-160.6 80.5-12.9 6.5-26.3 13.3-40.4 20.5-94.6 48-212.3 107.8-350.1 165.9-180 75.8-342.6 120.6-497.2 136.9-153.2 16.1-329.9 6.2-556.1-31.2-43.1-7.2-86.7-14.8-128.8-22.1-150.5-26.3-292.7-51.2-429.4-58.6-154.5-8.4-305.8 9-426.1 49-57.9 19.4-107.8 40.8-149.9 61.7v3.7c42.3-21.2 92.6-42.8 151.2-62.3 119.8-39.9 270.6-57.3 424.6-48.9 136.4 7.4 278.5 32.3 428.9 58.5 42.2 7.4 85.7 15 128.8 22.2 226.6 37.5 403.6 47.4 557.2 31.2q25.6-2.7 51.5-6.4c139.6-20.2 286.4-63.2 446.8-130.8 138-58.1 255.7-117.9 350.3-166q21.1-10.7 40.5-20.5c100.1-50.5 159.9-80.2 160.5-80.4z"/>
						<path id="&lt;Path&gt;" class="s26" d="m2643.6 524.5c-0.6 0.3-63 30-167.3 80.6q-20.1 9.7-42 20.5c-98.3 48-220.7 107.7-363.6 165.6-186.3 75.3-354.4 119.6-513.9 135.3-157.8 15.4-339.8 4.7-572.5-34-44.4-7.3-89.2-15.1-132.5-22.7-154.9-27.1-301.2-52.7-441.8-60.8-158.8-9.1-314.2 7.7-437.6 47.3-47.8 15.4-90.4 32.2-127.7 49.1v3.6c37.5-17.1 80.5-34.1 128.9-49.7 122.9-39.4 277.8-56.2 436.2-47.1 140.3 8.1 286.5 33.7 441.3 60.8 43.3 7.5 88.1 15.4 132.5 22.7 233.1 38.7 415.4 49.5 573.6 34 21.6-2.1 43.2-4.8 65.1-7.9 140.5-20.3 288.3-62.3 449.8-127.7 143.1-57.9 265.5-117.6 363.9-165.7q21.9-10.7 42-20.5c104.3-50.6 166.6-80.2 167.2-80.5z"/>
						<path id="&lt;Path&gt;" class="s27" d="m2535.4 701.8q-21 9.8-43.9 20.6c-102.9 48.4-230.9 108.6-379.9 166.7-193.8 75.4-368.4 119.5-533.7 134.6-163.4 14.9-351.6 3.3-592.2-36.7-45.9-7.7-92.2-15.8-137-23.6-160.1-28-311.3-54.5-456.5-63.3-164-9.8-324.3 6.4-451.2 45.9-34.9 10.9-67 22.5-96.3 34.3v3.5c29.7-11.9 62.1-23.7 97.4-34.7 126.5-39.4 286.3-55.6 449.8-45.7 145 8.7 296.1 35.2 456.1 63.2 44.8 7.8 91.1 15.9 137 23.5 241 40.1 429.5 51.8 593.3 36.8q39.3-3.6 79.4-9.4c142.1-20.5 291.9-61.8 455.3-125.5 149.1-58.1 277.2-118.3 380.1-166.7q22.9-10.8 43.9-20.6c55.8-26.1 100.1-46.7 130.3-60.6v-3.6c-30.2 13.9-75.1 34.8-131.9 61.3z"/>
						<path id="&lt;Path&gt;" class="s28" d="m2601.9 781.1c-14.7 6.7-30.2 13.7-46.3 21.1-108.4 49.3-243.4 110.6-399.8 169.5-203.1 76.4-385.6 120.7-558 135.5-170.2 14.6-366.1 1.9-616.3-39.7-47.8-8-95.9-16.4-142.5-24.6-166.5-29.1-323.7-56.6-474.6-66.1-170.4-10.7-336.4 5.3-467.6 45.1-18.2 5.5-35.5 11.3-52.1 17.3v3.5c17-6.2 34.7-12.1 53.2-17.8 130.8-39.6 296.3-55.5 466.2-44.9 150.7 9.5 307.9 37 474.2 66.1 46.6 8.2 94.8 16.6 142.5 24.6 250.6 41.7 446.8 54.3 617.4 39.7 31-2.6 62.4-6.3 94.2-10.9 144.9-20.9 297.9-62.1 464.8-124.8 156.5-58.9 291.5-120.3 400-169.7q24.2-10.9 46.3-21c23.2-10.4 44.5-20 63.8-28.7v-3.6c-19.7 8.8-41.5 18.7-65.4 29.4z"/>
						<path id="&lt;Path&gt;" class="s29" d="m2629.2 861.2c-115.4 50.9-259 114.3-424.7 174.9-214.5 78.3-406.8 123.6-588 138.3-178.6 14.5-383.9 0.9-646.1-42.9-50.1-8.3-100.6-17.2-149.4-25.7-174.3-30.6-339-59.4-497-69.6-174.6-11.3-344.3 3.9-479.3 42.7v3.4c134.7-38.9 304.4-54.2 479.1-42.9 157.7 10.2 322.3 39 496.5 69.6 48.9 8.5 99.4 17.4 149.4 25.7 262.6 43.8 468.2 57.4 647.2 42.9 35.8-2.9 72.2-7 109-12.3 149.5-21.6 307.6-63.3 480-126.2 165.8-60.6 309.4-124 424.8-175 12.6-5.6 24.7-10.9 36.6-16.1v-3.6c-12.4 5.4-25 11-38.1 16.8z"/>
						<path id="&lt;Path&gt;" class="s30" d="m2259.5 1081.1c-228.7 81.6-433.3 128.6-625.3 143.5-188.9 14.6-406-0.1-683-46.3-52.9-8.8-106.2-18.2-157.8-27.2-184.1-32.3-358-62.8-524.6-73.8-151.1-10-298.2-1.3-424.1 24.4v3.3c125.7-25.7 272.8-34.4 423.8-24.5 166.4 11 340.2 41.5 524.2 73.7 51.6 9.1 105 18.4 157.9 27.3 277.3 46.3 494.6 61 683.9 46.3 40.7-3.2 82-7.8 123.9-13.8 156.3-22.6 321.8-65.5 502.4-129.9 154.5-55.2 291.6-112.8 406.5-162.1v-3.6c-115.1 49.5-252.7 107.3-407.8 162.7z"/>
						<path id="&lt;Path&gt;" class="s31" d="m2624.7 991.9c-80.1 32.6-186.8 75.2-301.8 115.5-118.8 41.7-226.1 73.6-328.2 97.6-116 27.3-231.6 45.4-343.3 53.8-201.6 15.2-433-0.8-728.2-50.1-56.4-9.4-113.3-19.4-168.3-29-196.1-34.4-381.3-66.9-558.5-78.7-122.8-8.2-242.7-4.9-351.7 9.2v3.3c108.8-14.1 228.7-17.5 351.4-9.3 177.1 11.9 362.1 44.3 558.1 78.7 55 9.6 111.9 19.6 168.3 29 295.6 49.4 527.3 65.3 729.2 50.1 47.4-3.5 95.4-8.9 143.9-15.9 66.1-9.5 133-22.2 200-38 102.2-24 209.7-56 328.6-97.7 115-40.3 221.8-82.9 301.9-115.5 14-5.7 27.7-11.3 41.2-16.9v-3.5c-14 5.7-28.1 11.5-42.6 17.4z"/>
						<path id="&lt;Path&gt;" class="s32" d="m2397.5 1118c-129.6 44.9-246.5 79.2-357.3 104.9-125.7 29.2-250.6 48.5-371.1 57.4-217.1 16-466-1.3-783.4-54.3-60.7-10.2-121.9-20.9-181.1-31.3-210.6-36.9-409.4-71.8-599.6-84.6-92.4-6.3-179.7-7-260.3-2.3v3.2c80.5-4.6 167.7-3.9 260.1 2.3 189.9 12.8 388.7 47.7 599.1 84.6 59.2 10.4 120.5 21.1 181.2 31.3 317.7 53.1 566.9 70.3 784.2 54.3 52.7-3.9 106.2-9.7 160.2-17.5 69.9-10.1 140.6-23.5 211.6-40 110.9-25.7 227.9-60.1 357.7-104.9 97.9-33.9 190.6-69.4 268.5-100.1v-3.5c-78.2 30.8-171.3 66.5-269.8 100.5z"/>
						<path id="&lt;Path&gt;" class="s33" d="m2486.6 1118.7c-143 48.9-271.6 86.2-393.2 114.2-137.4 31.6-273.6 52.4-404.9 62-235.6 17.1-505.6-1.7-849.7-59.3-65.8-11-132.2-22.6-196.4-33.9-228.1-40-443.5-77.8-649-91.7-51.2-3.5-100.8-5.3-148.7-5.7v3.3c47.8 0.3 97.3 2.2 148.4 5.6 205.4 13.9 420.7 51.7 648.6 91.7 64.2 11.3 130.6 22.9 196.5 33.9 344.4 57.6 614.6 76.4 850.6 59.3 58.5-4.3 118.1-10.8 178.3-19.5 75-10.8 150.9-25 227.2-42.6 121.7-28 250.4-65.4 393.6-114.3 62.3-21.3 122.7-43.2 179.4-64.3v-3.5c-57 21.3-117.9 43.3-180.7 64.8z"/>
						<path id="&lt;Path&gt;" class="s34" d="m2594.2 1118.5c-159.5 53.8-302.5 94.9-437.1 125.5-151.6 34.4-301.5 57.1-445.6 67.4-257.7 18.4-552.8-2.3-928.4-65.1-72-12.1-144.6-24.8-214.8-37.1-248.7-43.7-483.6-84.9-707.3-100.1-5.5-0.4-10.9-0.6-16.3-1v3.3c5.3 0.3 10.6 0.5 16 0.9 223.5 15.2 458.4 56.4 707 100 70.2 12.4 142.7 25.1 214.7 37.1 376 62.9 671.3 83.6 929.3 65.2 65.9-4.7 132.9-12 200.8-21.8 80.9-11.7 162.9-27 245.5-45.7 134.7-30.6 277.8-71.7 437.4-125.5 24.3-8.2 48.2-16.4 71.9-24.7v-3.5c-24.1 8.4-48.5 16.8-73.1 25.1z"/>
						<path id="&lt;Path&gt;" class="s35" d="m2234.3 1269c-168.6 37.6-334.8 62.2-494 73.3-283.6 19.6-607.9-3.4-1020.4-72.5-79.2-13.2-159-27.3-236.2-40.8-222.7-39.1-435.3-76.4-639-98v3.3c203.5 21.5 415.9 58.8 638.4 97.9 77.1 13.5 157 27.5 236.1 40.8 412.9 69.1 737.5 92.1 1021.4 72.5 75.8-5.3 153.3-13.6 231.8-25 86.5-12.5 174.3-28.6 262.7-48.3 133.9-29.9 275.9-69 432.2-119.1v-3.4c-156.7 50.2-298.9 89.4-433 119.3z"/>
						<path id="&lt;Path&gt;" class="s36" d="m2328.3 1325.1c-188.5 40.5-373.7 66.9-550.5 78.4-313.5 20.4-671.3-5.6-1126-81.8-87.4-14.7-175.5-30.2-260.7-45.1-188.6-33.2-370.6-65.2-546.4-89v3.2c175.6 23.9 357.4 55.8 545.7 88.9 85.2 15 173.3 30.5 260.7 45.1 455.1 76.3 813.2 102.3 1127 81.9 91-5.9 184.2-15.8 279-29.5 89.5-12.9 180.4-29.3 272-49 107-23 218.8-51.2 338.2-85.2v-3.4c-119.7 34.2-231.8 62.4-339 85.5z"/>
						<path id="&lt;Path&gt;" class="s37" d="m2442.4 1432.9c-211.5 42.6-418.6 70-615.5 81.4-347.2 19.9-742.7-10.1-1244.6-94.4-96.6-16.2-194.5-33.5-289.1-50.3-113.8-20.2-231.4-41-345.9-59.7-35.3-5.8-69.4-11.2-102.6-16.3v3.3c33 5 66.9 10.4 101.9 16.1 114.5 18.8 232.2 39.6 345.9 59.8 94.6 16.7 192.5 34.1 289.1 50.3 502.2 84.4 898 114.4 1245.5 94.4 115.7-6.7 234.8-18.9 356.3-36.4 85.6-12.4 172.3-27.4 259.8-45.1 72.3-14.6 146.8-31.2 224.1-50v-3.4c-77.6 18.9-152.3 35.6-224.9 50.3z"/>
						<path id="&lt;Path&gt;" class="s38" d="m2579.7 1615.1c-237.9 43-469.7 69.9-689 79.9-384.6 17.4-821.4-17.9-1374.9-111.3-106.4-17.9-214.3-37-318.6-55.5-115.9-20.6-235.4-41.8-352.5-61.2v3.3c116.8 19.4 236.1 40.5 351.8 61.1 104.3 18.4 212.2 37.6 318.7 55.5 553.7 93.4 990.8 128.7 1375.7 111.3 157.3-7.2 321.1-23 488.9-47.3 66.3-9.6 133.2-20.5 200.6-32.7 28.5-5.1 57.5-10.6 86.9-16.3v-3.3c-29.7 5.8-58.9 11.3-87.6 16.5z"/>
					</g>
				</g>
				<g id="&lt;Clip Group&gt;" clip-path="url(#cp2)">
				</g>
			</g>
		</g>
	</g>
</svg>