<svg version="1.2" xmlns="http://www.w3.org/2000/svg" viewBox="0 0 1007 721" width="1007" height="721">
	<title>v1069-016-ai</title>
	<defs>
		<clipPath clipPathUnits="userSpaceOnUse" id="cp1">
			<path d="m1121 770h-1200v-800h1200z"/>
		</clipPath>
		<linearGradient id="g1" x2="1" gradientUnits="userSpaceOnUse" gradientTransform="matrix(77.239,-670.864,932.645,107.378,571.244,870.927)">
			<stop offset=".44" stop-color="#26d4c1"/>
			<stop offset=".445" stop-color="#26d3c0"/>
			<stop offset=".698" stop-color="#16b09f"/>
			<stop offset=".7" stop-color="#16b09f"/>
			<stop offset=".93" stop-color="#078f80"/>
		</linearGradient>
		<linearGradient id="g2" x2="1" gradientUnits="userSpaceOnUse" gradientTransform="matrix(1148.022,1130.386,-1592.705,1617.554,440.081,-36.781)">
			<stop offset=".188" stop-color="#16b09f"/>
			<stop offset=".19" stop-color="#16b09f"/>
			<stop offset=".868" stop-color="#007e70"/>
			<stop offset=".87" stop-color="#007e70"/>
		</linearGradient>
		<linearGradient id="g3" x2="1" gradientUnits="userSpaceOnUse" gradientTransform="matrix(1148.022,1130.386,-1592.705,1617.554,440.081,-36.781)">
			<stop offset=".188" stop-color="#16b09f"/>
			<stop offset=".19" stop-color="#16b09f"/>
			<stop offset=".868" stop-color="#007e70"/>
			<stop offset=".87" stop-color="#007e70"/>
		</linearGradient>
		<linearGradient id="g4" x2="1" gradientUnits="userSpaceOnUse" gradientTransform="matrix(-1042.298,2267.828,-7041.661,-3236.362,1536.992,-1230.093)">
			<stop offset="0" stop-color="#16b09f"/>
			<stop offset=".56" stop-color="#25d9c5"/>
			<stop offset=".565" stop-color="#25d8c4"/>
			<stop offset=".868" stop-color="#16b09f"/>
			<stop offset=".87" stop-color="#16b09f"/>
		</linearGradient>
		<linearGradient id="g5" x2="1" gradientUnits="userSpaceOnUse" gradientTransform="matrix(762.411,45.723,-15.913,265.337,324.647,417.163)">
			<stop offset=".188" stop-color="#1dcebb"/>
			<stop offset=".19" stop-color="#1dcebb"/>
			<stop offset=".868" stop-color="#0b9f8e"/>
			<stop offset=".87" stop-color="#0b9f8e"/>
		</linearGradient>
		<linearGradient id="g6" x2="1" gradientUnits="userSpaceOnUse" gradientTransform="matrix(765.025,45.88,-15.954,266.03,431.398,275.084)">
			<stop offset=".13" stop-color="#0b9f8f"/>
			<stop offset=".132" stop-color="#0b9f8f"/>
			<stop offset=".81" stop-color="#18c4b1"/>
			<stop offset=".812" stop-color="#18c4b1"/>
		</linearGradient>
		<linearGradient id="g7" x2="1" gradientUnits="userSpaceOnUse" gradientTransform="matrix(-78.553,335.513,-919.41,-215.258,545.225,-118.967)">
			<stop offset=".44" stop-color="#16b09f"/>
			<stop offset=".445" stop-color="#16b09f"/>
			<stop offset=".93" stop-color="#058e7f"/>
			<stop offset=".94" stop-color="#058d7e"/>
		</linearGradient>
		<linearGradient id="g8" x2="1" gradientUnits="userSpaceOnUse" gradientTransform="matrix(-1275.463,-1584.424,2325.2,-1871.788,668.967,795.008)">
			<stop offset=".18" stop-color="#16b09f"/>
			<stop offset=".188" stop-color="#16af9f"/>
			<stop offset=".868" stop-color="#048577"/>
			<stop offset=".87" stop-color="#048577"/>
		</linearGradient>
		<linearGradient id="g9" x2="1" gradientUnits="userSpaceOnUse" gradientTransform="matrix(593.957,-977.157,596.394,362.513,-259.579,553.154)">
			<stop offset="0" stop-color="#079a8a"/>
			<stop offset=".56" stop-color="#16b09f"/>
			<stop offset=".565" stop-color="#16b09f"/>
			<stop offset=".868" stop-color="#079f8e"/>
			<stop offset=".87" stop-color="#079f8e"/>
		</linearGradient>
		<radialGradient id="g10" cx="0" cy="0" r="1" gradientUnits="userSpaceOnUse" gradientTransform="matrix(240.452,219.356,-219.356,240.452,585.584,165.726)">
			<stop offset=".05" stop-color="#30d9c7"/>
			<stop offset=".053" stop-color="#30d9c7"/>
			<stop offset=".72" stop-color="#11a595"/>
			<stop offset=".724" stop-color="#11a595"/>
			<stop offset=".89" stop-color="#16b09f"/>
			<stop offset=".895" stop-color="#16b09f"/>
			<stop offset="1" stop-color="#16b09f"/>
		</radialGradient>
		<radialGradient id="g11" cx="0" cy="0" r="1" gradientUnits="userSpaceOnUse" gradientTransform="matrix(-23.896,-180.556,180.556,-23.896,856.152,262.594)">
			<stop offset="0" stop-color="#16b09f" stop-opacity="1"/>
			<stop offset=".756" stop-color="#21c7b5" stop-opacity="0"/>
			<stop offset=".76" stop-color="#21c7b5" stop-opacity="0"/>
		</radialGradient>
	</defs>
	<style>
		.s0 { fill: url(#g1) } 
		.s1 { fill: url(#g2) } 
		.s2 { fill: url(#g3) } 
		.s3 { fill: url(#g4) } 
		.s4 { fill: url(#g5) } 
		.s5 { fill: url(#g6) } 
		.s6 { fill: url(#g7) } 
		.s7 { fill: url(#g8) } 
		.s8 { fill: url(#g9) } 
		.s9 { fill: url(#g10) } 
		.s10 { fill: url(#g11) } 
	</style>
	<g id="Graphic Elements">
		<g id="&lt;Clip Group&gt;" clip-path="url(#cp1)">
			<g id="&lt;Group&gt;">
				<g id="Folder 1">
					<path id="&lt;Path&gt;" class="s0" d="m728.4 349.5q0.1 1 0.2 2 0 0.7 0.1 1.4 0 0.9 0.1 1.9 0 0.7 0 1.4 0.1 1 0.1 1.9 0 0.7 0 1.5 0 0.9 0 1.8 0 0.7 0 1.5 0 0.9 0 1.7 0 0.8-0.1 1.6 0 0.8 0 1.7-0.1 0.8-0.1 1.5-0.1 0.9-0.1 1.7-0.1 0.8-0.1 1.6-0.1 0.8-0.2 1.7 0 0.8-0.1 1.5-0.1 0.9-0.2 1.7-0.1 0.8-0.2 1.6-0.1 0.8-0.2 1.6-0.1 0.8-0.2 1.6-0.1 0.8-0.3 1.7-0.1 0.7-0.2 1.5-0.1 0.8-0.3 1.6-0.1 0.8-0.3 1.6-0.1 0.8-0.3 1.6-0.1 0.8-0.3 1.6-0.2 0.8-0.4 1.6-0.1 0.8-0.3 1.5-0.2 0.8-0.4 1.5-0.5 2.3-1.2 4.6-0.1 0.5-0.2 1-0.7 2.3-1.4 4.6-0.1 0.3-0.2 0.6-0.7 2.2-1.5 4.4-0.1 0.3-0.2 0.5-0.8 2.3-1.7 4.5-0.2 0.5-0.3 1-0.8 1.9-1.6 3.7 0 0.1 0 0.1-0.9 1.9-1.7 3.8-0.3 0.5-0.5 1-0.7 1.5-1.5 3.1-0.2 0.3-0.3 0.6-0.9 1.9-1.9 3.6-0.3 0.5-0.5 1-0.7 1.3-1.5 2.6-0.2 0.4-0.5 0.9-1 1.7-2 3.4-0.1 0-0.1 0.1-1 1.6-2 3.2-0.3 0.4-0.6 0.9-0.8 1.2-1.7 2.4-0.3 0.5-0.6 0.9-1.1 1.6-2.2 3.2-0.2 0.2-0.4 0.4-1 1.4-2 2.7-0.4 0.4-0.7 0.9-1 1.2-1.9 2.4-0.3 0.3-0.6 0.6-1.2 1.5-2.5 3-0.3 0.3-0.5 0.6-1.2 1.2-2.3 2.5-0.4 0.4-0.7 0.7-1.4 1.5-2.9 3-0.2 0.2-0.4 0.4-1.2 1.2-2.5 2.4-0.4 0.4-0.8 0.8-1.5 1.4-3 2.7-0.1 0-0.1 0.1-2 1.7-3.9 3.3-0.3 0.2-0.5 0.4-1.9 1.5-3.9 3-0.3 0.2-0.7 0.5-1.9 1.4-3.9 2.8-0.4 0.2-0.7 0.5-2 1.3-4.1 2.6-0.4 0.2-0.7 0.4-1.4 0.9-2.9 1.8-0.4 0.2-0.8 0.5-1.8 0.9-3.6 1.9-0.3 0.1-0.6 0.3-1.5 0.8-3.1 1.5-0.4 0.3-0.9 0.5-1.8 0.8-3.6 1.6-0.3 0.2-0.5 0.3-1.7 0.7-3.3 1.3-0.5 0.2-1 0.4-1.9 0.7-3.8 1.4-0.1 0-0.3 0.1-1.8 0.6-3.6 1.2-0.5 0.1-1 0.3-1.9 0.5-3.9 1.1-2.4 0.6-4.9 1.1-0.7 0.2-1.5 0.3-1.7 0.4-3.4 0.6-0.8 0.2-1.7 0.3-1.6 0.3-3.2 0.5-0.8 0.1-1.6 0.1-2.1 0.3-4.1 0.4-0.3 0-0.7 0.1-2.3 0.1-4.7 0.1-0.7 0-1.3 0-1.7 0-3.4 0-0.8 0-1.6-0.1-1.6 0-3.1-0.2-0.8 0-1.6-0.1-1.8-0.2-3.5-0.4-0.6 0-1.1-0.1-2.3-0.3-4.5-0.8-0.6-0.1-1.2-0.2-1.7-0.3-3.3-0.7-0.8-0.2-1.6-0.4-1.5-0.4-3-0.8-0.7-0.2-1.4-0.4-2-0.6-3.9-1.3-0.2-0.1-0.5-0.2-1.9-0.6-3.7-1.4l135.9 54.8q1.9 0.7 3.7 1.4 0.1 0 0.1 0 0.2 0.1 0.4 0.2 1.9 0.6 3.9 1.2 0.7 0.2 1.4 0.4 1.5 0.5 3.1 0.8 0.7 0.2 1.5 0.4 1.7 0.4 3.3 0.7 0.6 0.2 1.2 0.3 2.3 0.4 4.6 0.7 0 0 0.1 0.1 0.5 0 0.9 0.1 1.7 0.2 3.5 0.4 0.8 0 1.6 0.1 1.5 0.1 3.1 0.2 0.8 0 1.6 0 1.7 0.1 3.4 0.1 0.7 0 1.3 0 2.4-0.1 4.7-0.2 0.4 0 0.7-0.1 2.1-0.1 4.1-0.3 0.8-0.1 1.6-0.2 1.6-0.2 3.3-0.4 0.8-0.2 1.7-0.3 1.6-0.3 3.3-0.6 0.8-0.2 1.6-0.3 2.4-0.6 4.8-1.2 2-0.5 3.9-1.1 0.5-0.1 1-0.3 1.8-0.6 3.6-1.2 0.2 0 0.3-0.1 1.9-0.6 3.8-1.4 0.5-0.1 1-0.3 1.6-0.7 3.3-1.4 0.2-0.1 0.5-0.2 1.8-0.8 3.7-1.7 0.4-0.2 0.9-0.4 1.5-0.8 3-1.6 0.4-0.1 0.7-0.3 1.7-0.9 3.5-1.9 0.4-0.2 0.8-0.5 1.5-0.8 2.9-1.7 0.3-0.2 0.5-0.3 0.1-0.1 0.2-0.1 2.1-1.3 4.1-2.7 0.4-0.2 0.7-0.5 2-1.3 4-2.8 0.3-0.2 0.6-0.5 2-1.5 3.9-3 0.3-0.2 0.5-0.4 2-1.6 3.9-3.3 0 0 0.1 0 0 0 0-0.1 1.5-1.3 3-2.7 0.4-0.4 0.8-0.7 1.3-1.2 2.6-2.5 0.2-0.2 0.4-0.4 1.4-1.4 2.8-2.9 0.3-0.4 0.7-0.8 1.2-1.2 2.3-2.5 0.2-0.2 0.4-0.4 0.1-0.1 0.1-0.2 1.3-1.4 2.5-2.9 0.3-0.4 0.6-0.7 1-1.2 1.9-2.4 0.4-0.4 0.7-0.9 1-1.3 2-2.6 0.2-0.3 0.4-0.5 1.1-1.6 2.2-3.1 0.1-0.2 0.2-0.3 0.2-0.3 0.4-0.6 0.9-1.2 1.7-2.5 0.3-0.4 0.6-0.9 1-1.6 2-3.2 0.1 0 0.1-0.1 1-1.6 2-3.3 0.3-0.5 0.6-1 0.7-1.3 1.4-2.6 0.2-0.3 0.3-0.6 0.1-0.2 0.2-0.3 1-1.8 1.9-3.6 0.2-0.3 0.3-0.7 0.8-1.5 1.5-3.1 0.3-0.5 0.5-1 0.9-1.9 1.7-3.8 0 0 0 0 0.8-1.9 1.6-3.8 0.1-0.2 0.2-0.5 0.1-0.2 0.2-0.4 0.8-2.3 1.7-4.5 0-0.3 0.1-0.6 0.8-2.2 1.5-4.4 0.1-0.3 0.2-0.6 0.7-2.3 1.4-4.6 0.1-0.5 0.3-0.9 0.6-2.3 1.2-4.7 0-0.1 0-0.2 0.2-0.6 0.3-1.2 0.2-0.8 0.4-1.6 0.1-0.8 0.3-1.6 0.2-0.8 0.3-1.5 0.2-0.9 0.3-1.7 0.2-0.7 0.3-1.5 0.2-0.8 0.3-1.7 0.1-0.7 0.3-1.5 0.1-0.8 0.2-1.7 0.1-0.7 0.2-1.5 0.1-0.9 0.2-1.7 0.1-0.8 0.2-1.5 0.1-0.9 0.2-1.7 0.1-0.8 0.2-1.6 0-0.8 0.1-1.7 0.1-0.7 0.1-1.5 0.1-0.9 0.1-1.7 0.1-0.8 0.1-1.6 0-0.8 0.1-1.7 0-0.8 0-1.5 0-0.9 0-1.8 0-0.7 0-1.5 0-0.9 0-1.8 0-0.7 0-1.5 0-0.9 0-1.8-0.1-0.7-0.1-1.4 0-1-0.1-2 0-0.7-0.1-1.3-0.1-1.1-0.1-2.2-0.1-0.6-0.1-1.1-0.2-1.7-0.4-3.3-0.2-1.5-0.4-3z"/>
					<path id="&lt;Path&gt;" class="s1" d="m864.5 397.7q0.3 1.5 0.4 3c8.1 70.6-37.6 141.4-101.9 158.2-59.5 15.5-114.1-20.6-128.4-81.9l-138.3 47.7c28.7 139.4 150.9 222.5 284.2 187.7 141.6-36.9 242-192.8 224.3-348.2q-0.8-7.2-1.9-14.2z"/>
					<path id="&lt;Path&gt; copy" class="s2" d="m864.5 397.7q0.3 1.5 0.4 3c8.1 70.6-37.6 141.4-101.9 158.2-59.5 15.5-114.1-20.6-128.4-81.9l-138.3 47.7c28.7 139.4 150.9 222.5 284.2 187.7 141.6-36.9 242-192.8 224.3-348.2q-0.8-7.2-1.9-14.2z"/>
					<path id="&lt;Path&gt;" class="s3" d="m503.6 649.9l135.9 54.7c-70.3-28.3-124.3-93.2-142.2-179.9l-134.1-46.8c19.4 82.7 72.2 144.5 140.4 172z"/>
					<path id="&lt;Path&gt;" class="s4" d="m499.5 429.2l-138.3 47.7 134.1 46.8 138.3-47.7z"/>
					<path id="&lt;Path&gt;" class="s5" d="m866.7 302.8l-138.3 47.7 135.2 47.2 138.3-47.7z"/>
				</g>
			</g>
			<g id="&lt;Group&gt;">
				<path id="&lt;Path&gt;" class="s6" d="m322.7 141l-125.4 25.6c32.4-6.7 68 5.7 93.7 36.4q1 1.1 1.9 2.2 0.3 0.4 0.5 0.7 0.1 0.1 0.1 0.2l121.2-30.8c-25.5-29.1-60.3-40.8-92-34.3z"/>
				<path id="&lt;Path&gt;" class="s7" d="m276.9 334.9c-39.9-47.6-40.7-121.2-1.9-164.4 38.2-42.6 100.7-39.8 140.7 5.8l77.8-101.4c-88.1-95.6-222.5-100-305.2-7.9-85.4 95.1-83.5 257.1 4.3 361.8q7.7 9.3 16 17.5l77.8-101.4q-4.9-4.6-9.5-10z"/>
				<path id="&lt;Path&gt;" class="s8" d="m170.1 28.9q-1.9 0.4-3.8 0.8-0.6 0.1-1.2 0.3-1.3 0.3-2.5 0.6-0.1 0-0.2 0-0.3 0.1-0.6 0.2-1.8 0.4-3.5 0.9-0.7 0.2-1.4 0.4-1.5 0.4-2.9 0.8-0.7 0.2-1.4 0.5-1.7 0.5-3.3 1-0.5 0.1-0.9 0.3-2.1 0.7-4.2 1.4-0.5 0.2-1 0.4-1.6 0.6-3.1 1.2-0.7 0.2-1.4 0.5-1.5 0.6-2.9 1.2-0.6 0.2-1.3 0.5-1.8 0.8-3.5 1.5-0.3 0.2-0.6 0.3-2 0.9-4 1.9-0.2 0-0.3 0.1-0.5 0.2-0.9 0.4-1.4 0.7-2.8 1.4-0.7 0.4-1.4 0.7-1.3 0.7-2.6 1.4-0.7 0.4-1.3 0.7-1.6 0.9-3.2 1.8-0.3 0.2-0.7 0.4-1.9 1.1-3.8 2.3-0.5 0.3-1.1 0.6-1.4 0.9-2.7 1.7-0.7 0.5-1.4 0.9-1.2 0.8-2.5 1.7-0.6 0.4-1.3 0.8-1.4 1-2.8 2-0.4 0.3-0.9 0.7-1.8 1.3-3.7 2.6-0.4 0.4-0.8 0.7-1.4 1-2.8 2.1-0.6 0.5-1.2 1-1.2 1-2.4 2-0.7 0.5-1.3 1-1.3 1.1-2.5 2.2-0.5 0.4-1 0.9-1.8 1.5-3.5 3.1-0.3 0.2-0.5 0.5-1.5 1.3-2.9 2.7-0.6 0.6-1.2 1.1-1.1 1.1-2.3 2.3-0.6 0.6-1.2 1.2-1.1 1.2-2.3 2.4-0.5 0.5-1 1.1-1.6 1.7-3.3 3.5-1.8 2-3.5 4.1-0.5 0.6-1 1.2-1.4 1.6-2.7 3.2-0.4 0.5-0.8 1-1.7 2.1-3.3 4.2-0.2 0.3-0.4 0.6-1.5 1.9-2.8 3.7-0.5 0.7-1 1.3-1.2 1.8-2.5 3.7-0.3 0.4-0.6 0.8-1.5 2.2-2.9 4.4-0.3 0.5-0.6 0.9-1.2 1.9-2.3 3.7-0.4 0.7-0.9 1.4-1.1 1.8-2.2 3.7-0.2 0.4-0.5 0.9-1.3 2.3-2.6 4.6-0.3 0.6-0.7 1.2-0.9 1.8-1.9 3.6-0.4 0.7-0.7 1.5-1.1 2.1-2.1 4.2-0.2 0.3-0.3 0.6-1 2-2 4.1-0.1 0.3-0.2 0.6-0.5 1-1 2.1-0.7 1.5-1.4 3.1-0.4 1.1-0.9 2.2-0.6 1.5-1.3 3.1-0.4 1.1-0.8 2.2-0.7 1.6-1.2 3.1-0.5 1.2-0.9 2.3-0.6 1.6-1.1 3.2-0.4 1.1-0.8 2.2-0.6 1.7-1.1 3.3-0.4 1.1-0.7 2.1-0.6 1.9-1.2 3.9-0.2 0.8-0.5 1.6-0.8 2.7-1.5 5.4 0 0 0 0.1-0.1 0.2-0.2 0.5-0.6 2.3-1.2 4.7-0.2 0.8-0.4 1.6-0.5 2-1 4-0.1 0.7-0.3 1.3-0.5 2.7-1.1 5.3-0.1 0.5-0.2 1.1-0.4 2.1-0.8 4.3-0.2 0.8-0.3 1.6-0.4 2.2-0.7 4.4-0.1 0.5-0.2 1-0.4 2.3-0.7 4.7 0 0.2-0.1 0.4-0.5 3.7-0.9 7.4 0 0.6-0.1 1.2-0.3 3.2-0.6 6.3-0.1 1.1-0.2 2.2-0.2 3.2-0.4 6.4 0 0.6-0.1 1.1-0.2 3.7-0.3 7.5 0 0.3 0 0.6 0 0.6 0 1.2c0 1.6-0.1 3.3-0.1 5q0 1.5 0 3 0.1 3.6 0.2 7.3 0 0.1 0 0.2 0.1 3.7 0.3 7.5c0.1 1.5 0.2 3.1 0.3 4.6q0 1.2 0.2 2.4c0.1 0.7 0.1 1.4 0.2 2.1q0 0.4 0.1 0.8 0.3 3.9 0.8 7.7 0.1 0.9 0.2 1.7c0.2 2.2 0.5 4.4 0.9 6.7q0.1 0.9 0.2 1.7 0.6 4 1.3 7.9c0 0.1 0.1 0.3 0 0.4-0.2 2.2 0.4 4.3 1.2 6.3 0.3 0.6 0.3 1.3 0.5 2q0.2 1 0.4 2 0.3 1.1 0.5 2.2 0.4 1.9 0.9 3.8 0.2 0.9 0.4 1.8 0.7 2.9 1.4 5.7 0.1 0 0.1 0.1 0.7 2.7 1.5 5.5 0.2 0.9 0.5 1.8 0.6 1.9 1.1 3.7 0.4 1.1 0.7 2.1 0.5 1.8 1.1 3.5 0.4 1.1 0.7 2.2 0.6 1.8 1.3 3.5 0.3 1 0.7 2 0.1 0.4 0.2 0.8 0.5 1.2 0.9 2.3 0.5 1.4 1 2.8 0.6 1.5 1.2 3 0.6 1.4 1.1 2.8 0.6 1.5 1.3 3 0.5 1.4 1.1 2.7 0.7 1.5 1.3 3 0.6 1.4 1.3 2.7 0.6 1.5 1.3 3 0.7 1.3 1.3 2.7 0.7 1.4 1.5 2.9 0.6 1.3 1.3 2.6 0.8 1.5 1.5 3 0.7 1.3 1.4 2.6 0.8 1.4 1.6 2.9 0.7 1.3 1.4 2.5 0.9 1.5 1.7 2.9 0.7 1.3 1.5 2.6 0.9 1.4 1.8 2.8 0.7 1.3 1.5 2.5 0.9 1.4 1.8 2.9 0.8 1.2 1.6 2.4 0.9 1.4 1.9 2.9 0.8 1.1 1.6 2.3 1 1.5 2 2.9 0.8 1.1 1.6 2.2 1.2 1.6 2.3 3.1 0.7 1 1.5 2 1.3 1.7 2.6 3.4 0.7 0.8 1.3 1.6 2 2.5 4 4.9 10.2 12.1 21.1 22.4l120.4-30.5q-8.3-8.2-16-17.5-2.1-2.4-4.1-4.9-0.6-0.8-1.2-1.6-1.4-1.7-2.7-3.4-0.7-1-1.5-2-1.1-1.5-2.2-3-0.8-1.2-1.6-2.3-1.1-1.4-2.1-2.9-0.8-1.2-1.6-2.3-0.9-1.5-1.9-2.9-0.8-1.2-1.6-2.4-0.9-1.4-1.8-2.9-0.8-1.2-1.5-2.4-0.9-1.5-1.8-2.9-0.7-1.3-1.5-2.6-0.8-1.4-1.6-2.9-0.8-1.2-1.5-2.5-0.8-1.5-1.6-2.9-0.7-1.3-1.3-2.6-0.8-1.5-1.6-3-0.6-1.3-1.3-2.6-0.7-1.5-1.5-2.9-0.6-1.4-1.2-2.7-0.7-1.5-1.4-3-0.6-1.3-1.2-2.7-0.7-1.5-1.3-3-0.6-1.3-1.2-2.7-0.6-1.5-1.2-3-0.6-1.4-1.2-2.8-0.6-1.5-1.1-3-0.6-1.4-1.1-2.8-0.6-1.5-1.1-3.1-0.4-1-0.7-2-0.6-1.7-1.2-3.5-0.4-1.1-0.8-2.1-0.5-1.8-1.1-3.6-0.3-1-0.6-2-0.6-1.9-1.2-3.8-0.2-0.9-0.5-1.8-0.8-2.8-1.5-5.5 0-0.1 0-0.1-0.8-2.8-1.5-5.7-0.2-0.9-0.4-1.8-0.4-1.9-0.9-3.8-0.2-1.1-0.4-2.2-0.4-1.4-0.7-2.9-0.8-3.8-1.4-7.7-0.1-0.1-0.1-0.1-0.7-3.9-1.3-7.9-0.1-0.6-0.1-1.2c-0.4-2.5-0.7-4.9-1-7.3q-0.1-0.8-0.2-1.5-0.5-3.9-0.8-7.8-0.1-1-0.2-1.9-0.2-2.9-0.4-5.9-0.1-1-0.1-2.1-0.3-3.7-0.4-7.5 0-0.1 0-0.3-0.1-3.6-0.1-7.2 0-1.1 0-2.2 0-2.8 0-5.6 0-1 0.1-2 0.1-3.8 0.2-7.5 0.1-0.5 0.1-1.1 0.2-3.2 0.4-6.4 0.1-1.1 0.2-2.2 0.3-2.9 0.6-5.8 0.1-0.9 0.2-1.7 0.4-3.7 0.9-7.3 0.3-2.6 0.7-5.2 0.1-0.5 0.2-1 0.3-2.2 0.7-4.4 0.2-0.8 0.3-1.6 0.4-2.2 0.8-4.3 0.1-0.5 0.2-1.1 0.6-2.6 1.2-5.2 0.1-0.7 0.3-1.3 0.4-2.1 0.9-4.1 0.2-0.8 0.4-1.6 0.6-2.4 1.3-4.7 0-0.3 0.1-0.5 0.7-2.8 1.5-5.5 0.3-0.8 0.5-1.6 0.6-1.9 1.2-3.9 0.4-1 0.7-2 0.5-1.7 1.1-3.4 0.4-1.1 0.8-2.2 0.6-1.6 1.1-3.2 0.5-1.1 0.9-2.3 0.6-1.5 1.2-3.1 0.4-1.1 0.9-2.2 0.6-1.6 1.3-3.1 0.4-1.1 0.9-2.2 0.7-1.6 1.4-3.1 0.4-1.1 0.9-2.1 1.1-2.4 2.2-4.7 0.2-0.3 0.3-0.6 1-2.1 2.1-4.2 0.4-0.7 0.7-1.4 1-1.9 2-3.7 0.3-0.6 0.6-1.2 1.3-2.3 2.6-4.6 0.3-0.5 0.5-0.9 1.1-1.9 2.3-3.7 0.4-0.7 0.8-1.4 1.1-1.8 2.3-3.7 0.3-0.4 0.6-0.9 1.4-2.2 2.9-4.4 0.4-0.5 0.8-1.1 1.2-1.7 2.4-3.4 0.4-0.6 0.9-1.3 1.4-1.8 2.8-3.7 0.2-0.3 0.4-0.6 1.6-2.1 3.3-4.2 0.4-0.4 0.7-0.8 1.4-1.7 2.8-3.4 0.5-0.6 1-1.2 1.8-2.1 3.6-4.1 1.6-1.8 3.2-3.5 0.5-0.6 1.1-1.1 1.1-1.2 2.3-2.4 0.6-0.6 1.2-1.2 1.1-1.2 2.3-2.3 0.5-0.5 1.1-1.1 1.4-1.4 2.9-2.7 0.3-0.3 0.5-0.5 1.7-1.6 3.5-3.1 0.5-0.5 1-0.9 1.3-1.1 2.5-2.2 0.7-0.5 1.3-1 1.2-1 2.4-2 0.6-0.5 1.2-1 1.4-1.1 2.8-2.1 0.5-0.3 0.9-0.7 1.8-1.3 3.6-2.6 0.5-0.4 1-0.7 1.3-1 2.7-1.9 0.7-0.5 1.3-0.9 1.3-0.9 2.6-1.7 0.6-0.4 1.3-0.9 1.4-0.8 2.8-1.7 0.5-0.3 1-0.6 1.9-1.2 3.8-2.3 0.4-0.2 0.7-0.4 1.6-0.9 3.2-1.8 0.7-0.3 1.3-0.7 1.3-0.7 2.7-1.4 0.6-0.3 1.4-0.7 1.3-0.7 2.7-1.3 0.6-0.3 1.2-0.6 2-1 4-1.9 0.3-0.1 0.6-0.3 1.8-0.7 3.5-1.5 0.7-0.3 1.3-0.5 1.5-0.6 2.9-1.2 0.7-0.3 1.4-0.5 1.5-0.6 3.1-1.2 0.5-0.2 1.1-0.4 2-0.7 4.1-1.4 0.5-0.2 0.9-0.3 1.7-0.5 3.3-1 0.7-0.3 1.4-0.5 1.5-0.4 2.9-0.8 0.7-0.2 1.4-0.4 1.8-0.5 3.5-0.9 0.4-0.1 0.8-0.2 1.2-0.3 2.5-0.6 0.6-0.1 1.2-0.3 1.9-0.4 3.8-0.8z"/>
			</g>
			<g id="&lt;Group&gt;">
				<path id="&lt;Path&gt;" class="s9" d="m869 234.9c12.5 108.4-65.2 206.5-173.6 219.1-108.4 12.5-206.5-65.2-219.1-173.6-12.5-108.4 65.2-206.5 173.6-219.1 108.4-12.5 206.5 65.2 219.1 173.6z"/>
				<path id="&lt;Path&gt;" class="s10" d="m864.3 239.6c12.5 108.4-65.2 206.5-173.6 219-108.4 12.6-206.5-65.1-219.1-173.6-12.5-108.4 65.2-206.5 173.6-219 108.4-12.6 206.5 65.1 219.1 173.6z"/>
			</g>
		</g>
	</g>
</svg>