<svg version="1.2" xmlns="http://www.w3.org/2000/svg" viewBox="0 0 1234 945" width="1234" height="945">
	<title>5667615-ai</title>
	<defs>
		<clipPath clipPathUnits="userSpaceOnUse" id="cp1">
			<path d="m1464 989h-1500v-1000h1500z"/>
		</clipPath>
		<clipPath clipPathUnits="userSpaceOnUse" id="cp2">
			<path d="m1467.3 1009.35h-486.53v-466.71h486.53z"/>
		</clipPath>
		<clipPath clipPathUnits="userSpaceOnUse" id="cp3">
			<path d="m1352.25 1006.27h-502.84v-301.95h502.84z"/>
		</clipPath>
		<clipPath clipPathUnits="userSpaceOnUse" id="cp4">
			<path d="m1333.39 950.78c0 128.14-103.88 232.02-232.02 232.02-128.14 0-232.02-103.88-232.02-232.02 0-128.14 103.88-232.02 232.02-232.02 128.14 0 232.02 103.88 232.02 232.02z"/>
		</clipPath>
		<clipPath clipPathUnits="userSpaceOnUse" id="cp5">
			<path d="m-69.54 1055.55h324.61v-618.45h-324.61z"/>
		</clipPath>
		<radialGradient id="g1" cx="0" cy="0" r="1" gradientUnits="userSpaceOnUse" gradientTransform="matrix(334.303,85.767,-85.767,334.303,637.612,318.267)">
			<stop offset=".12" stop-color="#16b09f"/>
			<stop offset=".773" stop-color="#18cdba"/>
			<stop offset=".78" stop-color="#18ceba"/>
			<stop offset=".99" stop-color="#16b09f"/>
			<stop offset="1" stop-color="#16b09f"/>
		</radialGradient>
		<linearGradient id="g2" x2="1" gradientUnits="userSpaceOnUse" gradientTransform="matrix(391.414,-318.56,180.991,222.383,319.132,962.138)">
			<stop offset="0" stop-color="#16bfac"/>
			<stop offset="1" stop-color="#089f8e"/>
		</linearGradient>
		<linearGradient id="g3" x2="1" gradientUnits="userSpaceOnUse" gradientTransform="matrix(842.899,918.5,-1124.595,1032.03,694.508,296.103)">
			<stop offset="0" stop-color="#14d3bd"/>
			<stop offset=".839" stop-color="#06af9d"/>
			<stop offset=".86" stop-color="#06ae9c"/>
		</linearGradient>
		<linearGradient id="g4" x2="1" gradientUnits="userSpaceOnUse" gradientTransform="matrix(-669.564,895.543,-1505.401,-1125.532,1328.762,355.74)">
			<stop offset="0" stop-color="#14d3bd"/>
			<stop offset=".839" stop-color="#16b1a0"/>
			<stop offset=".86" stop-color="#16b09f"/>
		</linearGradient>
		<linearGradient id="g5" x2="1" gradientUnits="userSpaceOnUse" gradientTransform="matrix(308.49,225.86,-804.538,1098.875,1028.07,223.513)">
			<stop offset="0" stop-color="#14d3bd"/>
			<stop offset=".839" stop-color="#1ec3b1"/>
			<stop offset=".86" stop-color="#1ec3b1"/>
		</linearGradient>
		<linearGradient id="g6" x2="1" gradientUnits="userSpaceOnUse" gradientTransform="matrix(205.727,-72.219,86.654,246.849,870.779,578.251)">
			<stop offset="0" stop-color="#14d3bd"/>
			<stop offset=".839" stop-color="#16b1a0"/>
			<stop offset=".86" stop-color="#16b09f"/>
		</linearGradient>
		<linearGradient id="g7" x2="1" gradientUnits="userSpaceOnUse" gradientTransform="matrix(-958.044,-685.007,1851.722,-2589.799,870.91,1140.435)">
			<stop offset="0" stop-color="#14d3bd"/>
			<stop offset=".839" stop-color="#1ec3b1"/>
			<stop offset=".86" stop-color="#1ec3b1"/>
		</linearGradient>
		<radialGradient id="g8" cx="0" cy="0" r="1" gradientUnits="userSpaceOnUse" gradientTransform="matrix(-14.131,341.614,-341.614,-14.131,131.912,243.883)">
			<stop offset="0" stop-color="#14d3bd"/>
			<stop offset=".839" stop-color="#16b1a0"/>
			<stop offset=".86" stop-color="#16b09f"/>
		</radialGradient>
	</defs>
	<style>
		.s0 { fill: url(#g1) } 
		.s1 { fill: url(#g2) } 
		.s2 { fill: url(#g3) } 
		.s3 { fill: url(#g4) } 
		.s4 { fill: url(#g5) } 
		.s5 { fill: url(#g6) } 
		.s6 { fill: url(#g7) } 
		.s7 { fill: url(#g8) } 
		.s8 { opacity: .3;mix-blend-mode: overlay;fill: #ffffff } 
	</style>
	<g id="BACKGROUND">
	</g>
	<g id="OBJECTS">
		<g id="&lt;Group&gt;">
			<g id="&lt;Clip Group&gt;" clip-path="url(#cp1)">
				<g id="&lt;Group&gt;">
					<g id="&lt;Group&gt;">
					</g>
				</g>
				<g id="&lt;Group&gt;">
					<g id="&lt;Clip Group&gt;" clip-path="url(#cp2)">
						<g id="&lt;Group&gt;" style="opacity: .5">
						</g>
					</g>
					<g id="&lt;Clip Group&gt;" clip-path="url(#cp3)">
						<g id="&lt;Group&gt;">
							<g id="&lt;Clip Group&gt;" clip-path="url(#cp4)">
							</g>
						</g>
					</g>
				</g>
				<g id="&lt;Group&gt;">
				</g>
				<g id="&lt;Group&gt;">
					<g id="&lt;Group&gt;" style="opacity: .8">
					</g>
					<g id="&lt;Group&gt;">
					</g>
				</g>
				<g id="&lt;Group&gt;">
				</g>
				<g id="&lt;Group&gt;">
				</g>
				<g id="&lt;Group&gt;">
				</g>
				<g id="&lt;Group&gt;">
				</g>
				<g id="&lt;Group&gt;">
				</g>
				<g id="&lt;Group&gt;">
				</g>
				<g id="&lt;Group&gt;">
				</g>
				<g id="&lt;Group&gt;">
					<g id="&lt;Group&gt;">
					</g>
				</g>
				<g id="&lt;Clip Group&gt;" clip-path="url(#cp5)" style="opacity: .7">
					<g id="&lt;Group&gt;">
					</g>
				</g>
				<g id="&lt;Group&gt;">
				</g>
				<g id="&lt;Group&gt;" style="opacity: .8">
				</g>
				<g id="&lt;Group&gt;">
					<g id="Folder 1">
						<path id="&lt;Compound Path&gt;" fill-rule="evenodd" class="s0" d="m563.9 610.3c-165.4-42.4-265.5-211.6-223-377.1 42.4-165.4 211.6-265.5 377-223 165.5 42.4 265.6 211.6 223.1 377-42.4 165.5-211.6 265.6-377.1 223.1zm125.6-489.2c-104.3-26.8-211 36.3-237.7 140.6-26.8 104.3 36.3 210.9 140.6 237.7 104.3 26.8 210.9-36.3 237.7-140.6 26.8-104.3-36.3-211-140.6-237.7z"/>
						<path id="&lt;Path&gt;" class="s1" d="m889.7 798.1l-278.4 146.8-207.3-65.2 278.5-146.7z"/>
						<path id="&lt;Path&gt;" class="s2" d="m683.1 732l-279.7 147.4-86-320.9 279.7-147.4z"/>
						<path id="&lt;Path&gt;" class="s3" d="m805.2 477.5l86.1 320.9-208.2-65.4-86-320.9z"/>
						<path id="&lt;Path&gt;" class="s4" d="m1175.4 289.1c-11-1.2-19.2 1.8-23.5 7.6q-94.7 129.1-189.4 258.2c4.3-5.9 12.5-8.9 23.5-7.6 22 2.4 46.8 20.8 55.5 40.9 4.4 10 3.9 18.6-0.3 24.4q94.7-129.1 189.4-258.2c4.2-5.8 4.7-14.3 0.3-24.4-8.7-20.1-33.5-38.4-55.5-40.9z"/>
						<path id="&lt;Path&gt;" class="s5" d="m986 547.3c-21.9-2.5-32.6 11.8-23.9 32 8.8 20.1 33.6 38.4 55.5 40.9 22 2.5 32.6-11.9 23.9-32-8.7-20.1-33.5-38.5-55.5-40.9z"/>
						<path id="&lt;Path&gt;" class="s6" d="m355.3 441.3c-102.5 84.6-229.6 163.7-283.7 176.7-54.2 13-15-45 87.5-129.6 102.5-84.6 229.5-163.8 283.7-176.8 54.2-13 15 45.1-87.5 129.7z"/>
						<path id="&lt;Path&gt;" class="s7" d="m197.9 214.3c5-1.2 11.7-2.7 16.7-3.5 7.5-1.1 17.6-2.4 25.2-3 11.3-0.9 26.4-0.4 37.7 0.1 6.8 0.3 15.9 1.3 22.6 2.7 6.3 1.2 14.6 2.7 20.8 4.3 5.7 1.4 13.3 3.4 18.8 5.4 5.9 2.2 13.8 5 19.5 7.4 5.5 2.3 12.7 5.7 18 8.5 15.8 8.2 26.9 15.9 34.7 21.6 5.1 3.8 11.6 9.1 16.3 13.2 4.7 4.1 10.6 9.9 14.9 14.2 7.8 7.9 16.9 19.5 23.7 28.2-2.9-4-10.5-4.8-23-1.8-54.2 13-181.2 92.2-283.7 176.8-78.9 65-120.2 114.4-110.5 127.8-3.5-5.3-8.6-12.1-11.7-17.6-5.8-10.2-13.3-23.9-17.7-34.8-2.4-5.8-5.6-13.6-7.3-19.6-1.6-5.8-4-13.5-5.4-19.4-1.5-6-3.3-14.1-4-20.3-1.4-11.8-3-27.5-3-39.4 0-6.1 0.3-14.4 0.8-20.5 0.4-5.8 1.6-13.5 2.3-19.3 0.7-6.2 2.5-14.2 3.9-20.2 1.3-5.6 3.6-12.9 5.1-18.4 1.7-5.9 4.9-13.6 7.1-19.4 1.8-5 4.9-11.5 7.3-16.3 2.7-5.4 6.7-12.6 9.7-17.9 4.2-7.4 10.8-16.6 15.7-23.5 0.1 0 3-4 9.6-11.8 2.7-3.2 6.4-7.2 9.2-10.2 4.7-5 13.1-13.1 18-17.3 3.8-3.2 6.5-5.6 10.6-8.8 2.7-2 6.7-5.1 13.4-9.7 9.2-6.3 19.7-12.3 24.5-14.8 5.1-2.6 8.4-4.3 11.7-5.8 6.3-2.8 10.4-4.7 17.7-7.5 15.8-5.9 29.3-9.1 30.8-9.4z"/>
						<path id="&lt;Path&gt;" class="s8" d="m465.8 313.4q-1.4-1.8-3-3.8c-3.9-1.9-10.5-1.8-20 0.5-54.2 13-181.2 92.1-283.7 176.7-72 59.4-112.7 105.7-111.8 123.5 1.4-18.9 41.8-64.2 111.8-121.9 102.5-84.6 229.5-163.8 283.7-176.8 12.5-3 20.1-2.2 23 1.8z"/>
					</g>
				</g>
				<g id="&lt;Group&gt;">
					<g id="&lt;Group&gt;">
					</g>
				</g>
				<g id="&lt;Group&gt;" style="opacity: .8">
				</g>
				<g id="&lt;Group&gt;">
				</g>
			</g>
		</g>
	</g>
</svg>