<?xml version="1.0" encoding="UTF-8"?><svg version="1.1" width="604px" height="587px" viewBox="0 0 604.0 587.0" xmlns="http://www.w3.org/2000/svg" xmlns:xlink="http://www.w3.org/1999/xlink"><defs><clipPath id="i0"><path d="M1456,0 L1456,1738 L0,1738 L0,0 L1456,0 Z"></path></clipPath><clipPath id="i1"><path d="M558.72407,0 L558.72407,548 L0,548 L0,100 C-2.09743922e-14,44.771525 44.771525,1.01453063e-14 100,0 L558.72407,0 Z"></path></clipPath><clipPath id="i2"><path d="M521,0 L521,511 L0,511 L0,100 C-6.76353751e-15,44.771525 44.771525,1.01453063e-14 100,0 L521,0 Z"></path></clipPath><clipPath id="i3"><path d="M453,0 C454.104569,-2.02906125e-16 455,0.8954305 455,2 L455,22 C455,23.1045695 454.104569,24 453,24 L2,24 C0.8954305,24 -6.97015661e-15,23.1045695 0,22 L0,2 C-1.3527075e-16,0.8954305 0.8954305,-4.63227689e-16 2,0 L453,0 Z"></path></clipPath><clipPath id="i4"><path d="M453,0 C454.104569,-2.02906125e-16 455,0.8954305 455,2 L455,157 C455,158.104569 454.104569,159 453,159 L2,159 C0.8954305,159 -6.748112e-15,158.104569 0,157 L0,2 C-1.3527075e-16,0.8954305 0.8954305,-2.41183085e-16 2,0 L453,0 Z"></path></clipPath><clipPath id="i5"><path d="M207,0 C208.104569,-2.02906125e-16 209,0.8954305 209,2 L209,22 C209,23.1045695 208.104569,24 207,24 L2,24 C0.8954305,24 -9.74952274e-16,23.1045695 0,22 L0,2 C-1.3527075e-16,0.8954305 0.8954305,-4.63227689e-16 2,0 L207,0 Z"></path></clipPath><clipPath id="i6"><path d="M324,0 C325.104569,-2.02906125e-16 326,0.8954305 326,2 L326,22 C326,23.1045695 325.104569,24 324,24 L2,24 C0.8954305,24 6.7966089e-15,23.1045695 0,22 L0,2 C-1.3527075e-16,0.8954305 0.8954305,-4.63227689e-16 2,0 L324,0 Z"></path></clipPath><clipPath id="i7"><path d="M58,0 C59.1045695,-2.02906125e-16 60,0.8954305 60,2 L60,41 C60,42.1045695 59.1045695,43 58,43 L2,43 C0.8954305,43 -3.0881846e-16,42.1045695 0,41 L0,2 C-1.3527075e-16,0.8954305 0.8954305,-1.1293615e-15 2,0 L58,0 Z"></path></clipPath><clipPath id="i8"><path d="M12,0 C18.627417,-1.21743675e-15 24,5.372583 24,12 C24,18.627417 18.627417,24 12,24 C5.372583,24 8.11624501e-16,18.627417 0,12 C-8.11624501e-16,5.372583 5.372583,1.21743675e-15 12,0 Z"></path></clipPath><clipPath id="i9"><path d="M18,0 C21.3137085,-6.08718376e-16 24,2.6862915 24,6 L24,18 C24,21.3137085 21.3137085,24 18,24 L6,24 C2.6862915,24 4.05812251e-16,21.3137085 0,18 L0,6 C-4.05812251e-16,2.6862915 2.6862915,6.08718376e-16 6,0 L18,0 Z"></path></clipPath><clipPath id="i10"><path d="M33.6052068,11.6434742 C34.0167612,12.4536556 34.0167612,13.411644 33.6052068,14.2218254 L30.8043679,19.7355253 C30.0814605,21.1586327 30.0814605,22.8413673 30.8043679,24.2644747 L33.6052068,29.7781746 C34.3171988,31.1797941 33.7581453,32.8932148 32.3565258,33.6052068 C31.5463444,34.0167612 30.588356,34.0167612 29.7781746,33.6052068 L24.2644747,30.8043679 C22.8413673,30.0814605 21.1586327,30.0814605 19.7355253,30.8043679 L14.2218254,33.6052068 C12.8202059,34.3171988 11.1067852,33.7581453 10.3947932,32.3565258 C9.98323881,31.5463444 9.98323881,30.588356 10.3947932,29.7781746 L13.1956321,24.2644747 C13.9185395,22.8413673 13.9185395,21.1586327 13.1956321,19.7355253 L10.3947932,14.2218254 C9.68280121,12.8202059 10.2418547,11.1067852 11.6434742,10.3947932 C12.4536556,9.98323881 13.411644,9.98323881 14.2218254,10.3947932 L19.7355253,13.1956321 C21.1586327,13.9185395 22.8413673,13.9185395 24.2644747,13.1956321 L29.7781746,10.3947932 C31.1797941,9.68280121 32.8932148,10.2418547 33.6052068,11.6434742 Z"></path></clipPath><clipPath id="i11"><path d="M27.9308395,10.5328405 C28.8867855,10.7109234 29.6346557,11.4587937 29.8127387,12.4147397 L31.8021594,23.0939145 C32.0113755,24.2169827 32.5988642,25.2345429 33.4668617,25.9772634 L41.720588,33.0397397 C42.7077808,33.8844522 42.8232839,35.3695049 41.9785714,36.3566977 C41.3463741,37.0955297 40.3247643,37.3692692 39.4078493,37.0455206 L29.1647023,33.4288221 C28.0874887,33.0484745 26.9125113,33.0484745 25.8352977,33.4288221 L15.5921507,37.0455206 C14.3670118,37.4780984 13.0231669,36.8356007 12.5905891,35.6104618 C12.2668405,34.6935468 12.54058,33.671937 13.279412,33.0397397 L21.5331383,25.9772634 C22.4011358,25.2345429 22.9886245,24.2169827 23.1978406,23.0939145 L25.1872613,12.4147397 C25.4252074,11.1374494 26.6535492,10.2948944 27.9308395,10.5328405 Z"></path></clipPath></defs><g transform="translate(-773.0 -197.0)"><g clip-path="url(#i0)"><g transform="translate(773.3431457505112 197.5)"><g transform="translate(22.794819024439676 0.0)"><g clip-path="url(#i1)"><path d="M100,0 L558.72407,0 L558.72407,0 L558.72407,548 L0,548 L0,100 C-2.09743922e-14,44.771525 44.771525,1.01453063e-14 100,0 Z" stroke="#CDD8E2" stroke-width="2" fill="none" stroke-miterlimit="5" stroke-dasharray=" 6.0 6.0"></path></g><g transform="translate(18.862035225049112 18.5)"><g clip-path="url(#i2)"><polygon points="0,0 521,0 521,511 0,511 0,0" stroke="none" fill="#F1F4F9"></polygon></g></g><g transform="translate(51.86203522504911 131.5)"><g clip-path="url(#i3)"><polygon points="0,0 455,0 455,24 0,24 0,0" stroke="none" fill="#E4E6EF"></polygon></g></g><g transform="translate(51.86203522504911 171.5)"><g clip-path="url(#i3)"><polygon points="0,0 455,0 455,24 0,24 0,0" stroke="none" fill="#E4E6EF"></polygon></g></g><g transform="translate(51.86203522504911 267.5)"><g clip-path="url(#i4)"><polygon points="0,0 455,0 455,159 0,159 0,0" stroke="none" fill="#E4E6EF"></polygon></g></g><g transform="translate(297.8620352250491 211.5)"><g clip-path="url(#i5)"><polygon points="0,0 209,0 209,24 0,24 0,0" stroke="none" fill="#E4E6EF"></polygon></g></g><g transform="translate(180.8620352250491 458.5)"><g clip-path="url(#i6)"><polygon points="0,0 326,0 326,24 0,24 0,0" stroke="none" fill="#E4E6EF"></polygon></g></g><g transform="translate(446.8620352250491 72.5)"><g clip-path="url(#i7)"><polygon points="0,0 60,0 60,43 0,43 0,0" stroke="none" fill="#E4E6EF"></polygon></g></g></g><g transform="translate(50.97056274847637 12.8431457505068) rotate(44.99999999999999)"><g clip-path="url(#i8)"><polygon points="0,-9.09494702e-13 24,-9.09494702e-13 24,24 0,24 0,-9.09494702e-13" stroke="none" fill="#F3C231"></polygon></g></g><g transform="translate(16.970562748477278 430.8431457505068) rotate(44.99999999999999)"><g clip-path="url(#i9)"><polygon points="0,0 24,0 24,24 0,24 0,0" stroke="none" fill="#FFCB5E"></polygon></g></g><g transform="translate(559.1568542494897 51.0)"><g clip-path="url(#i10)"><polygon points="10.0855182,10.0855182 33.9144818,10.0855182 33.9144818,33.9144818 10.0855182,33.9144818 10.0855182,10.0855182" stroke="none" fill="#05DFA2"></polygon></g></g><g transform="translate(354.3533959596615 510.6589145413877) rotate(31.0)"><g clip-path="url(#i11)"><polygon points="12.4562628,10.4926328 42.5436712,10.4926328 42.5436712,37.1803784 12.4562628,37.1803784 12.4562628,10.4926328" stroke="none" fill="#2360FF"></polygon></g></g></g></g></g></svg>