<?xml version="1.0" encoding="UTF-8"?><svg version="1.1" width="64px" height="66px" viewBox="0 0 64.0 66.0" xmlns="http://www.w3.org/2000/svg" xmlns:xlink="http://www.w3.org/1999/xlink"><defs><clipPath id="i0"><path d="M2584,0 L2584,711 L0,711 L0,0 L2584,0 Z"></path></clipPath><clipPath id="i1"><path d="M38.1176471,0 C42.5359251,-8.11624501e-16 46.1176471,3.581722 46.1176471,8 L46.1176471,48 C46.1176471,52.418278 42.5359251,56 38.1176471,56 L8,56 C3.581722,56 -1.23527384e-15,52.418278 0,48 L0,8 C-5.41083001e-16,3.581722 3.581722,8.11624501e-16 8,0 L38.1176471,0 Z"></path></clipPath><clipPath id="i2"><path d="M17,0 L31.7224319,8.5 L31.7224319,25.5 L17,34 L2.27756814,25.5 L2.27756814,8.5 L17,0 Z"></path></clipPath><clipPath id="i3"><path d="M6.34835876,0 C9.85446049,0 12.6967175,2.84225703 12.6967175,6.34835876 C12.6967175,9.85446049 9.85446049,12.6967175 6.34835876,12.6967175 C2.84225703,12.6967175 0,9.85446049 0,6.34835876 C0,2.84225703 2.84225703,0 6.34835876,0 Z"></path></clipPath></defs><g transform="translate(-566.0 -481.0)"><g clip-path="url(#i0)"><g transform="translate(566.3755971118535 481.60782752448904)"><g clip-path="url(#i1)"><polygon points="0,0 46.1176471,0 46.1176471,56 0,56 0,0" stroke="none" fill="#E2E2E2"></polygon></g><g transform="translate(13.176470588235134 14.823529411763047)"><path d="M0,1.64705882 L19.7647059,1.64705882" stroke="#16B09F" stroke-width="4" fill="none" stroke-linecap="round" stroke-miterlimit="10"></path></g><g transform="translate(13.176470588235134 29.0)"><path d="M0,0.647058824 L13.4577322,0.647058824" stroke="#16B09F" stroke-width="4" fill="none" stroke-linecap="round" stroke-miterlimit="10"></path></g><g transform="translate(29.117647058823422 30.509721470905788)"><g clip-path="url(#i2)"><polygon points="2.27756814,0 31.7224319,0 31.7224319,34 2.27756814,34 2.27756814,0" stroke="none" fill="#16B09F"></polygon></g></g><g transform="translate(39.7692883015261 41.16136271361029)"><g clip-path="url(#i3)"><polygon points="0,0 12.6967175,0 12.6967175,12.6967175 0,12.6967175 0,0" stroke="none" fill="#FFFFFF"></polygon></g></g></g></g></g></svg>