<?xml version="1.0" encoding="UTF-8"?><svg version="1.1" width="50px" height="57px" viewBox="0 0 50.0 57.0" xmlns="http://www.w3.org/2000/svg" xmlns:xlink="http://www.w3.org/1999/xlink"><defs><clipPath id="i0"><path d="M2584,0 L2584,711 L0,711 L0,0 L2584,0 Z"></path></clipPath><clipPath id="i1"><path d="M27.8269231,0 C39.6605798,0 49.2760597,9.55621339 49.467186,21.4176424 L49.4700855,21.7777778 C49.4700855,23.495997 48.0858036,24.8888889 46.3782052,24.8888889 L3.09188035,24.8888889 C1.44316468,24.8888889 0.0958521657,23.5904023 0.00489448386,21.9543203 L0,21.7777778 C0,9.75024323 9.68997388,0 21.6431624,0 L27.8269231,0 Z"></path></clipPath><clipPath id="i2"><path d="M27.8269231,0 C39.7801117,0 49.4700855,9.75024323 49.4700855,21.7777778 C49.4700855,23.495997 48.0858036,24.8888889 46.3782052,24.8888889 L3.09188035,24.8888889 C1.38428198,24.8888889 0,23.495997 0,21.7777778 C0,9.75024323 9.68997388,0 21.6431624,0 L27.8269231,0 Z"></path></clipPath><clipPath id="i3"><path d="M33,0 L33,30 L0,30 L0,0 L33,0 Z"></path></clipPath><clipPath id="i4"><path d="M15.4594017,0 C19.55949,0 23.4916493,1.63888418 26.3908495,4.55611674 C29.2900497,7.47334929 30.9188035,11.4299657 30.9188035,15.5555556 C30.9188035,24.1466517 23.9973935,31.1111111 15.4594017,31.1111111 C6.92140991,31.1111111 0,24.1466517 0,15.5555556 C0,6.96445945 6.92140991,0 15.4594017,0 Z"></path></clipPath></defs><g transform="translate(-212.0 -485.0)"><g clip-path="url(#i0)"><g transform="translate(212.26495723076923 485.86268825994296)"><g transform="translate(9.2756410384618 23.707964311487558)"><g transform="translate(0.0 3.219026766386496)"><path d="M0,1.07300892 L8.58407138,1.07300892" stroke="#FFFFFF" stroke-width="2" fill="none" stroke-linecap="round" stroke-linejoin="round"></path></g><g transform="translate(3.2190267663851024 0.0)"><path d="M1.07300892,0 L1.07300892,8.58407138" stroke="#FFFFFF" stroke-width="2" fill="none" stroke-linecap="round" stroke-linejoin="round"></path></g></g><g transform="translate(0.0 31.111111111111313)"><g clip-path="url(#i1)"><polygon points="0,0 49.4700855,0 49.4700855,24.8888889 0,24.8888889 0,0" stroke="none" fill="#2BA9BC"></polygon></g></g><g transform="translate(0.0 31.111111111111313)"><g clip-path="url(#i2)"><polygon points="0,0 49.4700855,0 49.4700855,24.8888889 0,24.8888889 0,0" stroke="none" fill="#16B09F"></polygon><g transform="translate(-8.264957230769141 -2.5555555555556566)"><g clip-path="url(#i3)"><polygon points="8.26495723,2.55555556 33,2.55555556 33,27.4444444 8.26495723,27.4444444 8.26495723,2.55555556" stroke="none" fill="#1FD2BE"></polygon></g></g></g></g><g transform="translate(9.2756410384618 0.0)"><g clip-path="url(#i4)"><polygon points="0,0 30.9188035,0 30.9188035,31.1111111 0,31.1111111 0,0" stroke="none" fill="#E2E2E2"></polygon></g></g><g transform="translate(9.2756410384618 41.36470997968081)"><g transform="translate(0.0 3.219026766386496)"><path d="M0,1.07300892 L8.58407138,1.07300892" stroke="#FFFFFF" stroke-width="2" fill="none" stroke-linecap="round" stroke-linejoin="round"></path></g><g transform="translate(3.2190267663851024 0.0)"><path d="M1.07300892,0 L1.07300892,8.58407138" stroke="#FFFFFF" stroke-width="2" fill="none" stroke-linecap="round" stroke-linejoin="round"></path></g></g></g></g></g></svg>