<svg xmlns:xlink="http://www.w3.org/1999/xlink" data-v-0d24a55f="" width="20" height="20" viewBox="0 0 20 20" fill="none" xmlns="http://www.w3.org/2000/svg"><g data-v-0d24a55f="" id="CodeBlock" fill="none"><path data-v-0d24a55f="" id="Vector" d="M4.55782 7.94217L2.05782 5.44217C1.99971 5.38412 1.95361 5.31519 1.92215 5.23932C1.8907 5.16345 1.87451 5.08212 1.87451 4.99998C1.87451 4.91785 1.8907 4.83652 1.92215 4.76064C1.95361 4.68477 1.99971 4.61584 2.05782 4.55779L4.55782 2.05779C4.67509 1.94052 4.83415 1.87463 5 1.87463C5.16586 1.87463 5.32492 1.94052 5.44219 2.05779C5.55947 2.17507 5.62535 2.33413 5.62535 2.49998C5.62535 2.66583 5.55947 2.82489 5.44219 2.94217L3.3836 4.99998L5.44219 7.05779C5.55947 7.17507 5.62535 7.33413 5.62535 7.49998C5.62535 7.66583 5.55947 7.82489 5.44219 7.94217C5.32491 8.05944 5.16586 8.12533 5 8.12533C4.83415 8.12533 4.67509 8.05944 4.55782 7.94217ZM7.68282 7.94217C7.74086 8.00028 7.80979 8.04638 7.88567 8.07783C7.96154 8.10928 8.04287 8.12547 8.125 8.12547C8.20714 8.12547 8.28847 8.10928 8.36434 8.07783C8.44021 8.04638 8.50914 8.00028 8.56719 7.94217L11.0672 5.44217C11.1253 5.38412 11.1714 5.31519 11.2029 5.23932C11.2343 5.16345 11.2505 5.08212 11.2505 4.99998C11.2505 4.91785 11.2343 4.83652 11.2029 4.76064C11.1714 4.68477 11.1253 4.61584 11.0672 4.55779L8.56719 2.05779C8.44992 1.94052 8.29086 1.87463 8.125 1.87463C7.95915 1.87463 7.80009 1.94052 7.68282 2.05779C7.56554 2.17507 7.49966 2.33413 7.49966 2.49998C7.49966 2.66583 7.56554 2.82489 7.68282 2.94217L9.74141 4.99998L7.68282 7.05779C7.6247 7.11584 7.57861 7.18477 7.54715 7.26064C7.5157 7.33652 7.49951 7.41785 7.49951 7.49998C7.49951 7.58212 7.5157 7.66345 7.54715 7.73932C7.57861 7.81519 7.6247 7.88412 7.68282 7.94217ZM15.625 3.12498H13.75C13.5842 3.12498 13.4253 3.19083 13.3081 3.30804C13.1908 3.42525 13.125 3.58422 13.125 3.74998C13.125 3.91574 13.1908 4.07471 13.3081 4.19192C13.4253 4.30913 13.5842 4.37498 13.75 4.37498H15.625V15.625H4.375V10.625C4.375 10.4592 4.30915 10.3003 4.19194 10.183C4.07473 10.0658 3.91576 9.99998 3.75 9.99998C3.58424 9.99998 3.42527 10.0658 3.30806 10.183C3.19085 10.3003 3.125 10.4592 3.125 10.625V15.625C3.125 15.9565 3.2567 16.2744 3.49112 16.5089C3.72554 16.7433 4.04348 16.875 4.375 16.875H15.625C15.9565 16.875 16.2745 16.7433 16.5089 16.5089C16.7433 16.2744 16.875 15.9565 16.875 15.625V4.37498C16.875 4.04346 16.7433 3.72552 16.5089 3.4911C16.2745 3.25668 15.9565 3.12498 15.625 3.12498Z" fill="#1F1F1F"></path></g></svg>