<?xml version="1.0" encoding="UTF-8"?><svg version="1.1" width="72px" height="52px" viewBox="0 0 72.0 52.0" xmlns="http://www.w3.org/2000/svg" xmlns:xlink="http://www.w3.org/1999/xlink"><defs><clipPath id="i0"><path d="M1204,0 L1204,711 L0,711 L0,0 L1204,0 Z"></path></clipPath><clipPath id="i1"><path d="M3,0 L3,57 L0,57 L0,0 L3,0 Z"></path></clipPath><clipPath id="i2"><path d="M54.1698144,0 C58.5880924,3.11259467e-15 62.1698144,3.581722 62.1698144,8 L62.1698144,34.5372414 C62.1698144,38.9555194 58.5880924,42.5372414 54.1698144,42.5372414 L8,42.5372414 C3.581722,42.5372414 2.68894533e-15,38.9555194 0,34.5372414 L0,8 C-5.41083001e-16,3.581722 3.581722,8.11624501e-16 8,0 L54.1698144,0 Z"></path></clipPath><clipPath id="i3"><path d="M1.75,0 C2.71649831,-1.7754286e-16 3.5,0.783501688 3.5,1.75 L3.5,16.25 C3.5,17.2164983 2.71649831,18 1.75,18 C0.783501688,18 1.18361906e-16,17.2164983 0,16.25 L0,1.75 C-1.18361906e-16,0.783501688 0.783501688,1.7754286e-16 1.75,0 Z"></path></clipPath><clipPath id="i4"><path d="M16,0 C24.836556,0 32,7.163444 32,16 C32,24.836556 24.836556,32 16,32 C7.163444,32 0,24.836556 0,16 C0,7.163444 7.163444,0 16,0 Z"></path></clipPath><clipPath id="i5"><path d="M9.83598328,0.0706272332 C10.0890814,0.201257504 10.2252282,0.484962136 10.1694532,0.765516867 L9.0028444,6.6318363 L13.5870593,8.36073938 C13.7860074,8.43576631 13.9345975,8.6057051 13.9831518,8.81374044 C14.031706,9.02177579 13.9738177,9.240458 13.8288407,9.39667547 L4.91978524,18.9966647 C4.72567399,19.2058226 4.41711175,19.2600037 4.16401257,19.1293723 C3.91091339,18.998741 3.77476739,18.7150339 3.83054523,18.4344783 L4.99715401,12.5681588 L0.412940694,10.839255 C0.213992568,10.764228 0.0654024741,10.5942892 0.016848249,10.3862539 C-0.031705976,10.1782185 0.0261822663,9.95953634 0.171159313,9.80331887 L9.08021317,0.203332888 C9.27432466,-0.00582291051 9.58288514,-0.0600030379 9.83598328,0.0706272332 Z"></path></clipPath></defs><g transform="translate(-620.0 -180.0)"><g clip-path="url(#i0)"><g transform="translate(620.0 180.46275858498302)"><g transform="translate(59.43859535444153 10.183553248472888) rotate(90.0)"><g clip-path="url(#i1)"><polygon points="0,0 3,0 3,57 0,57 0,0" stroke="none" fill="#000000"></polygon></g></g><g clip-path="url(#i2)"><path d="M8,0 L54.1698144,0 C58.5880924,3.11259467e-15 62.1698144,3.581722 62.1698144,8 L62.1698144,34.5372414 C62.1698144,38.9555194 58.5880924,42.5372414 54.1698144,42.5372414 L8,42.5372414 C3.581722,42.5372414 2.68894533e-15,38.9555194 0,34.5372414 L0,8 C-5.41083001e-16,3.581722 3.581722,8.11624501e-16 8,0 Z" stroke="#000000" stroke-width="6" fill="none" stroke-miterlimit="5"></path></g><g transform="translate(26.131402053684724 28.376359947716992) rotate(90.0)"><g clip-path="url(#i3)"><polygon points="0,0 3.5,0 3.5,18 0,18 0,0" stroke="none" fill="#16B09F"></polygon></g></g><g transform="translate(37.99999999999818 17.53724141501698)"><g clip-path="url(#i4)"><polygon points="0,0 32,0 32,32 0,32 0,0" stroke="none" fill="#16B09F"></polygon></g><path d="M16,32 C24.836556,32 32,24.836556 32,16 C32,7.163444 24.836556,0 16,0 C7.163444,0 0,7.163444 0,16 C0,24.836556 7.163444,32 16,32 Z" stroke="#FFFFFF" stroke-width="4" fill="none" stroke-miterlimit="10"></path></g><g transform="translate(47.0 23.53724141501607)"><g clip-path="url(#i5)"><polygon points="-1.51991306e-16,2.42900449e-18 14,2.42900449e-18 14,19.2 -1.51991306e-16,19.2 -1.51991306e-16,2.42900449e-18" stroke="none" fill="#FFFFFF"></polygon></g></g></g></g></g></svg>