<?xml version="1.0" encoding="UTF-8"?><svg version="1.1" width="67px" height="57px" viewBox="0 0 67.0 57.0" xmlns="http://www.w3.org/2000/svg" xmlns:xlink="http://www.w3.org/1999/xlink"><defs><clipPath id="i0"><path d="M2584,0 L2584,711 L0,711 L0,0 L2584,0 Z"></path></clipPath><clipPath id="i1"><path d="M38.1176471,0 C42.5359251,-8.11624501e-16 46.1176471,3.581722 46.1176471,8 L46.1176471,48 C46.1176471,52.418278 42.5359251,56 38.1176471,56 L8,56 C3.581722,56 -1.23527384e-15,52.418278 0,48 L0,8 C-5.41083001e-16,3.581722 3.581722,8.11624501e-16 8,0 L38.1176471,0 Z"></path></clipPath><clipPath id="i2"><path d="M17.3856621,7.22587512 L25.7741249,15.6143379 L9.97081106,31.4194853 L0,33 L1.58051474,23.0291889 L17.3856621,7.22587512 Z M31.2655885,1.73441151 C32.3784234,2.84654899 33.0036662,4.35534976 33.0036662,5.9286429 C33.0036662,7.50193603 32.3784234,9.0107368 31.2655885,10.1228743 L28.3667558,13.0143728 L19.9856272,4.63324422 L22.8844599,1.73441151 C25.1996049,-0.578137169 28.9504435,-0.578137169 31.2655885,1.73441151 Z"></path></clipPath><clipPath id="i3"><path d="M13.176,0 L13.176,16.779 L9.97081106,19.9855441 L0,21.5660588 L1.58051474,11.5952478 L13.176,0 Z"></path></clipPath></defs><g transform="translate(-471.0 -485.0)"><g clip-path="url(#i0)"><g transform="translate(471.1657972307696 485.86268825994284)"><g clip-path="url(#i1)"><polygon points="0,0 46.1176471,0 46.1176471,56 0,56 0,0" stroke="none" fill="#16B09F"></polygon></g><g transform="translate(13.176470588235134 14.823529411763957)"><path d="M0,1.64705882 L19.7647059,1.64705882" stroke="#FFFFFF" stroke-width="4" fill="none" stroke-linecap="round" stroke-miterlimit="10"></path></g><g transform="translate(13.176470588235134 29.0)"><path d="M0,0.647058824 L13.4577322,0.647058824" stroke="#FFFFFF" stroke-width="4" fill="none" stroke-linecap="round" stroke-miterlimit="10"></path></g><g transform="translate(12.905336678732965 41.823529411764866)"><path d="M0,0.647058824 L13.4577322,0.647058824" stroke="#FFFFFF" stroke-width="4" fill="none" stroke-linecap="round" stroke-miterlimit="10"></path></g><g transform="translate(32.94117647058829 14.647058823529733)"><g clip-path="url(#i2)"><polygon points="0,2.22044605e-16 33.0036662,2.22044605e-16 33.0036662,33 0,33 0,2.22044605e-16" stroke="none" fill="#E2E2E2"></polygon></g></g><g transform="translate(32.94117647058829 26.08100000000013)"><g clip-path="url(#i3)"><polygon points="0,0 13.176,0 13.176,21.5660588 0,21.5660588 0,0" stroke="none" fill="#099B8A"></polygon></g></g></g></g></g></svg>