<?xml version="1.0" encoding="UTF-8"?><svg version="1.1" width="58px" height="65px" viewBox="0 0 58.0 65.0" xmlns="http://www.w3.org/2000/svg" xmlns:xlink="http://www.w3.org/1999/xlink"><defs><clipPath id="i0"><path d="M1204,0 L1204,711 L0,711 L0,0 L1204,0 Z"></path></clipPath><clipPath id="i1"><path d="M37.2641094,0 C39.9154963,0 42.4585445,0.876362611 44.3333836,2.43632012 C46.2085863,3.99624738 47.2618155,6.11197359 47.2618155,8.31807952 L47.2618155,50.6646662 C47.2636151,51.076638 47.1287372,51.4807454 46.8724328,51.8331295 C46.6157649,52.1852111 46.2471229,52.4716555 45.8075882,52.6610053 C45.4174966,52.8391634 44.9801432,52.9326284 44.5351552,52.9332333 C43.9803744,52.924159 43.4397721,52.788045 42.9718803,52.540015 L23.6308987,41.3181695 L4.28991699,52.540015 C3.86270669,52.7562851 3.37220195,52.8709233 2.87206307,52.8709233 C2.37192419,52.8709233 1.88141944,52.7562851 1.45420915,52.540015 C1.03579682,52.360647 0.681333341,52.092956 0.426155991,51.7638626 C0.170978641,51.4347691 0.0240308062,51.0557671 0,50.6646662 L0,8.31807952 C0,6.11197359 1.05332004,3.99624738 2.92826825,2.43632012 C4.80318011,0.876362611 7.34611929,0 9.99768789,0 L37.2641094,0 Z M39.2273068,2.83570893 L8.03450863,2.83570893 C6.65570377,2.83570893 5.33337866,3.28642443 4.35841656,4.08867749 C3.38345446,4.89093055 2.83570893,5.97901322 2.83570893,7.11357057 L2.83570893,50.0975244 L21.8425206,39.2146444 C22.369471,38.919643 22.9937428,38.7642711 23.6309077,38.7697467 C24.2680726,38.7642711 24.8923445,38.919643 25.4192948,39.2146444 L44.4261065,50.0975244 L44.4261065,7.11357057 C44.4261065,5.97901322 43.878361,4.89093055 42.9034821,4.08867749 C41.9286032,3.28642443 40.6060285,2.83570893 39.2273068,2.83570893 Z"></path></clipPath><clipPath id="i2"><path d="M1.65416354,0 C2.56773284,-1.67819957e-16 3.30832708,0.740594244 3.30832708,1.65416354 L3.30832708,21.0315079 C3.30832708,21.9450772 2.56773284,22.6856714 1.65416354,22.6856714 C0.740594244,22.6856714 1.222103e-15,21.9450772 0,21.0315079 L0,1.65416354 C-1.11879972e-16,0.740594244 0.740594244,1.67819957e-16 1.65416354,0 Z"></path></clipPath><clipPath id="i3"><path d="M1.65416354,0 C2.56773284,-1.67819957e-16 3.30832708,0.740594244 3.30832708,1.65416354 L3.30832708,21.0315079 C3.30832708,21.9450772 2.56773284,22.6856714 1.65416354,22.6856714 C0.740594244,22.6856714 -1.22038766e-15,21.9450772 0,21.0315079 L0,1.65416354 C-1.11879972e-16,0.740594244 0.740594244,1.67819957e-16 1.65416354,0 Z"></path></clipPath><clipPath id="i4"><path d="M15.1237809,0 C23.4764145,0 30.2475619,6.77114737 30.2475619,15.1237809 C30.2475619,23.4764145 23.4764145,30.2475619 15.1237809,30.2475619 C6.77114737,30.2475619 0,23.4764145 0,15.1237809 C0,6.77114737 6.77114737,0 15.1237809,0 Z"></path></clipPath></defs><g transform="translate(-717.0 -167.0)"><g clip-path="url(#i0)"><g transform="translate(717.0 167.0)"><g clip-path="url(#i1)"><polygon points="0,0 47.2618332,0 47.2618332,52.9332333 0,52.9332333 0,0" stroke="none" fill="#000000"></polygon></g><g transform="translate(34.98064316301344 10.245528395500473) rotate(90.0)"><g clip-path="url(#i2)"><polygon points="0,0 3.30832708,0 3.30832708,22.6856714 0,22.6856714 0,0" stroke="none" fill="#16B09F"></polygon></g></g><g transform="translate(34.980643163013454 19.697891486272937) rotate(90.0)"><g clip-path="url(#i3)"><polygon points="0,0 3.30832708,0 3.30832708,22.6856714 0,22.6856714 0,0" stroke="none" fill="#16B09F"></polygon></g></g><g transform="translate(25.75243810952668 31.780945236309456)"><g clip-path="url(#i4)"><polygon points="0,0 30.2475619,0 30.2475619,30.2475619 0,30.2475619 0,0" stroke="none" fill="#16B09F"></polygon></g><path d="M15.1237809,30.2475619 C23.4764145,30.2475619 30.2475619,23.4764145 30.2475619,15.1237809 C30.2475619,6.77114737 23.4764145,0 15.1237809,0 C6.77114737,0 0,6.77114737 0,15.1237809 C0,23.4764145 6.77114737,30.2475619 15.1237809,30.2475619 Z" stroke="#FFFFFF" stroke-width="4" fill="none" stroke-miterlimit="10"></path><g transform="translate(9.839909977495427 9.83990997749424)"><g transform="translate(0.0 3.962915862657949)"><path d="M0,1.32097195 L10.5677756,1.32097195" stroke="#FFFFFF" stroke-width="2.5" fill="none" stroke-linecap="round" stroke-linejoin="round"></path></g><g transform="translate(3.9629158626562297 0.0)"><path d="M1.32097195,0 L1.32097195,10.5677756" stroke="#FFFFFF" stroke-width="2.5" fill="none" stroke-linecap="round" stroke-linejoin="round"></path></g></g></g></g></g></g></svg>