<svg xmlns:xlink="http://www.w3.org/1999/xlink" xmlns="http://www.w3.org/2000/svg" viewBox="0 0 24 24" fill="currentColor" aria-hidden="true" width="24"  height="24" ><g clip-path="url(#clip0_2708_19647)" fill="#1F1F1F"><path fill-rule="evenodd" d="M12.156 2.96c-.608 0-1.11.498-1.11 1.122 0 .623.502 1.12 1.11 1.12.609 0 1.11-.497 1.11-1.12 0-.624-.501-1.121-1.11-1.121zm-2.61 1.122a2.615 2.615 0 012.61-2.621 2.615 2.615 0 012.61 2.62 2.615 2.615 0 01-2.61 2.622 2.615 2.615 0 01-2.61-2.621z" clip-rule="evenodd" fill="#1F1F1F"></path> <path fill-rule="evenodd" d="M12.156 5.21a.75.75 0 01.75.75v2.483a.75.75 0 11-1.5 0V5.96a.75.75 0 01.75-.75z" clip-rule="evenodd" fill="#1F1F1F"></path> <path fill-rule="evenodd" d="M4.441 10.727a2.75 2.75 0 012.75-2.75h9.626a2.75 2.75 0 012.75 2.75v9.061a2.75 2.75 0 01-2.75 2.75H7.19a2.75 2.75 0 01-2.75-2.75v-9.06zm2.75-1.25c-.69 0-1.25.56-1.25 1.25v9.061c0 .69.56 1.25 1.25 1.25h9.626c.69 0 1.25-.56 1.25-1.25v-9.06c0-.69-.56-1.25-1.25-1.25H7.19zM2.207 11.833a.75.75 0 01.75.75v5.35a.75.75 0 01-1.5 0v-5.35a.75.75 0 01.75-.75zM21.793 11.833a.75.75 0 01.75.75v5.35a.75.75 0 01-1.5 0v-5.35a.75.75 0 01.75-.75z" clip-rule="evenodd" fill="#1F1F1F"></path> <path d="M9.128 16.481a1.22 1.22 0 001.216-1.223 1.22 1.22 0 00-1.216-1.224 1.22 1.22 0 00-1.216 1.224 1.22 1.22 0 001.216 1.223zM14.868 16.481a1.22 1.22 0 001.217-1.223 1.22 1.22 0 00-1.217-1.224 1.22 1.22 0 00-1.216 1.224 1.22 1.22 0 001.216 1.223z" fill="#1F1F1F"></path></g> <defs><clipPath id="clip0_2708_19647"><path d="M0 0h21v21H0z" transform="translate(1.5 1.5)"></path></clipPath></defs></svg>