<?xml version="1.0" encoding="UTF-8"?><svg version="1.1" width="67px" height="63px" viewBox="0 0 67.0 63.0" xmlns="http://www.w3.org/2000/svg" xmlns:xlink="http://www.w3.org/1999/xlink"><defs><clipPath id="i0"><path d="M2584,0 L2584,711 L0,711 L0,0 L2584,0 Z"></path></clipPath><clipPath id="i1"><path d="M28,0 C43.46384,0 56,12.53602 56,28 C56,43.46384 43.46384,56 28,56 C12.53602,56 0,43.46384 0,28 C0,12.53602 12.53602,0 28,0 Z"></path></clipPath><clipPath id="i2"><path d="M0.909322941,0 C2.09026183,0 3.33024765,0.637706998 4.41671143,1.78321772 C5.43231887,2.8578721 6.08183526,4.19233304 6.08183526,5.16070293 C6.08183526,5.66850665 5.66850665,6.08183526 5.16070293,6.08183526 C4.6528992,6.08183526 4.25137998,5.66850665 4.25137998,5.17251231 C4.25137998,4.73556493 3.8144326,3.82624199 3.08225049,3.03501293 C2.36187777,2.26740266 1.57064872,1.81864588 0.909322941,1.81864588 C0.401519221,1.81864588 0,1.40531727 0,0.909322941 C0,0.41332861 0.41332861,0 0.909322941,0 Z"></path></clipPath><clipPath id="i3"><path d="M0.897513552,0 C6.09364464,0 10.3214059,4.22776121 10.3214059,9.4238923 C10.3214059,9.91988663 9.90807724,10.3332152 9.41208291,10.3332152 C8.90427919,10.3332152 8.50275997,9.91988663 8.50275997,9.4238923 C8.50275997,5.23155926 5.08984659,1.83045527 0.909322941,1.83045527 C0.401519221,1.83045527 0,1.41712666 0,0.92113233 C0,0.425137998 0.401519221,0 0.897513552,0 Z"></path></clipPath><clipPath id="i4"><path d="M5.5645,0 C5.9985,0 6.4325,0.093 6.82,0.279 C7.223,0.465 7.5795,0.744 7.8585,1.147 L11.4545,6.2155 C11.7335,6.603 11.935,6.9595 12.0745,7.3005 C12.214,7.626 12.2915,7.9515 12.2915,8.246 C12.2915,8.618 12.183,8.99 11.966,9.3465 C11.7645,9.703 11.47,10.075 11.098,10.447 L9.92,11.6715 C9.7495,11.842 9.672,12.0435 9.672,12.2915 C9.672,12.4155 9.6875,12.524 9.7185,12.648 C9.765,12.772 9.8115,12.865 9.8425,12.958 C10.1215,13.4695 10.602,14.136 11.284,14.942 C11.9815,15.748 12.7255,16.5695 13.5315,17.391 C14.0895,17.9335 14.632,18.4605 15.1745,18.9255 L10.106,23.994 C9.548,23.498 9.0055,22.9865 8.4785,22.4595 C6.882,20.8475 5.4405,19.158 4.154,17.391 C2.883,15.624 1.86,13.857 1.116,12.1055 C0.372,10.3385 0,8.649 0,7.037 C0,5.983 0.186,4.9755 0.558,4.0455 C0.93,3.1 1.519,2.232 2.3405,1.457 C3.3325,0.4805 4.4175,0 5.5645,0 Z"></path></clipPath><clipPath id="i5"><path d="M10.9119845,0 C11.2064845,0 11.5164845,0.062 11.8574845,0.2015 C12.1984845,0.341 12.5549845,0.5425 12.9424845,0.806 L18.0729845,4.4485 C18.4759845,4.7275 18.7549845,5.053 18.9254845,5.4405 C19.0804845,5.828 19.1734845,6.2155 19.1734845,6.6495 C19.1734845,7.0835 19.0959845,7.533 18.9409845,7.967 C18.8944845,8.091 18.8479845,8.215 18.7859845,8.339 C18.5224845,8.897 18.1814845,9.424 17.7319845,9.92 C16.9724845,10.757 16.1354845,11.3615 15.1899845,11.749 C15.1744845,11.749 15.1589845,11.7645 15.1434845,11.7645 C14.2289845,12.1365 13.2369845,12.338 12.1674845,12.338 C10.5864845,12.338 8.8969845,11.966 7.1144845,11.2065 C5.3319845,10.447 3.5494845,9.424 1.7824845,8.1375 C1.1779845,7.688 0.5735,7.2385 0,6.758 L5.0684845,1.6895 C5.5024845,2.015 5.8899845,2.263 6.2154845,2.4335 C6.2929845,2.4645 6.3859845,2.511 6.4944845,2.5575 C6.6184845,2.604 6.7424845,2.6195 6.8819845,2.6195 C7.1454845,2.6195 7.3469845,2.5265 7.5174845,2.356 L8.6954845,1.1935 C9.0829845,0.806 9.4549845,0.5115 9.8114845,0.3255 C10.1679845,0.1085 10.5244845,0 10.9119845,0 Z"></path></clipPath><clipPath id="i6"><path d="M15.5,0 L28.9233938,7.75 L28.9233938,23.25 L15.5,31 L2.07660624,23.25 L2.07660624,7.75 L15.5,0 Z"></path></clipPath><clipPath id="i7"><path d="M-3.04042019e-13,-3.67912322e-13 C9.27569047,2.93163299 16.4634498,10.5627046 18.7692324,20.0992915 L13.4240103,23.1847001 L0.000616534483,15.4347001 L-3.04042019e-13,-3.67912322e-13 Z"></path></clipPath></defs><g transform="translate(-42.0 -604.0)"><g clip-path="url(#i0)"><g transform="translate(42.83956645728904 604.0638252408589)"><g transform="translate(0.0 6.5184739642872955)"><g clip-path="url(#i1)"><polygon points="0,0 56,0 56,56 0,56 0,0" stroke="none" fill="#16B09F"></polygon></g></g><g transform="translate(28.28967111111146 28.63818259795957)"><g clip-path="url(#i2)"><polygon points="0,0 6.08183526,0 6.08183526,6.08183526 0,6.08183526 0,0" stroke="none" fill="#FFFFFF" opacity="60%"></polygon></g></g><g transform="translate(28.301244312179733 24.386684519842635)"><g clip-path="url(#i3)"><polygon points="0,0 10.3214059,0 10.3214059,10.3332152 0,10.3332152 0,0" stroke="none" fill="#FFFFFF" opacity="60.0353423%"></polygon></g></g><g transform="translate(9.991059999999694 22.018473964287303)"><g clip-path="url(#i4)"><polygon points="0,0 15.1745,0 15.1745,23.994 0,23.994 0,0" stroke="none" fill="#FFFFFF" opacity="60.0911458%"></polygon></g></g><g transform="translate(21.77045549999938 40.680473964286364)"><g clip-path="url(#i5)"><polygon points="0,0 19.1734845,0 19.1734845,12.338 0,12.338 0,0" stroke="none" fill="#FFFFFF"></polygon></g></g><g transform="translate(34.371506366327594 0.0)"><g clip-path="url(#i6)"><polygon points="2.07660624,0 28.9233938,0 28.9233938,31 2.07660624,31 2.07660624,0" stroke="none" fill="#E2E2E2"></polygon></g></g><g transform="translate(36.447496073186 7.815299919520655)"><g clip-path="url(#i7)"><polygon points="-3.04042019e-13,-3.67912322e-13 18.7692324,-3.67912322e-13 18.7692324,23.1847001 -3.04042019e-13,23.1847001 -3.04042019e-13,-3.67912322e-13" stroke="none" fill="#099B8A"></polygon></g></g></g></g></g></svg>