<?xml version="1.0" encoding="UTF-8"?><svg version="1.1" width="63px" height="60px" viewBox="0 0 63.0 60.0" xmlns="http://www.w3.org/2000/svg" xmlns:xlink="http://www.w3.org/1999/xlink"><defs><clipPath id="i0"><path d="M1204,0 L1204,711 L0,711 L0,0 L1204,0 Z"></path></clipPath><clipPath id="i1"><path d="M54.0187805,4.04822485 L57.5861221,14.405832 C60.2955286,15.6872754 62.1698144,18.4456467 62.1698144,21.6417809 L62.1698144,48.1790223 C62.1698144,52.5973003 58.5880924,56.1790223 54.1698144,56.1790223 L8,56.1790223 C3.581722,56.1790223 2.68894533e-15,52.5973003 0,48.1790223 L0,21.6417809 C-5.41083001e-16,17.2235029 3.581722,13.6417809 8,13.6417809 L8.74651549,13.6413608 C9.26037225,13.2374132 9.84950752,12.9112011 10.5023733,12.6864014 L46.3922601,0.328522327 C49.5254331,-0.750315633 52.9399426,0.915051914 54.0187805,4.04822485 Z"></path></clipPath><clipPath id="i2"><path d="M54.1698144,0 C58.5880924,3.11259467e-15 62.1698144,3.581722 62.1698144,8 L62.1698144,34.5372414 C62.1698144,38.9555194 58.5880924,42.5372414 54.1698144,42.5372414 L8,42.5372414 C3.581722,42.5372414 2.68894533e-15,38.9555194 0,34.5372414 L0,8 C-5.41083001e-16,3.581722 3.581722,8.11624501e-16 8,0 L54.1698144,0 Z"></path></clipPath><clipPath id="i3"><path d="M3.33052577,0 C5.16992436,0 6.66105154,1.49112718 6.66105154,3.33052577 C6.66105154,5.16992436 5.16992436,6.66105154 3.33052577,6.66105154 C1.49112718,6.66105154 0,5.16992436 0,3.33052577 C0,1.49112718 1.49112718,0 3.33052577,0 Z"></path></clipPath><clipPath id="i4"><path d="M15.1237809,0 C23.4764145,0 30.2475619,6.77114737 30.2475619,15.1237809 C30.2475619,23.4764145 23.4764145,30.2475619 15.1237809,30.2475619 C6.77114737,30.2475619 0,23.4764145 0,15.1237809 C0,6.77114737 6.77114737,0 15.1237809,0 Z"></path></clipPath></defs><g transform="translate(-936.0 -106.0)"><g clip-path="url(#i0)"><g transform="translate(935.9999999999997 108.26669167291897)"><g transform="translate(0.0 1.1437971779696454)"><g clip-path="url(#i1)"><path d="M54.0187805,4.04822485 L57.5861221,14.405832 C60.2955286,15.6872754 62.1698144,18.4456467 62.1698144,21.6417809 L62.1698144,48.1790223 C62.1698144,52.5973003 58.5880924,56.1790223 54.1698144,56.1790223 L8,56.1790223 C3.581722,56.1790223 2.68894533e-15,52.5973003 0,48.1790223 L0,21.6417809 C-5.41083001e-16,17.2235029 3.581722,13.6417809 8,13.6417809 L8.74651549,13.6413608 C9.26037225,13.2374132 9.84950752,12.9112011 10.5023733,12.6864014 L46.3922601,0.328522327 C49.5254331,-0.750315633 52.9399426,0.915051914 54.0187805,4.04822485 Z" stroke="#00BC8D" stroke-width="6" fill="none" stroke-miterlimit="5"></path></g></g><g transform="translate(0.0 14.785578061176238)"><g clip-path="url(#i2)"><path d="M8,0 L54.1698144,0 C58.5880924,3.11259467e-15 62.1698144,3.581722 62.1698144,8 L62.1698144,34.5372414 C62.1698144,38.9555194 58.5880924,42.5372414 54.1698144,42.5372414 L8,42.5372414 C3.581722,42.5372414 2.68894533e-15,38.9555194 0,34.5372414 L0,8 C-5.41083001e-16,3.581722 3.581722,8.11624501e-16 8,0 Z" stroke="#000000" stroke-width="6" fill="none" stroke-miterlimit="5"></path></g></g><g transform="translate(46.07227315348791 33.10346979690257)"><g clip-path="url(#i3)"><polygon points="0,0 6.66105154,0 6.66105154,6.66105154 0,6.66105154 0,0" stroke="none" fill="#000000"></polygon></g></g><g transform="translate(15.752438109526336 0.0)"><g clip-path="url(#i4)"><polygon points="0,0 30.2475619,0 30.2475619,30.2475619 0,30.2475619 0,0" stroke="none" fill="#00BC8D"></polygon></g><path d="M15.1237809,30.2475619 C23.4764145,30.2475619 30.2475619,23.4764145 30.2475619,15.1237809 C30.2475619,6.77114737 23.4764145,0 15.1237809,0 C6.77114737,0 0,6.77114737 0,15.1237809 C0,23.4764145 6.77114737,30.2475619 15.1237809,30.2475619 Z" stroke="#FFFFFF" stroke-width="4" fill="none" stroke-miterlimit="10"></path><g transform="translate(9.839909977495427 9.83990997749424)"><g transform="translate(0.0 3.9629158626579475)"><path d="M0,1.32097195 L10.5677756,1.32097195" stroke="#FFFFFF" stroke-width="2.5" fill="none" stroke-linecap="round" stroke-linejoin="round"></path></g><g transform="translate(3.96291586265623 0.0)"><path d="M1.32097195,0 L1.32097195,10.5677756" stroke="#FFFFFF" stroke-width="2.5" fill="none" stroke-linecap="round" stroke-linejoin="round"></path></g></g></g></g></g></g></svg>