<?xml version="1.0" encoding="UTF-8"?><svg version="1.1" width="56px" height="56px" viewBox="0 0 56.0 56.0" xmlns="http://www.w3.org/2000/svg" xmlns:xlink="http://www.w3.org/1999/xlink"><defs><clipPath id="i0"><path d="M1204,0 L1204,711 L0,711 L0,0 L1204,0 Z"></path></clipPath><clipPath id="i1"><path d="M28,0 C43.463973,0 56,12.536027 56,28 C56,43.463973 43.463973,56 28,56 C12.536027,56 0,43.463973 0,28 C0,12.536027 12.536027,0 28,0 Z"></path></clipPath></defs><g transform="translate(-517.0 -105.0)"><g clip-path="url(#i0)"><g transform="translate(517.0 105.0)"><g clip-path="url(#i1)"><path d="M28,56 C43.463973,56 56,43.463973 56,28 C56,12.536027 43.463973,0 28,0 C12.536027,0 0,12.536027 0,28 C0,43.463973 12.536027,56 28,56 Z" stroke="#000000" stroke-width="6" fill="none" stroke-miterlimit="5"></path></g><g transform="translate(17.00000000000039 15.99999999999954)"><g transform="translate(15.68817769148914 0.0) scale(-1.0 1.0)"><path d="M0,0 L15.6498343,15.6881393 L15.6881777,6.98311684" stroke="#292C31" stroke-width="3" fill="none" stroke-linecap="round" stroke-linejoin="round"></path></g><g transform="translate(22.961867065555715 7.330974830406377) scale(-1.0 1.0)"><path d="M15.6881393,15.6690252 L0.0382667004,0 L0,8.6859275" stroke="#16B09F" stroke-width="3" fill="none" stroke-linecap="round" stroke-linejoin="round"></path></g></g></g></g></g></svg>