<svg xmlns:xlink="http://www.w3.org/1999/xlink" xmlns="http://www.w3.org/2000/svg" viewBox="0 0 24 24" fill="currentColor" aria-hidden="true" width="24"  height="24" ><path fill-rule="evenodd" d="M12.47 3.75a6 6 0 00-4.2 10.284c.083-.006.168-.009.252-.009h4.832c.739 0 1.352.54 1.465 1.248A6.002 6.002 0 0012.47 3.75zm-7.5 6c0 1.827.654 3.502 1.74 4.803a3.372 3.372 0 00-1.246 1.419l-.351.753H3.02a.675.675 0 000 1.35h2.236c.437 0 .834-.253 1.02-.649l.412-.883a2.025 2.025 0 011.834-1.168h4.832c.074 0 .134.06.134.134l.004 1.216h-2.09a.675.675 0 000 1.35h3.312c.15 0 .297-.049.418-.14l4.207-3.155a.662.662 0 01.823 1.037l-4.041 3.392a4.77 4.77 0 01-3.067 1.116H3.02a.675.675 0 100 1.35h10.034a6.12 6.12 0 003.934-1.432l4.042-3.392a2.012 2.012 0 00-2.026-3.417A7.5 7.5 0 104.97 9.75zm9.871 6.708l.002.007-.002.001v-.008zm-2.41-4.536l-2.211-2.21L12.43 7.5l2.212 2.211-2.211 2.211z" clip-rule="evenodd" fill="#1F1F1F"></path></svg>