<?xml version="1.0" encoding="UTF-8"?><svg version="1.1" width="72px" height="70px" viewBox="0 0 72.0 70.0" xmlns="http://www.w3.org/2000/svg" xmlns:xlink="http://www.w3.org/1999/xlink"><defs><clipPath id="i0"><path d="M2584,0 L2584,711 L0,711 L0,0 L2584,0 Z"></path></clipPath><clipPath id="i1"><path d="M30,0 C46.5685425,-3.04359188e-15 60,13.4314575 60,30 C60,46.5685425 46.5685425,60 30,60 C13.4314575,60 2.02906125e-15,46.5685425 0,30 C-2.02906125e-15,13.4314575 13.4314575,3.04359188e-15 30,0 Z"></path></clipPath><clipPath id="i2"><path d="M16,0 C24.836556,-1.623249e-15 32,7.163444 32,16 C32,24.836556 24.836556,32 16,32 C7.163444,32 1.082166e-15,24.836556 0,16 C-1.082166e-15,7.163444 7.163444,1.623249e-15 16,0 Z"></path></clipPath><clipPath id="i3"><path d="M0.806002564,-0.0003039828 C10.2847544,3.08929326 17.6884306,10.7709631 20.3908283,20.4173115 L20.2534338,20.4562014 C18.8990433,20.8287523 17.4727593,21.0277369 16,21.0277369 C7.163444,21.0277369 1.082166e-15,13.8642929 0,5.02773687 C-2.15108618e-16,3.27124171 0.283041239,1.58085438 0.806002564,-0.0003039828 Z"></path></clipPath><clipPath id="i4"><path d="M12.8964311,0.28 C13.2697644,-0.0933333333 14.0164311,-0.0933333333 14.3897644,0.28 L24.8430977,15.5866667 C30.8164311,24.1733333 25.2164311,36.4933333 14.7630977,36.8666667 L12.5230977,36.8666667 C2.06976439,36.4933333 -3.53023561,23.8 2.44309772,15.2133333 Z"></path></clipPath><clipPath id="i5"><path d="M8.86666667,0.527973063 L7.37333333,5.75463973 C7.37333333,6.09686195 7.68703704,6.12538047 8.02688272,6.12775701 L13.72,6.12797306 C14.0933333,6.12797306 14.0933333,6.5013064 13.72,6.87463973 L6.25333333,16.2079731 C5.88,16.5813064 5.50666667,16.2079731 5.50666667,15.8346397 L6.25333333,10.9813064 C6.25333333,10.6079731 6.25333333,10.6079731 5.88,10.6079731 L0.28,10.6079731 C-0.0933333333,10.2346397 -0.0933333333,9.8613064 0.28,9.8613064 L8.12,0.15463973 C8.49333333,-0.218693603 8.86666667,0.15463973 8.86666667,0.527973063 Z"></path></clipPath></defs><g transform="translate(-1040.0 -479.0)"><g clip-path="url(#i0)"><g transform="translate(1040.6442223521938 479.11268825994284)"><g transform="translate(0.0 9.5)"><g clip-path="url(#i1)"><polygon points="0,0 60,0 60,60 0,60 0,0" stroke="none" fill="#16B09F"></polygon></g></g><g transform="translate(38.5 0.0)"><g clip-path="url(#i2)"><polygon points="0,0 32,0 32,32 0,32 0,0" stroke="none" fill="#E2E2E2"></polygon></g></g><g transform="translate(38.50000000000091 10.9722631277491)"><g clip-path="url(#i3)"><polygon points="0,-0.0003039828 20.3908283,-0.0003039828 20.3908283,21.0277369 0,21.0277369 0,-0.0003039828" stroke="none" fill="#0A9B8B"></polygon></g></g><g transform="translate(16.35690227916075 21.06666666666661)"><g clip-path="url(#i4)"><polygon points="-8.7111275e-16,3.88578059e-16 27.2861954,3.88578059e-16 27.2861954,36.8666667 -8.7111275e-16,36.8666667 -8.7111275e-16,3.88578059e-16" stroke="none" fill="#FFFFFF"></polygon></g></g><g transform="translate(22.626666666667006 34.63202693671428)"><g clip-path="url(#i5)"><polygon points="-1.66533454e-15,8.3098194e-16 14,8.3098194e-16 14,16.3626128 -1.66533454e-15,16.3626128 -1.66533454e-15,8.3098194e-16" stroke="none" fill="#1DB69A"></polygon></g></g></g></g></g></svg>