<svg xmlns:xlink="http://www.w3.org/1999/xlink" data-v-0f3553e6="" viewBox="0 0 22 22" fill="none" xmlns="http://www.w3.org/2000/svg" class="w-24px h-24px mr-16px" width="24"  height="24" ><path data-v-0f3553e6="" d="M16.9845 18.8075C15.2445 20.0825 13.152 20.765 10.9995 20.765C8.84697 20.765 6.75447 20.075 5.01447 18.8075M0.911966 11.915C0.611966 9.77 0.994466 7.58 2.00697 5.66C3.01947 3.74 4.60197 2.195 6.53697 1.25" stroke="#1F1F1F" stroke-width="1.5px" stroke-linecap="round" stroke-linejoin="round" fill="none"></path> <path data-v-0f3553e6="" d="M4.24922 9.89754L10.2942 3.85254C10.5417 3.59754 10.6617 3.48504 10.8042 3.43254C10.9317 3.39504 11.0667 3.39504 11.1867 3.43254C11.3292 3.48504 11.4492 3.60504 11.6967 3.85254L17.7417 9.89754C17.9892 10.1375 18.1092 10.265 18.1542 10.4075C18.1917 10.535 18.1917 10.6625 18.1542 10.7825C18.1092 10.925 17.9817 11.0525 17.7417 11.2925L11.6967 17.3375C11.4492 17.5925 11.3292 17.705 11.1867 17.7575C11.0592 17.795 10.9242 17.795 10.8042 17.7575C10.6617 17.705 10.5417 17.585 10.2942 17.3375L4.24922 11.3C4.00172 11.06 3.88172 10.9325 3.83672 10.79C3.79922 10.6625 3.79922 10.535 3.83672 10.415C3.88172 10.2725 4.00922 10.145 4.24922 9.90504V9.89754Z" stroke="#1F1F1F" stroke-width="1.5px" stroke-linecap="round" stroke-linejoin="round" fill="none"></path> <path data-v-0f3553e6="" d="M9.35938 11.945C9.35938 12.5975 9.84688 13.13 10.4544 13.13H11.4744C12.1194 13.13 12.6519 12.56 12.6519 11.8625C12.6519 11.165 12.1269 10.595 11.4744 10.595H10.5369C9.89187 10.595 9.35938 10.025 9.35938 9.32749C9.35938 8.62999 9.88437 8.05999 10.5369 8.05999H11.5569C12.1644 8.05999 12.6519 8.59249 12.6519 9.24499M11.0094 7.30249V8.05999M11.0094 13.1225V13.88" stroke="#1F1F1F" stroke-width="1.5px" stroke-linecap="round" stroke-linejoin="round" fill="none"></path> <path data-v-0f3553e6="" d="M15.4648 1.25C17.3998 2.2025 18.9823 3.7475 19.9948 5.66C21.0073 7.58 21.3898 9.77 21.0898 11.915" stroke="#03AAC7" stroke-width="1.5px" stroke-linecap="round" stroke-linejoin="round" fill="none"></path></svg>