<svg xmlns:xlink="http://www.w3.org/1999/xlink" data-v-0f3553e6="" viewBox="0 0 24 24" fill="none" xmlns="http://www.w3.org/2000/svg" class="w-24px h-24px mr-16px" width="24"  height="24" ><path data-v-0f3553e6="" d="M7.09998 11.55H7.84998V10.05H7.09998V11.55ZM9.59998 21.15C10.0142 21.15 10.35 20.8143 10.35 20.4C10.35 19.9858 10.0142 19.65 9.59998 19.65V21.15ZM4.59998 11.55H7.09998V10.05H4.59998V11.55ZM9.59998 19.65H4.59998V21.15H9.59998V19.65ZM4.34998 19.4V11.8H2.84998V19.4H4.34998ZM4.59998 19.65C4.4619 19.65 4.34998 19.5381 4.34998 19.4H2.84998C2.84998 20.3665 3.63348 21.15 4.59998 21.15V19.65ZM4.59998 10.05C3.63348 10.05 2.84998 10.8335 2.84998 11.8H4.34998C4.34998 11.662 4.4619 11.55 4.59998 11.55V10.05Z" fill="#03AAC7"></path> <mask data-v-0f3553e6="" id="path-2-inside-1_6054_66553" fill="#FFFFFF"><rect data-v-0f3553e6="" x="7.19995" y="3.59998" width="13.7565" height="17.5082" rx="1" fill="#FFFFFF"></rect></mask> <rect data-v-0f3553e6="" x="7.19995" y="3.59998" width="13.7565" height="17.5082" rx="1" stroke="#1F1F1F" stroke-width="1.5px" fill="none"></rect> <path data-v-0f3553e6="" d="M10.3813 7.64465H13.8725" stroke="#1F1F1F" stroke-width="1.5px" stroke-linecap="round" fill="none"></path> <path data-v-0f3553e6="" d="M10.3813 10.8H16.2" stroke="#1F1F1F" stroke-width="1.5px" stroke-linecap="round" fill="none"></path></svg>