<?xml version="1.0" encoding="UTF-8"?><svg version="1.1" width="70px" height="57px" viewBox="0 0 70.0 57.0" xmlns="http://www.w3.org/2000/svg" xmlns:xlink="http://www.w3.org/1999/xlink"><defs><clipPath id="i0"><path d="M2584,0 L2584,711 L0,711 L0,0 L2584,0 Z"></path></clipPath><clipPath id="i1"><path d="M28,0 C43.46384,0 56,12.53602 56,28 C56,43.46384 43.46384,56 28,56 C12.53602,56 0,43.46384 0,28 C0,12.53602 12.53602,0 28,0 Z"></path></clipPath><clipPath id="i2"><path d="M8,0 C12.4181333,0 16,3.58186667 16,8 C16,12.4181333 12.4181333,16 8,16 C3.58186667,16 0,12.4181333 0,8 C0,3.58186667 3.58186667,0 8,0 Z"></path></clipPath><clipPath id="i3"><path d="M15,0 C23.2842712,0 30,6.71572875 30,15 C30,23.2842712 23.2842712,30 15,30 C6.71572875,30 0,23.2842712 0,15 C0,6.71572875 6.71572875,0 15,0 Z"></path></clipPath><clipPath id="i4"><path d="M11.942017,-1.42752774e-13 C14.5785946,4.27028226 16.1,9.30212106 16.1,14.6893011 C16.1,20.0760815 14.5787928,25.107601 11.942532,29.3777059 C5.12464592,27.9657459 0,21.925986 0,14.6893011 C0,7.45367173 5.12315087,1.41461842 11.9399125,0.00168117813 Z"></path></clipPath></defs><g transform="translate(-372.0 -485.0)"><g clip-path="url(#i0)"><g transform="translate(372.0008400000006 485.86268825994284)"><g clip-path="url(#i1)"><polygon points="0,0 56,0 56,56 0,56 0,0" stroke="none" fill="#16B09F"></polygon></g><g transform="translate(20.0 20.0)"><g clip-path="url(#i2)"><polygon points="0,0 16,0 16,16 0,16 0,0" stroke="none" fill="#FFFFFF"></polygon></g></g><g transform="translate(39.899999999999636 13.0)"><g clip-path="url(#i3)"><polygon points="0,0 30,0 30,30 0,30 0,0" stroke="none" fill="#E2E2E2"></polygon></g></g><g transform="translate(39.899999999999636 13.31114706389659)"><g clip-path="url(#i4)"><polygon points="0,-1.42752774e-13 16.1,-1.42752774e-13 16.1,29.3777059 0,29.3777059 0,-1.42752774e-13" stroke="none" fill="#099B8A"></polygon></g></g></g></g></g></svg>