<svg xmlns:xlink="http://www.w3.org/1999/xlink" data-v-17b07828="" t="1687855158166" viewBox="0 0 1024 1024" version="1.1" xmlns="http://www.w3.org/2000/svg" p-id="21706" width="200" height="200" class="icon"><path data-v-17b07828="" d="M381.696 228.16a100.16 100.16 0 0 1 200.32 0h64a164.16 164.16 0 1 0-164.16 164.16v-64a100.16 100.16 0 0 1-100.16-100.16zM168.096 549.312A104.096 104.096 0 0 0 64 653.44v113.472c0 46.976 31.488 88.128 76.8 100.448l283.904 77.056a248.224 248.224 0 0 0 123.008 1.824L870.4 868.736a116.896 116.896 0 0 0-27.296-230.592H570.56a32 32 0 1 0 0 64h272.544a52.896 52.896 0 0 1 12.352 104.352l-322.688 77.472c-30.08 7.232-61.44 6.752-91.296-1.344l-283.872-77.088A40.096 40.096 0 0 1 128 766.88v-113.472c0-22.144 17.92-40.096 40.096-40.096h207.84a42.496 42.496 0 0 1 0 84.992H300.256a32 32 0 1 0 0 64h75.68a106.496 106.496 0 0 0 0-212.96H168.096z" fill="#1F1F1F" p-id="21707"></path> <path data-v-17b07828="" d="M620.544 266.688a100.16 100.16 0 1 0 0 200.32 100.16 100.16 0 0 0 0-200.32z m-164.16 100.16a164.16 164.16 0 1 1 328.32 0 164.16 164.16 0 0 1-328.32 0z" fill="#03AAC7" p-id="21708"></path></svg>