<?xml version="1.0" encoding="UTF-8"?><svg version="1.1" width="32px" height="25px" viewBox="0 0 32.0 25.0" xmlns="http://www.w3.org/2000/svg" xmlns:xlink="http://www.w3.org/1999/xlink"><defs><clipPath id="i0"><path d="M1204,0 L1204,711 L0,711 L0,0 L1204,0 Z"></path></clipPath><clipPath id="i1"><path d="M22.5,0 C23.3284271,-1.52179594e-16 24,0.671572875 24,1.5 C24,2.32842712 23.3284271,3 22.5,3 L1.5,3 C0.671572875,3 1.01453063e-16,2.32842712 0,1.5 C-1.01453063e-16,0.671572875 0.671572875,1.52179594e-16 1.5,0 L22.5,0 Z"></path></clipPath><clipPath id="i2"><path d="M30.5,0 C31.3284271,-1.52179594e-16 32,0.671572875 32,1.5 C32,2.32842712 31.3284271,3 30.5,3 L1.5,3 C0.671572875,3 1.01453063e-16,2.32842712 0,1.5 C-1.01453063e-16,0.671572875 0.671572875,1.52179594e-16 1.5,0 L30.5,0 Z"></path></clipPath><clipPath id="i3"><path d="M14.5,0 C15.3284271,-1.52179594e-16 16,0.671572875 16,1.5 C16,2.32842712 15.3284271,3 14.5,3 L1.5,3 C0.671572875,3 1.01453063e-16,2.32842712 0,1.5 C-1.01453063e-16,0.671572875 0.671572875,1.52179594e-16 1.5,0 L14.5,0 Z"></path></clipPath></defs><g transform="translate(-754.0 -79.0)"><g clip-path="url(#i0)"><g transform="translate(754.0 79.0)"><g transform="translate(8.0 0.0)"><g clip-path="url(#i1)"><polygon points="0,0 24,0 24,3 0,3 0,0" stroke="none" fill="#000000"></polygon></g></g><g transform="translate(0.0 11.0)"><g clip-path="url(#i2)"><polygon points="0,0 32,0 32,3 0,3 0,0" stroke="none" fill="#000000"></polygon></g></g><g transform="translate(16.0 22.0)"><g clip-path="url(#i3)"><polygon points="0,0 16,0 16,3 0,3 0,0" stroke="none" fill="#000000"></polygon></g></g></g></g></g></svg>