<?xml version="1.0" encoding="UTF-8"?><svg version="1.1" width="57px" height="70px" viewBox="0 0 57.0 70.0" xmlns="http://www.w3.org/2000/svg" xmlns:xlink="http://www.w3.org/1999/xlink"><defs><clipPath id="i0"><path d="M1204,0 L1204,711 L0,711 L0,0 L1204,0 Z"></path></clipPath><clipPath id="i1"><path d="M26.713763,0 C39.9905031,0 50.7561496,11.0293344 50.7561496,24.6366358 L50.7561496,43.6481202 L53.4275259,43.6481202 L53.4275259,46.4310642 L0,46.4310642 L0,43.6481202 L2.6713763,43.6481202 L2.6713763,24.6366358 C2.6713763,11.0293344 13.4370228,0 26.713763,0 Z M26.713763,3.87062505 C14.7010041,3.87062505 6.4427201,14.0437827 6.4427201,24.6366358 L6.4427201,43.6481202 L47.1605869,43.6481202 L47.1605869,24.6366358 C47.1605869,14.0437827 38.7265218,3.87062505 26.713763,3.87062505 Z"></path></clipPath><clipPath id="i2"><path d="M54.0918741,0 C55.1457029,-1.93585219e-16 56,0.854297076 56,1.90812593 C56,2.96195477 55.1457029,3.81625185 54.0918741,3.81625185 L1.90812593,3.81625185 C0.854297076,3.81625185 1.29056813e-16,2.96195477 0,1.90812593 C-1.29056813e-16,0.854297076 0.854297076,-2.84593859e-17 1.90812593,0 L54.0918741,0 Z"></path></clipPath><clipPath id="i3"><path d="M2.31625185,0 C3.14467898,-3.74224199e-16 3.81625185,0.671572875 3.81625185,1.5 L3.81625185,6.62183431 C3.81625185,7.45026143 3.14467898,8.12183431 2.31625185,8.12183431 L1.5,8.12183431 C0.671572875,8.12183431 -1.20591542e-16,7.45026143 0,6.62183431 L0,1.5 C-3.23497668e-16,0.671572875 0.671572875,3.74224199e-16 1.5,0 L2.31625185,0 Z"></path></clipPath><clipPath id="i4"><path d="M22,0 C22,6.07513225 17.0751322,11 11,11 C4.92486775,11 0,6.07513225 0,0 L22,0 Z"></path></clipPath></defs><g transform="translate(-925.0 -280.0)"><g clip-path="url(#i0)"><g transform="translate(925.9888740861206 280.5751953125)"><g transform="translate(1.286237046637325 6.190054955497544)"><g clip-path="url(#i1)"><polygon points="0,0 53.4275259,0 53.4275259,46.4310642 0,46.4310642 0,0" stroke="none" fill="#000000"></polygon></g></g><g transform="translate(0.0 48.80215207948913)"><g clip-path="url(#i2)"><polygon points="0,0 56,0 56,3.81625185 0,3.81625185 0,0" stroke="none" fill="#000000"></polygon></g></g><g transform="translate(26.0918740747602 0.0)"><g clip-path="url(#i3)"><polygon points="0,0 3.81625185,0 3.81625185,8.12183431 0,8.12183431 0,0" stroke="none" fill="#000000"></polygon></g></g><g transform="translate(17.00000000000091 57.93589842813162)"><g clip-path="url(#i4)"><polygon points="0,0 22,0 22,11 0,11 0,0" stroke="none" fill="#16B09F"></polygon></g></g></g></g></g></svg>