<?xml version="1.0" encoding="UTF-8"?><svg version="1.1" width="56px" height="57px" viewBox="0 0 56.0 57.0" xmlns="http://www.w3.org/2000/svg" xmlns:xlink="http://www.w3.org/1999/xlink"><defs><clipPath id="i0"><path d="M2584,0 L2584,711 L0,711 L0,0 L2584,0 Z"></path></clipPath><clipPath id="i1"><path d="M28,0 C43.463973,0 56,12.536027 56,28 C56,43.463973 43.463973,56 28,56 C12.536027,56 0,43.463973 0,28 C0,12.536027 12.536027,0 28,0 Z"></path></clipPath><clipPath id="i2"><path d="M5.97241271,0 L5.97241271,8.95861906 L0,8.95861906 L0,0 L5.97241271,0 Z"></path></clipPath><clipPath id="i3"><path d="M13.6618941,0 C21.2020651,0 27.8463743,6.27103334 27.8463743,13.8112044 L20.7541342,13.8112044 C20.7541342,10.1531016 17.3199969,7.09224009 13.6618941,7.09224009 C10.0784464,7.09224009 7.16689525,9.92913613 7.09224009,13.6618941 L0,13.6618941 C0.0746551589,6.19637819 6.12172303,0 13.6618941,0 Z"></path></clipPath><clipPath id="i4"><path d="M14.1844802,0 L14.1844802,4.47930953 L0,4.47930953 L0,0 L14.1844802,0 Z"></path></clipPath><clipPath id="i5"><path d="M5.97692563,0 L5.97692563,5.6108659 L0,5.6108659 L0,0 L5.97692563,0 Z"></path></clipPath><clipPath id="i6"><path d="M5.97692563,0 L5.97692563,9.92529084 L0,9.92529084 L0,0 L5.97692563,0 Z"></path></clipPath></defs><g transform="translate(-127.0 -485.0)"><g clip-path="url(#i0)"><g transform="translate(127.0 485.86268825994284)"><g clip-path="url(#i1)"><polygon points="0,0 56,0 56,56 0,56 0,0" stroke="none" fill="#16B09F"></polygon></g><g transform="translate(28.07127512849729 24.148564000976876)"><g clip-path="url(#i2)"><polygon points="0,0 5.97241271,0 5.97241271,8.95861906 0,8.95861906 0,0" stroke="none" fill="#E2E2E2"></polygon></g></g><g transform="translate(14.409381056401797 10.486669928881383)"><g clip-path="url(#i3)"><polygon points="0,0 27.8463743,0 27.8463743,13.8112044 0,13.8112044 0,0" stroke="none" fill="#FFFFFF"></polygon></g></g><g transform="translate(28.07127512849729 24.148564000976876)"><g clip-path="url(#i4)"><polygon points="0,0 14.1844802,0 14.1844802,4.47930953 0,4.47930953 0,0" stroke="none" fill="#FFFFFF"></polygon></g></g><g transform="translate(28.063894506432007 37.87580403254833)"><g clip-path="url(#i5)"><polygon points="0,0 5.97692563,0 5.97692563,5.6108659 0,5.6108659 0,0" stroke="none" fill="#FFFFFF"></polygon><g transform="translate(-28.063894506432007 -37.87580403254833)"><g transform="translate(34.992378492037304 36.9969434414893) rotate(47.0)"><g clip-path="url(#i6)"><polygon points="4.54576801e-13,1.29530721 4.09732425,1.29530721 4.09732425,9.49315523 4.54576801e-13,9.49315523 4.54576801e-13,1.29530721" stroke="none" fill="#D7D7D7"></polygon></g></g></g></g></g></g></g></g></svg>