<?xml version="1.0" encoding="UTF-8"?><svg version="1.1" width="52px" height="53px" viewBox="0 0 52.0 53.0" xmlns="http://www.w3.org/2000/svg" xmlns:xlink="http://www.w3.org/1999/xlink"><defs><clipPath id="i0"><path d="M2584,0 L2584,711 L0,711 L0,0 L2584,0 Z"></path></clipPath><clipPath id="i1"><path d="M22.4,0 C28.812,0 32.004,3.192 32.004,9.604 L32.004,29.596 C32.004,36.008 28.812,39.2 22.4,39.2 L9.604,39.2 C3.192,39.2 0,36.008 0,29.596 L0,9.604 C0,3.192 3.192,0 9.604,0 L22.4,0 Z"></path></clipPath><clipPath id="i2"><path d="M18.2857143,0 C23.52,0 26.1257143,2.60571429 26.1257143,7.84 L26.1257143,10.9028571 C20.1371429,11.3828571 16.7314286,15.2228571 16.7314286,21.5542857 L16.7314286,32 L7.84,32 C2.60571429,32 0,29.3942857 0,24.16 L0,7.84 C0,2.60571429 2.60571429,0 7.84,0 L18.2857143,0 Z"></path></clipPath></defs><g transform="translate(-291.0 -487.0)"><g clip-path="url(#i0)"><g transform="translate(291.6133284835179 487.96268825994247)"><g transform="translate(19.118554285712886 12.599999999998545)"><g clip-path="url(#i1)"><polygon points="0,0 32.004,0 32.004,39.2 0,39.2 0,0" stroke="none" fill="#16B09F"></polygon></g></g><g transform="translate(30.828518597202674 31.799665369042486)"><path d="M0,1.07300892 L8.58407138,1.07300892" stroke="#FFFFFF" stroke-width="2" fill="none" stroke-linecap="round" stroke-linejoin="round"></path></g><g transform="translate(34.04754536358814 28.580638602656105)"><path d="M1.07300892,0 L1.07300892,8.58407138" stroke="#FFFFFF" stroke-width="2" fill="none" stroke-linecap="round" stroke-linejoin="round"></path></g><g clip-path="url(#i2)"><polygon points="0,0 26.1257143,0 26.1257143,32 0,32 0,0" stroke="none" fill="#E2E2E2"></polygon></g></g></g></g></svg>