<?xml version="1.0" encoding="UTF-8"?><svg version="1.1" width="64px" height="64px" viewBox="0 0 64.0 64.0" xmlns="http://www.w3.org/2000/svg" xmlns:xlink="http://www.w3.org/1999/xlink"><defs><clipPath id="i0"><path d="M1204,0 L1204,711 L0,711 L0,0 L1204,0 Z"></path></clipPath></defs><g transform="translate(-805.0 -165.0)"><g clip-path="url(#i0)"><g transform="translate(807.0 166.99999999999994)"><g transform="translate(21.351111111111095 34.66781132721261) scale(1.0 -1.0)"><path d="M8.64888889,18.6666667 C11.6232226,18.6775934 14.5677354,18.0738624 17.2977778,16.8933333 L15.7422222,6.22222222 C15.273868,2.66218185 12.2396051,0.000547746152 8.64888889,0 L8.64888889,0 C5.05817268,0.000547746152 2.02390981,2.66218185 1.55555556,6.22222222 L0,16.9555556 C2.73458321,18.1147357 5.67892112,18.6972485 8.64888889,18.6666667 L8.64888889,18.6666667 Z" stroke="#16B09F" stroke-width="3" fill="none" stroke-linecap="round" stroke-linejoin="round"></path></g><g transform="translate(8.222222222222626 47.11225577165694) scale(1.0 -1.0)"><path d="M43.5555556,9.33333333 L43.5555556,0 L0,0 L0,9.33333333 C0,21.3608679 9.75024323,31.1111111 21.7777778,31.1111111 L21.7777778,31.1111111 C33.8053123,31.1111111 43.5555556,21.3608679 43.5555556,9.33333333 L43.5555556,9.33333333 Z" stroke="#000000" stroke-width="3" fill="none" stroke-linecap="round" stroke-linejoin="round"></path></g><g transform="translate(0.0 59.55670021610068) scale(1.0 -1.0)"><path d="M0,0 L60,0 L60,9.33333333 C60,11.0515526 58.5076158,12.4444444 56.6666667,12.4444444 L3.33333333,12.4444444 C1.49238417,12.4444444 0,11.0515526 0,9.33333333 L0,0 Z" stroke="#000000" stroke-width="3" fill="none" stroke-linecap="round" stroke-linejoin="round"></path></g><g transform="translate(29.50000000000091 0.0)"><path d="M0.5,0 L0.5,7.8" stroke="#16B09F" stroke-width="3" fill="none" stroke-linecap="round" stroke-linejoin="round"></path></g><g transform="translate(6.0600000000004 9.659999999999854)"><path d="M0,0 L5.44578641,5.44578641" stroke="#16B09F" stroke-width="3" fill="none" stroke-linecap="round" stroke-linejoin="round"></path></g><g transform="translate(48.49421358915897 9.660000000000261)"><path d="M5.44578641,0 L0,5.44578641" stroke="#16B09F" stroke-width="3" fill="none" stroke-linecap="round" stroke-linejoin="round"></path></g></g></g></g></svg>