<?xml version="1.0" encoding="UTF-8"?><svg version="1.1" width="60px" height="53px" viewBox="0 0 60.0 53.0" xmlns="http://www.w3.org/2000/svg" xmlns:xlink="http://www.w3.org/1999/xlink"><defs><clipPath id="i0"><path d="M1204,0 L1204,711 L0,711 L0,0 L1204,0 Z"></path></clipPath><clipPath id="i1"><path d="M11,0 C17.0751322,0 22,4.92486775 22,11 C22,17.0751322 17.0751322,22 11,22 C4.92486775,22 0,17.0751322 0,11 C0,4.92486775 4.92486775,0 11,0 Z"></path></clipPath><clipPath id="i2"><path d="M13.5,0 C14.3284271,-1.52179594e-16 15,0.671572875 15,1.5 C15,2.32842712 14.3284271,3 13.5,3 L1.5,3 C0.671572875,3 -5.64680752e-16,2.32842712 0,1.5 C-1.01453063e-16,0.671572875 0.671572875,1.52179594e-16 1.5,0 L13.5,0 Z"></path></clipPath></defs><g transform="translate(-905.0 -175.0)"><g clip-path="url(#i0)"><g transform="translate(905.0 175.0)"><g transform="translate(40.99999999999963 9.999999999999638)"><path d="M16.8,1.4 L0,1.4" stroke="#282C32" stroke-width="3" fill="none" stroke-linecap="round" stroke-linejoin="round"></path></g><g transform="translate(1.9999999999996376 40.99999999999964)"><path d="M16.8,1.4 L0,1.4" stroke="#282C32" stroke-width="3" fill="none" stroke-linecap="round" stroke-linejoin="round"></path></g><g transform="translate(13.0 0.0)"><g clip-path="url(#i1)"><path d="M11,22 C17.0751322,22 22,17.0751322 22,11 C22,4.92486775 17.0751322,0 11,0 C4.92486775,0 0,4.92486775 0,11 C0,17.0751322 4.92486775,22 11,22 Z" stroke="#16B09F" stroke-width="6" fill="none" stroke-miterlimit="5"></path></g></g><g transform="translate(0.0 9.0)"><g clip-path="url(#i2)"><polygon points="0,0 15,0 15,3 0,3 0,0" stroke="none" fill="#16B09F"></polygon></g></g><g transform="translate(60.0 31.0) scale(-1.0 1.0)"><g transform="translate(13.0 0.0)"><g clip-path="url(#i1)"><path d="M11,22 C17.0751322,22 22,17.0751322 22,11 C22,4.92486775 17.0751322,0 11,0 C4.92486775,0 0,4.92486775 0,11 C0,17.0751322 4.92486775,22 11,22 Z" stroke="#16B09F" stroke-width="6" fill="none" stroke-miterlimit="5"></path></g></g><g transform="translate(0.0 9.0)"><g clip-path="url(#i2)"><polygon points="0,0 15,0 15,3 0,3 0,0" stroke="none" fill="#16B09F"></polygon></g></g></g></g></g></g></svg>