<?xml version="1.0" encoding="UTF-8"?><svg version="1.1" width="56px" height="52px" viewBox="0 0 56.0 52.0" xmlns="http://www.w3.org/2000/svg" xmlns:xlink="http://www.w3.org/1999/xlink"><defs><clipPath id="i0"><path d="M1204,0 L1204,711 L0,711 L0,0 L1204,0 Z"></path></clipPath><clipPath id="i1"><path d="M38.1873558,0 C39.9242943,0 41.5901209,0.690043656 42.8183306,1.91825338 C44.0465403,3.1464631 44.736516,4.81228967 44.736516,6.54922813 L44.736516,16.2305066 C44.736516,17.9674451 44.0465403,19.6332717 42.8183306,20.8614814 C41.5901209,22.0896911 39.9242943,22.7797348 38.1873558,22.7797348 C36.443075,22.7797348 34.7772485,22.0896911 33.5490387,20.8614814 C32.320829,19.6332717 31.6308534,17.9674451 31.6308534,16.2305066 L31.6308534,6.54922813 C31.6308534,4.81228967 32.320829,3.1464631 33.5490387,1.91825338 C34.7772485,0.690043656 36.443075,0 38.1800135,0 Z M6.55650248,0 C8.29350893,0 9.95926751,0.690043656 11.1874772,1.91825338 C12.415687,3.1464631 13.1056626,4.81228967 13.1056626,6.54922813 L13.1056626,16.2305066 C13.1056626,17.9674451 12.415687,19.6332717 11.1874772,20.8614814 C9.95926751,22.0896911 8.29350893,22.7797348 6.55650248,22.7797348 C4.81222169,22.7797348 3.14639512,22.0896911 1.91818539,20.8614814 C0.689975671,19.6332717 2.66453526e-15,17.9674451 2.66453526e-15,16.2305066 L2.66453526e-15,6.54922813 C2.66453526e-15,4.81228967 0.689975671,3.1464631 1.91818539,1.91825338 C3.14639512,0.690043656 4.81222169,0 6.54916015,0 Z M38.1872879,4.24903729 C37.5699197,4.24903729 36.9849123,4.49140238 36.55355,4.92276464 C36.1221877,5.35412691 35.8798906,5.93920235 35.8798906,6.54922813 L35.8798906,16.2305066 C35.8798906,16.8405324 36.1221877,17.4256079 36.55355,17.8569701 C36.9849123,18.2883324 37.5699197,18.5306975 38.1800135,18.5306975 C38.7974496,18.5306975 39.3824571,18.2883324 39.8137513,17.8569701 C40.2451136,17.4256079 40.4874787,16.8405324 40.4874787,16.2305066 L40.4874787,6.54922813 C40.4874787,5.93920235 40.2451136,5.35412691 39.8137513,4.92276464 C39.3824571,4.49140238 38.7974496,4.24903729 38.1872879,4.24903729 Z M6.55650248,4.24903729 C5.93906638,4.24903729 5.35405892,4.49140238 4.92276464,4.92276464 C4.49140238,5.35412691 4.24903729,5.93920235 4.24903729,6.54922813 L4.24903729,16.2305066 C4.24903729,16.8405324 4.49140238,17.4256079 4.92276464,17.8569701 C5.35405892,18.2883324 5.93906638,18.5306975 6.54922813,18.5306975 C7.16659625,18.5306975 7.75160371,18.2883324 8.18296597,17.8569701 C8.61432824,17.4256079 8.85662534,16.8405324 8.85662534,16.2305066 L8.85662534,6.54922813 C8.85662534,5.93920235 8.61432824,5.35412691 8.18296597,4.92276464 C7.75160371,4.49140238 7.16659625,4.24903729 6.55650248,4.24903729 Z"></path></clipPath><clipPath id="i2"><path d="M31.2139038,0 C44.9028743,0 56,11.0970577 56,24.7859602 L56,39.8426448 C56,41.0152431 55.0480117,41.9671634 53.8754814,41.9671634 C52.702883,41.9671634 51.7509627,41.0152431 51.7509627,39.8426448 L51.7509627,24.7858922 C51.7508267,13.443682 42.556182,4.24903729 31.2139038,4.24903729 L24.7860282,4.24903729 C13.443818,4.24903729 4.24910527,13.443682 4.24903729,24.7860962 L4.24903729,39.8426448 C4.24903729,41.0152431 3.29704898,41.9671634 2.12451864,41.9671634 C0.951920322,41.9671634 0,41.0152431 0,39.8426448 L0,24.7859602 C0,11.0970577 11.0970577,0 24.7860282,0 Z M33.0609093,6.32617067 C34.2334397,6.32617067 35.185428,7.27809099 35.185428,8.45068932 C35.185428,9.62321965 34.2334397,10.575208 33.0609093,10.575208 L21.6738293,10.575208 C20.501231,10.575208 19.5493107,9.62321965 19.5493107,8.45068932 C19.5493107,7.27809099 20.501231,6.32617067 21.6738293,6.32617067 Z"></path></clipPath></defs><g transform="translate(-1124.0 -229.0)"><g clip-path="url(#i0)"><g transform="translate(1124.0 229.3573004153318)"><g transform="translate(5.631708015869549 28.3268699406106)"><g clip-path="url(#i1)"><polygon points="2.66453526e-15,0 44.736516,0 44.736516,22.7797348 2.66453526e-15,22.7797348 2.66453526e-15,0" stroke="none" fill="#1DB69A"></polygon></g></g><g clip-path="url(#i2)"><polygon points="0,0 56,0 56,41.9671634 0,41.9671634 0,0" stroke="none" fill="#000000"></polygon></g></g></g></g></svg>