<?xml version="1.0" encoding="UTF-8"?><svg version="1.1" width="56px" height="57px" viewBox="0 0 56.0 57.0" xmlns="http://www.w3.org/2000/svg" xmlns:xlink="http://www.w3.org/1999/xlink"><defs><clipPath id="i0"><path d="M2584,0 L2584,711 L0,711 L0,0 L2584,0 Z"></path></clipPath><clipPath id="i1"><path d="M18.6666667,0 C28.975982,0 37.3333333,8.35735134 37.3333333,18.6666667 C37.3333333,28.975982 28.975982,37.3333333 18.6666667,37.3333333 C8.35735134,37.3333333 0,28.975982 0,18.6666667 C0,8.35735134 8.35735134,0 18.6666667,0 Z"></path></clipPath><clipPath id="i2"><path d="M4.80816387,0 C7.46363945,0 9.61632775,2.15268829 9.61632775,4.80816387 C9.61632775,7.46363945 7.46363945,9.61632775 4.80816387,9.61632775 C2.15268829,9.61632775 0,7.46363945 0,4.80816387 C0,2.15268829 2.15268829,0 4.80816387,0 Z"></path></clipPath><clipPath id="i3"><path d="M18.6666667,0 C28.975982,0 37.3333333,8.35735134 37.3333333,18.6666667 C37.3333333,28.975982 28.975982,37.3333333 18.6666667,37.3333333 C8.35735134,37.3333333 0,28.975982 0,18.6666667 C0,8.35735134 8.35735134,0 18.6666667,0 Z"></path></clipPath><clipPath id="i4"><path d="M0,0 C10.3093153,0 18.6666667,8.35735134 18.6666667,18.6666667 C8.35735134,18.6666667 0,10.3093153 0,0 Z"></path></clipPath></defs><g transform="translate(-658.0 -485.0)"><g clip-path="url(#i0)"><g transform="translate(657.9999999999994 485.8626882599431)"><g transform="translate(0.0 18.66666666666606)"><g clip-path="url(#i1)"><polygon points="0,0 37.3333333,0 37.3333333,37.3333333 0,37.3333333 0,0" stroke="none" fill="#16B09F"></polygon></g></g><g transform="translate(13.858502794138985 32.525169460805046)"><g clip-path="url(#i2)"><polygon points="0,0 9.61632775,0 9.61632775,9.61632775 0,9.61632775 0,0" stroke="none" fill="#FFFFFF"></polygon></g></g><g transform="translate(18.66666666666788 0.0)"><g clip-path="url(#i3)"><polygon points="0,0 37.3333333,0 37.3333333,37.3333333 0,37.3333333 0,0" stroke="none" fill="#E2E2E2"></polygon></g></g><g transform="translate(16.424522913001255 5.248112217628659) scale(-1.0 1.0)"><path d="M0,0 L10.65872,10.6848086 L10.6848347,4.75603035" stroke="#16B09F" stroke-width="2" fill="none" stroke-linecap="round" stroke-linejoin="round"></path></g><g transform="translate(51.202184236782884 40.06478926681211) scale(-1.0 1.0)"><path d="M10.6848086,10.6717904 L0.0260625152,0 L0,5.91577311" stroke="#16B09F" stroke-width="2" fill="none" stroke-linecap="round" stroke-linejoin="round"></path></g><g transform="translate(18.66666666666788 18.66666666666697)"><g clip-path="url(#i4)"><polygon points="0,0 18.6666667,0 18.6666667,18.6666667 0,18.6666667 0,0" stroke="none" fill="#099B8A"></polygon></g></g></g></g></g></svg>