<?xml version="1.0" encoding="UTF-8"?><svg version="1.1" width="64px" height="69px" viewBox="0 0 64.0 69.0" xmlns="http://www.w3.org/2000/svg" xmlns:xlink="http://www.w3.org/1999/xlink"><defs><clipPath id="i0"><path d="M1204,0 L1204,711 L0,711 L0,0 L1204,0 Z"></path></clipPath><clipPath id="i1"><path d="M16,0 C24.836556,0 32,7.163444 32,16 C32,24.836556 24.836556,32 16,32 C7.163444,32 0,24.836556 0,16 C0,7.163444 7.163444,0 16,0 Z"></path></clipPath></defs><g transform="translate(-413.0 -170.0)"><g clip-path="url(#i0)"><g transform="translate(415.0 172.0)"><path d="M8,0 L38.1176471,0 C42.5359251,-8.11624501e-16 46.1176471,3.581722 46.1176471,8 L46.1176471,48 C46.1176471,52.418278 42.5359251,56 38.1176471,56 L8,56 C3.581722,56 -1.23527384e-15,52.418278 0,48 L0,8 C-5.41083001e-16,3.581722 3.581722,8.11624501e-16 8,0 Z" stroke="#222222" stroke-width="3" fill="none" stroke-miterlimit="10"></path><g transform="translate(13.176470588235295 14.823529411764703)"><path d="M0,1.64705882 L19.7647059,1.64705882" stroke="#222222" stroke-width="3.5" fill="none" stroke-linecap="round" stroke-miterlimit="10"></path></g><g transform="translate(13.176470588235295 28.0)"><path d="M0,1.64705882 L19.7647059,1.64705882" stroke="#222222" stroke-width="3.5" fill="none" stroke-linecap="round" stroke-miterlimit="10"></path></g><g transform="translate(13.176470588235135 42.323529411764866)"><path d="M0,0.5 L11.1764704,0.5" stroke="#222222" stroke-width="3.5" fill="none" stroke-linecap="round" stroke-miterlimit="10"></path></g><g transform="translate(28.0 33.0)"><g clip-path="url(#i1)"><polygon points="0,0 32,0 32,32 0,32 0,0" stroke="none" fill="#16B09F"></polygon></g><path d="M16,32 C24.836556,32 32,24.836556 32,16 C32,7.163444 24.836556,0 16,0 C7.163444,0 0,7.163444 0,16 C0,24.836556 7.163444,32 16,32 Z" stroke="#FFFFFF" stroke-width="4" fill="none" stroke-miterlimit="10"></path><g transform="translate(9.499999999999835 9.499999999999835)"><g transform="translate(8.727272727272727 0.0) scale(-1.0 1.0)"><path d="M0,0 L8.70594245,8.72727273 L8.72727273,3.88469046" stroke="#FFFFFF" stroke-width="2" fill="none" stroke-linecap="round" stroke-linejoin="round"></path></g><g transform="translate(13.00000000000066 4.272727272727934) scale(-1.0 1.0)"><path d="M8.72727273,8.72727273 L0.0212876698,0 L0,4.83785413" stroke="#FFFFFF" stroke-width="2" fill="none" stroke-linecap="round" stroke-linejoin="round"></path></g></g></g></g></g></g></svg>