<?xml version="1.0" encoding="UTF-8"?><svg version="1.1" width="81px" height="58px" viewBox="0 0 81.0 58.0" xmlns="http://www.w3.org/2000/svg" xmlns:xlink="http://www.w3.org/1999/xlink"><defs><clipPath id="i0"><path d="M2584,0 L2584,711 L0,711 L0,0 L2584,0 Z"></path></clipPath><clipPath id="i1"><path d="M46.36,0 C48.64,0 50.92,2.28 50.92,5.32 L50.92,50.92 C50.92,53.96 48.64,56.24 46.36,56.24 L4.56,56.24 C2.28,56.24 0,53.96 0,50.92 L0,5.32 C0,2.28 2.28,0 4.56,0 L46.36,0 Z"></path></clipPath><clipPath id="i2"><path d="M57,0 C60.04,0 62.32,1.52 62.32,4.56 L62.32,44.08 C62.32,46.36 60.04,48.64 57,48.64 L5.32,48.64 C2.28,48.64 0,46.36 0,44.08 L0,0 L57,0 Z"></path></clipPath><clipPath id="i3"><path d="M19,0 L19,16.72 L8.36,16.72 C3.8,16.72 0,12.92 0,8.36 C0,3.8 3.8,0 8.36,0 L19,0 Z M9.07729294,4.56 C7.19864647,4.56 5.32,6.43864647 5.32,8.31729294 C5.32,10.1959394 7.19864647,12.0745859 9.07729294,12.0745859 C10.9559394,12.0745859 12.8345859,10.1959394 12.8345859,8.31729294 C12.8345859,6.43864647 10.9559394,4.56 9.07729294,4.56 Z"></path></clipPath><clipPath id="i4"><path d="M16,0 C24.836556,0 32,7.163444 32,16 C32,24.836556 24.836556,32 16,32 C7.163444,32 0,24.836556 0,16 C0,7.163444 7.163444,0 16,0 Z"></path></clipPath></defs><g transform="translate(-926.0 -485.0)"><g clip-path="url(#i0)"><g transform="translate(928.3242387357722 485.36268825994307)"><g transform="translate(16.0 0.0)"><g clip-path="url(#i1)"><polygon points="0,0 50.92,0 50.92,56.24 0,56.24 0,0" stroke="none" fill="#E2E2E2"></polygon></g></g><g transform="translate(16.0 8.359999999999669)"><g clip-path="url(#i2)"><polygon points="0,0 62.32,0 62.32,48.64 0,48.64 0,0" stroke="none" fill="#16B09F"></polygon></g></g><g transform="translate(59.31999999999971 24.31999999999971)"><g clip-path="url(#i3)"><polygon points="0,0 19,0 19,16.72 0,16.72 0,0" stroke="none" fill="#FFFFFF"></polygon></g></g><g transform="translate(0.0 16.67999999999938)"><g clip-path="url(#i4)"><polygon points="0,0 32,0 32,32 0,32 0,0" stroke="none" fill="#16B09F"></polygon></g><path d="M16,32 C24.836556,32 32,24.836556 32,16 C32,7.163444 24.836556,0 16,0 C7.163444,0 0,7.163444 0,16 C0,24.836556 7.163444,32 16,32 Z" stroke="#FFFFFF" stroke-width="4" fill="none" stroke-miterlimit="10"></path></g><g transform="translate(12.97872557129391 26.508886273281657) rotate(-44.99999999999999) scale(-1.0 1.0)"><path d="M0,0 L8.70594245,8.72727273 L8.72727273,3.88469046" stroke="#FFFFFF" stroke-width="2" fill="none" stroke-linecap="round" stroke-linejoin="round"></path></g><g transform="translate(19.02127442870675 26.508886273281657) rotate(-44.99999999999999) scale(-1.0 1.0)"><path d="M8.72727273,8.72727273 L0.0212876698,0 L0,4.83785413" stroke="#FFFFFF" stroke-width="2" fill="none" stroke-linecap="round" stroke-linejoin="round"></path></g></g></g></g></svg>