<?xml version="1.0" encoding="UTF-8"?><svg version="1.1" width="64px" height="68px" viewBox="0 0 64.0 68.0" xmlns="http://www.w3.org/2000/svg" xmlns:xlink="http://www.w3.org/1999/xlink"><defs><clipPath id="i0"><path d="M2584,0 L2584,711 L0,711 L0,0 L2584,0 Z"></path></clipPath><clipPath id="i1"><path d="M28,0 C43.463973,0 56,12.536027 56,28 C56,43.463973 43.463973,56 28,56 C12.536027,56 0,43.463973 0,28 C0,12.536027 12.536027,0 28,0 Z"></path></clipPath><clipPath id="i2"><path d="M11.9411765,0 C18.5361061,0 23.8823529,6.49187113 23.8823529,14.5 C23.8823529,22.5081289 18.5361061,29 11.9411765,29 C5.34624681,29 0,22.5081289 0,14.5 C0,6.49187113 5.34624681,0 11.9411765,0 Z"></path></clipPath><clipPath id="i3"><path d="M37.6254023,0 C38.2848953,1.32973629e-15 38.81952,0.534624681 38.81952,1.19411765 C38.81952,1.85361061 38.2848953,2.38823529 37.6254023,2.38823529 L1.19411765,2.38823529 C0.534624681,2.38823529 8.0764595e-17,1.85361061 0,1.19411765 C-8.0764595e-17,0.534624681 0.534624681,1.21146892e-16 1.19411765,0 L37.6254023,0 Z"></path></clipPath><clipPath id="i4"><path d="M14.75,0 C22.8962001,0 29.5,6.60379994 29.5,14.75 C29.5,22.8962001 22.8962001,29.5 14.75,29.5 C6.60379994,29.5 0,22.8962001 0,14.75 C0,6.60379994 6.60379994,0 14.75,0 Z"></path></clipPath><clipPath id="i5"><path d="M0.447141415,3.60627268e-13 C9.84006143,1.79500941 17.5672952,8.28279439 21.0955633,16.9300753 C19.17369,17.8489974 17.021825,18.3626075 14.75,18.3626075 C6.60379994,18.3626075 0,11.7588075 0,3.61260745 C0,2.44886459 0.134771427,1.31659927 0.389558014,0.230567784 L0.447141415,3.60627268e-13 Z"></path></clipPath></defs><g transform="translate(-743.0 -480.0)"><g clip-path="url(#i0)"><g transform="translate(743.8782857142869 480.54322890670846)"><g transform="translate(0.0 10.638918706468754)"><g clip-path="url(#i1)"><polygon points="0,0 56,0 56,56 0,56 0,0" stroke="none" fill="#16B09F"></polygon></g></g><g transform="translate(8.590240011250899 26.112521190940242)"><g transform="translate(7.4685835181608144 0.0)"><g clip-path="url(#i2)"><polygon points="0,0 23.8823529,0 23.8823529,29 0,29 0,0" stroke="none" fill="#E2E2E2"></polygon></g></g><g transform="translate(0.0 12.7372549019613)"><g clip-path="url(#i3)"><polygon points="0,0 38.81952,0 38.81952,2.38823529 0,2.38823529 0,0" stroke="none" fill="#FFFFFF"></polygon></g></g></g><g transform="translate(32.840089162655204 0.0)"><g clip-path="url(#i4)"><polygon points="0,0 29.5,0 29.5,29.5 0,29.5 0,0" stroke="none" fill="#E2E2E2"></polygon></g></g><g transform="translate(32.840089162655204 11.137392547164383)"><g clip-path="url(#i5)"><polygon points="0,3.60627268e-13 21.0955633,3.60627268e-13 21.0955633,18.3626075 0,18.3626075 0,3.60627268e-13" stroke="none" fill="#099B8A"></polygon></g></g></g></g></g></svg>