<?xml version="1.0" encoding="UTF-8"?><svg version="1.1" width="56px" height="50px" viewBox="0 0 56.0 50.0" xmlns="http://www.w3.org/2000/svg" xmlns:xlink="http://www.w3.org/1999/xlink"><defs><clipPath id="i0"><path d="M1204,0 L1204,711 L0,711 L0,0 L1204,0 Z"></path></clipPath><clipPath id="i1"><path d="M15,0 C23.2842712,0 30,8.15481349 30,18.2142857 C30,28.2737579 23.2842712,36.4285714 15,36.4285714 C6.71572875,36.4285714 0,28.2737579 0,18.2142857 C0,8.15481349 6.71572875,0 15,0 Z"></path></clipPath><clipPath id="i2"><path d="M12.7995373,0.317442358 C13.1103765,-0.396473865 14.1809067,0.220253763 13.8737976,0.923371252 C12.7063653,3.60939378 9.98277398,5.35714286 6.96446374,5.35714286 C3.94615349,5.35714286 1.22256217,3.60939378 0.0551298837,0.923371252 C-0.253222608,0.220253763 0.818550972,-0.390474569 1.12814682,0.317442358 C2.06910121,2.63465382 4.38484386,4.15912475 6.96384206,4.15912475 C9.54284026,4.15912475 11.8585829,2.63465382 12.7995373,0.317442358 Z"></path></clipPath><clipPath id="i3"><path d="M54.5,0 C55.3284271,-1.52179594e-16 56,0.671572875 56,1.5 C56,2.32842712 55.3284271,3 54.5,3 L1.5,3 C0.671572875,3 1.21167609e-15,2.32842712 0,1.5 C-1.01453063e-16,0.671572875 0.671572875,1.52179594e-16 1.5,0 L54.5,0 Z"></path></clipPath></defs><g transform="translate(-818.0 -99.0)"><g clip-path="url(#i0)"><g transform="translate(818.0 101.0)"><g transform="translate(13.0 4.999999999999609)"><g clip-path="url(#i1)"><path d="M15,36.4285714 C23.2842712,36.4285714 30,28.2737579 30,18.2142857 C30,8.15481349 23.2842712,0 15,0 C6.71572875,0 0,8.15481349 0,18.2142857 C0,28.2737579 6.71572875,36.4285714 15,36.4285714 Z" stroke="#000000" stroke-width="6" fill="none" stroke-miterlimit="5"></path></g><g transform="translate(7.8214285714287675 24.642857142857146)"><g clip-path="url(#i2)"><polygon points="7.98849584e-17,4.03836686e-16 13.9285714,4.03836686e-16 13.9285714,5.35714286 7.98849584e-17,5.35714286 7.98849584e-17,4.03836686e-16" stroke="none" fill="#000000"></polygon></g><path d="M12.7995373,0.317442358 C11.8585829,2.63465382 9.54284026,4.15912475 6.96384206,4.15912475 C4.38484386,4.15912475 2.06910121,2.63465382 1.12814682,0.317442358 C0.818550972,-0.390474569 -0.253222608,0.220253763 0.0551298837,0.923371252 C1.22256217,3.60939378 3.94615349,5.35714286 6.96446374,5.35714286 C9.98277398,5.35714286 12.7063653,3.60939378 13.8737976,0.923371252 C14.1809067,0.220253763 13.1103765,-0.396473865 12.7995373,0.317442358 L12.7995373,0.317442358 Z" stroke="#000000" stroke-width="1.5" fill="none" stroke-miterlimit="10"></path></g></g><g transform="translate(5.0 0.0)"><path d="M0,12 L0,5 C-3.38176876e-16,2.23857625 2.23857625,2.28362215e-15 5,0 L12,0 L12,0" stroke="#000000" stroke-width="3" fill="none" stroke-linecap="round" stroke-miterlimit="10"></path><g transform="translate(46.0 0.0) scale(-1.0 1.0)"><path d="M0,12 L0,5 C-3.38176876e-16,2.23857625 2.23857625,2.28362215e-15 5,0 L12,0 L12,0" stroke="#000000" stroke-width="3" fill="none" stroke-linecap="round" stroke-miterlimit="10"></path></g><g transform="translate(0.0 46.0) scale(1.0 -1.0)"><path d="M0,12 L0,5 C-3.38176876e-16,2.23857625 2.23857625,2.28362215e-15 5,0 L12,0 L12,0" stroke="#000000" stroke-width="3" fill="none" stroke-linecap="round" stroke-miterlimit="10"></path></g><g transform="translate(46.0 46.0) rotate(-180.0)"><path d="M0,12 L0,5 C-3.38176876e-16,2.23857625 2.23857625,2.28362215e-15 5,0 L12,0 L12,0" stroke="#000000" stroke-width="3" fill="none" stroke-linecap="round" stroke-miterlimit="10"></path></g></g><g transform="translate(0.0 21.0)"><g clip-path="url(#i3)"><polygon points="0,0 56,0 56,3 0,3 0,0" stroke="none" fill="#16B09F"></polygon></g></g></g></g></g></svg>