<?xml version="1.0" encoding="UTF-8"?><svg version="1.1" width="63px" height="56px" viewBox="0 0 63.0 56.0" xmlns="http://www.w3.org/2000/svg" xmlns:xlink="http://www.w3.org/1999/xlink"><defs><clipPath id="i0"><path d="M1204,0 L1204,711 L0,711 L0,0 L1204,0 Z"></path></clipPath><clipPath id="i1"><path d="M54.0187805,3.86920256 L57.5861221,14.2268097 C60.2955286,15.5082531 62.1698144,18.2666244 62.1698144,21.4627586 L62.1698144,48 C62.1698144,52.418278 58.5880924,56 54.1698144,56 L8,56 C3.581722,56 2.68894533e-15,52.418278 0,48 L0,21.4627586 C-5.41083001e-16,17.0444806 3.581722,13.4627586 8,13.4627586 L8.74651549,13.4623385 C9.26037225,13.0583909 9.84950752,12.7321788 10.5023733,12.5073791 L46.3922601,0.149500029 C49.5254331,-0.929337931 52.9399426,0.736029616 54.0187805,3.86920256 Z"></path></clipPath><clipPath id="i2"><path d="M54.1698144,0 C58.5880924,3.11259467e-15 62.1698144,3.581722 62.1698144,8 L62.1698144,34.5372414 C62.1698144,38.9555194 58.5880924,42.5372414 54.1698144,42.5372414 L8,42.5372414 C3.581722,42.5372414 2.68894533e-15,38.9555194 0,34.5372414 L0,8 C-5.41083001e-16,3.581722 3.581722,8.11624501e-16 8,0 L54.1698144,0 Z"></path></clipPath><clipPath id="i3"><path d="M1.9428067,0 C3.01578921,-1.9710369e-16 3.8856134,0.869824187 3.8856134,1.9428067 L3.8856134,13.5996469 C3.8856134,14.6726294 3.01578921,15.5424536 1.9428067,15.5424536 C0.869824187,15.5424536 1.68571469e-15,14.6726294 0,13.5996469 L0,1.9428067 C-1.3140246e-16,0.869824187 0.869824187,1.9710369e-16 1.9428067,0 Z"></path></clipPath><clipPath id="i4"><path d="M3.33052577,0 C5.16992436,0 6.66105154,1.49112718 6.66105154,3.33052577 C6.66105154,5.16992436 5.16992436,6.66105154 3.33052577,6.66105154 C1.49112718,6.66105154 0,5.16992436 0,3.33052577 C0,1.49112718 1.49112718,0 3.33052577,0 Z"></path></clipPath></defs><g transform="translate(-133.0 -172.0)"><g clip-path="url(#i0)"><g transform="translate(132.9999999999996 172.0)"><g clip-path="url(#i1)"><path d="M54.0187805,3.86920256 L57.5861221,14.2268097 C60.2955286,15.5082531 62.1698144,18.2666244 62.1698144,21.4627586 L62.1698144,48 C62.1698144,52.418278 58.5880924,56 54.1698144,56 L8,56 C3.581722,56 2.68894533e-15,52.418278 0,48 L0,21.4627586 C-5.41083001e-16,17.0444806 3.581722,13.4627586 8,13.4627586 L8.74651549,13.4623385 C9.26037225,13.0583909 9.84950752,12.7321788 10.5023733,12.5073791 L46.3922601,0.149500029 C49.5254331,-0.929337931 52.9399426,0.736029616 54.0187805,3.86920256 Z" stroke="#16B09F" stroke-width="6" fill="none" stroke-miterlimit="5"></path></g><g transform="translate(0.0 13.462758584982979)"><g clip-path="url(#i2)"><path d="M8,0 L54.1698144,0 C58.5880924,3.11259467e-15 62.1698144,3.581722 62.1698144,8 L62.1698144,34.5372414 C62.1698144,38.9555194 58.5880924,42.5372414 54.1698144,42.5372414 L8,42.5372414 C3.581722,42.5372414 2.68894533e-15,38.9555194 0,34.5372414 L0,8 C-5.41083001e-16,3.581722 3.581722,8.11624501e-16 8,0 Z" stroke="#000000" stroke-width="6" fill="none" stroke-miterlimit="5"></path></g></g><g transform="translate(24.423855647633292 22.203505134212087) rotate(90.0)"><g clip-path="url(#i3)"><polygon points="0,0 3.8856134,0 3.8856134,15.5424536 0,15.5424536 0,0" stroke="none" fill="#16B09F"></polygon></g></g><g transform="translate(46.07227315349007 31.780650320708958)"><g clip-path="url(#i4)"><polygon points="0,0 6.66105154,0 6.66105154,6.66105154 0,6.66105154 0,0" stroke="none" fill="#000000"></polygon></g></g></g></g></g></svg>