<svg xmlns:xlink="http://www.w3.org/1999/xlink" data-v-0d24a55f="" width="20" height="20" viewBox="0 0 20 20" fill="none" xmlns="http://www.w3.org/2000/svg"><path data-v-0d24a55f="" d="M8.125 3.125H4.375C4.04348 3.125 3.72554 3.2567 3.49112 3.49112C3.2567 3.72554 3.125 4.04348 3.125 4.375V8.125C3.125 8.45652 3.2567 8.77446 3.49112 9.00888C3.72554 9.2433 4.04348 9.375 4.375 9.375H8.125C8.45652 9.375 8.77446 9.2433 9.00888 9.00888C9.2433 8.77446 9.375 8.45652 9.375 8.125V4.375C9.375 4.04348 9.2433 3.72554 9.00888 3.49112C8.77446 3.2567 8.45652 3.125 8.125 3.125ZM8.125 8.125H4.375V4.375H8.125V8.125ZM8.125 10.625H4.375C4.04348 10.625 3.72554 10.7567 3.49112 10.9911C3.2567 11.2255 3.125 11.5435 3.125 11.875V15.625C3.125 15.9565 3.2567 16.2745 3.49112 16.5089C3.72554 16.7433 4.04348 16.875 4.375 16.875H8.125C8.45652 16.875 8.77446 16.7433 9.00888 16.5089C9.2433 16.2745 9.375 15.9565 9.375 15.625V11.875C9.375 11.5435 9.2433 11.2255 9.00888 10.9911C8.77446 10.7567 8.45652 10.625 8.125 10.625ZM8.125 15.625H4.375V11.875H8.125V15.625ZM15.625 10.625H11.875C11.5435 10.625 11.2255 10.7567 10.9911 10.9911C10.7567 11.2255 10.625 11.5435 10.625 11.875V15.625C10.625 15.9565 10.7567 16.2745 10.9911 16.5089C11.2255 16.7433 11.5435 16.875 11.875 16.875H15.625C15.9565 16.875 16.2745 16.7433 16.5089 16.5089C16.7433 16.2745 16.875 15.9565 16.875 15.625V11.875C16.875 11.5435 16.7433 11.2255 16.5089 10.9911C16.2745 10.7567 15.9565 10.625 15.625 10.625ZM15.625 15.625H11.875V11.875H15.625V15.625Z" fill="#1F1F1F"></path> <path data-v-0d24a55f="" fill-rule="evenodd" clip-rule="evenodd" d="M16.3823 3.57539L12.6893 2.92421C12.3628 2.86665 12.0268 2.94113 11.7552 3.13128C11.4837 3.32144 11.2988 3.61168 11.2412 3.93816L10.59 7.63119C10.5324 7.95768 10.6069 8.29366 10.7971 8.56522C10.9872 8.83679 11.2775 9.02169 11.604 9.07926L15.297 9.73044C15.6235 9.78801 15.9595 9.71353 16.231 9.52337C16.5026 9.33322 16.6875 9.04298 16.7451 8.71649L17.3962 5.02346C17.4538 4.69698 17.3793 4.361 17.1892 4.08943C16.999 3.81787 16.7088 3.63296 16.3823 3.57539ZM11.821 7.84825L15.514 8.49943L16.1652 4.8064L12.4722 4.15522L11.821 7.84825Z" fill="#1F1F1F"></path></svg>